<svg width="136" height="186" viewBox="0 0 136 186" fill="none" xmlns="http://www.w3.org/2000/svg">
<path opacity="0.21" d="M45.5726 60.4037C45.1371 60.6214 44.7016 60.8392 44.0484 60.8392C44.4839 60.8392 45.1371 60.6214 45.5726 60.4037Z" fill="black"/>
<path d="M91.9516 90.6699V93.936L113.073 92.8473C113.29 91.7586 113.29 90.8876 113.29 89.7989C113.29 89.1457 113.29 88.4924 113.073 87.6215C112.419 81.7424 107.847 77.6053 103.056 77.6053C100.008 77.6053 97.1774 79.1295 95.2177 81.5247C93.4758 83.9199 91.9516 87.186 91.9516 90.6699Z" fill="#282830"/>
<path d="M20.0968 89.3634C20.0968 90.2344 20.0968 91.1054 20.3145 91.9763L41.4355 93.2828V90.4521C41.4355 83.4844 36.6452 77.6053 30.7661 77.6053C27.9355 77.6053 25.3226 78.9118 23.5806 81.0892C21.4032 83.0489 20.0968 86.0973 20.0968 89.3634Z" fill="#282830"/>
<path d="M9.8629 80.6537C9.8629 80.6537 9.20968 76.9521 10.2984 73.9037C10.5161 73.4682 10.5161 73.2505 10.7339 73.0328C10.9516 73.4682 11.3871 74.1215 12.4758 74.5569C14 75.2102 17.0484 74.7747 17.0484 74.7747C17.0484 74.7747 18.1371 74.1215 18.5726 73.9037C19.0081 73.686 21.1855 72.5973 16.1774 72.5973C12.9113 72.5973 12.6935 70.8553 12.0403 69.9844C12.2581 69.5489 12.2581 69.1134 12.4758 68.8957C12.9113 67.3715 14.2177 66.2828 15.5242 66.2828C16.3952 66.2828 17.2661 66.2828 18.1371 66.2828C19.6613 66.2828 21.8387 66.065 24.0161 65.4118L26.8468 66.2828C31.6371 63.4521 40.7823 60.186 44.4839 58.8795C49.2742 57.7908 55.1532 56.0489 65.1694 56.4844C67.129 56.7021 69.7419 57.1376 72.5726 58.0086C78.4516 60.6215 87.379 66.5005 88.4677 67.3715C89.5565 68.2424 92.6048 69.5489 94.5645 68.8957C95.4355 68.6779 96.3065 68.4602 96.7419 68.4602C98.7016 68.6779 104.145 69.1134 108.935 70.2021C114.815 71.7263 120.476 73.686 123.524 75.6457C126.573 77.6053 127.879 79.3473 126.79 82.3957C125.702 83.7021 123.524 85.8795 123.089 85.8795L124.831 89.3634C124.831 89.3634 125.484 90.4521 126.79 89.1457L127.008 89.5811C127.008 89.5811 126.137 91.7586 123.742 93.065C121.347 94.1537 118.734 94.8069 112.637 95.4602H112.419C113.508 92.8473 113.508 90.6698 112.855 88.0569C111.984 84.5731 108.5 80.6537 103.274 80.436C97.6129 80.2182 92.1693 84.1376 92.1693 91.1053L92.3871 95.4602L41.6532 94.8069V90.8876C41.4355 84.7908 36.8629 80.6537 31.4194 80.6537C25.9758 80.436 21.621 84.3553 20.5323 89.1457C20.3145 90.6698 20.3145 91.9763 20.5323 93.7182H20.3145C20.3145 93.7182 15.9597 93.2828 11.3871 91.1053C11.3871 91.1053 10.0806 88.4924 9.20968 86.0973C8.33871 83.2666 8.99193 81.7424 9.8629 80.6537Z" fill="#F93D14"/>
<path d="M40.3468 85.8795C41 85.8795 41.4355 85.8795 41.4355 85.8795L92.1694 86.5327H92.8226C92.3871 87.8392 91.9516 89.3634 91.9516 90.8876V95.2424L41.2177 94.5892C41.2177 94.5892 41.2177 94.5892 41 94.5892V90.6698C41.4355 88.9279 40.7823 87.4037 40.3468 85.8795Z" fill="#AE202B"/>
<path d="M113.073 89.3634C113.073 88.9279 112.637 87.4037 112.202 86.5328C117.863 86.0973 121.129 85.2263 123.524 83.9199C125.919 82.8311 124.395 83.9198 124.395 83.7021H124.613C124.613 84.1376 127.008 81.5247 126.79 81.9602C126.573 82.1779 126.573 82.1779 126.355 82.3957C125.266 83.7021 123.524 85.2263 123.089 85.2263L125.048 88.9279C125.048 88.9279 125.702 89.7989 127.008 88.4924V89.1457C127.008 89.1457 126.573 90.0166 125.919 90.8876C125.484 91.5408 124.831 91.9763 123.96 92.4118C121.565 93.5005 118.952 94.1537 112.855 94.8069H112.419C113.073 93.2828 113.508 91.9763 113.073 89.3634Z" fill="#AE202B"/>
<path d="M11.1693 90.4521C11.1693 90.4521 9.8629 87.8392 8.99193 85.444C8.3387 83.0489 8.77419 81.5247 9.64516 80.436C9.64516 80.436 9.42741 79.565 9.42741 78.2585C10.2984 80.6537 12.0403 82.1779 14.2177 83.0489C17.4839 84.1376 20.0968 84.3553 20.0968 84.3553H20.3145C20.5323 84.3553 21.8387 84.5731 22.0564 84.5731C21.4032 85.6618 20.5323 86.9682 20.3145 88.9279C20.0968 90.2344 20.0968 91.9763 20.3145 93.065H20.0968C20.3145 93.2827 15.9597 92.8473 11.1693 90.4521Z" fill="#AE202B"/>
<path d="M89.5564 71.0731C89.5564 71.0731 50.3629 70.4198 31.2016 67.1537C31.2016 67.1537 48.8387 57.7908 61.9032 58.444C74.75 59.315 79.5403 63.4521 89.5564 71.0731Z" fill="#FFF7F7"/>
<path d="M88.4677 67.1537C87.379 66.2827 78.4516 60.4037 72.5726 57.7908C83.0242 61.0569 96.0887 68.0246 96.0887 68.0246C96.0887 68.0246 96.3064 68.0246 96.7419 68.0246C96.3064 68.0246 95.6532 68.2424 94.5645 68.4601C92.8226 69.3311 89.7742 68.0246 88.4677 67.1537Z" fill="#282830"/>
<path d="M24.0161 64.9763C24.4516 64.7586 25.1048 64.7586 25.5403 64.5409C28.1532 63.6699 39.6935 59.7505 44.7016 58.4441C40.7823 59.7505 31.8548 63.0167 27.0645 65.8473L24.0161 64.9763Z" fill="#282830"/>
<path d="M17.4839 71.7262C22.2742 72.5972 19.0081 73.4682 18.5726 73.6859C18.1371 73.9037 17.0484 74.5569 17.0484 74.5569C17.0484 74.5569 14.2177 74.7746 12.4758 74.5569C11.3871 74.3392 10.7339 74.1214 10.5161 73.6859C10.9516 72.5972 11.8226 70.6375 12.2581 69.5488C12.6935 70.4198 14 71.2908 17.4839 71.7262Z" fill="#FFF7F7"/>
<path d="M102.403 99.5973C107.213 99.5973 111.113 95.7953 111.113 91.1053C111.113 86.4154 107.213 82.6134 102.403 82.6134C97.593 82.6134 93.6935 86.4154 93.6935 91.1053C93.6935 95.7953 97.593 99.5973 102.403 99.5973Z" fill="#282830"/>
<path d="M102.403 97.8553C106.131 97.8553 109.153 94.8333 109.153 91.1053C109.153 87.3774 106.131 84.3553 102.403 84.3553C98.6753 84.3553 95.6532 87.3774 95.6532 91.1053C95.6532 94.8333 98.6753 97.8553 102.403 97.8553Z" fill="#FFF7F7"/>
<path d="M102.403 93.2828C103.606 93.2828 104.581 92.308 104.581 91.1054C104.581 89.9028 103.606 88.928 102.403 88.928C101.201 88.928 100.226 89.9028 100.226 91.1054C100.226 92.308 101.201 93.2828 102.403 93.2828Z" fill="#282830"/>
<path opacity="0.1" d="M111.113 91.1053C111.113 91.9763 110.895 92.6295 110.895 93.2828C109.806 89.5811 106.54 86.9682 102.621 86.9682C98.7016 86.9682 95.2177 89.5811 94.3468 93.2828C94.129 92.6295 94.129 91.7586 94.129 91.1053C94.129 86.315 98.0484 82.6134 102.839 82.6134C107.194 82.6134 111.113 86.315 111.113 91.1053Z" fill="black"/>
<path d="M30.7661 99.5973C35.5763 99.5973 39.4758 95.7953 39.4758 91.1053C39.4758 86.4154 35.5763 82.6134 30.7661 82.6134C25.9559 82.6134 22.0564 86.4154 22.0564 91.1053C22.0564 95.7953 25.9559 99.5973 30.7661 99.5973Z" fill="#282830"/>
<path d="M30.7661 97.8553C34.494 97.8553 37.5161 94.8333 37.5161 91.1053C37.5161 87.3774 34.494 84.3553 30.7661 84.3553C27.0382 84.3553 24.0161 87.3774 24.0161 91.1053C24.0161 94.8333 27.0382 97.8553 30.7661 97.8553Z" fill="#FFF7F7"/>
<path d="M30.7661 93.2828C31.9687 93.2828 32.9435 92.308 32.9435 91.1054C32.9435 89.9028 31.9687 88.928 30.7661 88.928C29.5636 88.928 28.5887 89.9028 28.5887 91.1054C28.5887 92.308 29.5636 93.2828 30.7661 93.2828Z" fill="#282830"/>
<path opacity="0.1" d="M39.2581 91.1053C39.2581 91.9763 39.0403 92.6295 39.0403 93.2828C37.9516 89.5811 34.6855 86.9682 30.7661 86.9682C26.8468 86.9682 23.3629 89.5811 22.4919 93.2828C22.2742 92.6295 22.2742 91.7586 22.2742 91.1053C22.2742 86.315 26.1935 82.6134 30.9839 82.6134C35.5564 82.6134 39.2581 86.315 39.2581 91.1053Z" fill="black"/>
<path d="M116.121 73.9037C116.121 73.9037 113.29 73.0327 114.161 74.9924C115.032 76.9521 118.734 80.6537 120.911 80.6537C123.524 80.6537 124.831 80.436 124.395 79.3472C123.742 77.3876 119.605 74.7747 116.121 73.9037Z" fill="#FFF7F7"/>
<path d="M126.79 82.1779V89.3633C126.79 89.3633 126.79 89.3633 126.79 89.5811L125.484 90.452C125.266 90.6698 124.831 90.6698 124.613 90.2343L122 86.3149C121.565 85.8795 121.782 85.0085 122.435 84.7908L126.79 82.1779Z" fill="#AE202B"/>
<path d="M85.8548 66.2827H84.3307C83.8952 66.2827 83.2419 66.5005 83.2419 67.1537C83.2419 67.5892 83.2419 69.1134 83.2419 69.1134C83.2419 69.7666 83.4597 70.2021 83.8952 70.2021L86.7258 70.4198L87.1613 71.7263L88.6855 71.944C88.6855 71.944 88.4677 68.8956 86.7258 66.9359C86.7258 66.5005 86.2903 66.2827 85.8548 66.2827Z" fill="#7393CB"/>
<path opacity="0.1" d="M85.8548 66.2827H84.3307C83.8952 66.2827 83.2419 66.5005 83.2419 67.1537C83.2419 67.5892 83.2419 69.1134 83.2419 69.1134C83.2419 69.7666 83.4597 70.2021 83.8952 70.2021L86.7258 70.4198L87.1613 71.7263H88.6855C88.6855 71.7263 88.4678 68.6779 86.9436 66.9359C86.7258 66.5005 86.2903 66.2827 85.8548 66.2827Z" fill="black"/>
<path opacity="0.21" d="M90.8629 42.5488H84.3306V40.1537C84.3306 39.7182 83.8951 39.2827 83.4597 39.2827H82.1532C81.7177 39.2827 81.2822 39.7182 81.2822 40.1537V42.5488H54.0645V40.1537C54.0645 39.7182 53.629 39.2827 53.1935 39.2827H51.8871C51.4516 39.2827 51.0161 39.7182 51.0161 40.1537V42.5488H44.9193C42.9597 42.5488 41.4355 44.073 41.4355 46.0327V59.5327V95.4601C41.4355 97.4198 42.9597 98.944 44.9193 98.944H90.6452C92.6048 98.944 94.129 97.4198 94.129 95.4601V59.7505V46.2505C94.3468 44.2908 92.8226 42.5488 90.8629 42.5488Z" fill="black"/>
<path d="M39.2581 93.065C39.2581 95.0247 40.7823 96.5489 42.7419 96.5489H88.4677C90.4274 96.5489 91.9516 95.0247 91.9516 93.065V57.1376H39.2581V93.065Z" fill="#FFF7F7"/>
<path d="M88.4677 40.1537H42.7419C40.7823 40.1537 39.2581 41.6779 39.2581 43.6376V57.1376H91.9516V43.6376C91.7339 41.6779 90.2097 40.1537 88.4677 40.1537Z" fill="#1C1C1A"/>
<path d="M62.5565 60.8392H56.0242V67.3715H62.5565V60.8392Z" fill="#F93D14"/>
<path d="M74.5323 60.8392H68V67.3715H74.5323V60.8392Z" fill="#F93D14"/>
<path d="M74.5323 84.5731H68V91.1054H74.5323V84.5731Z" fill="#F93D14"/>
<path d="M86.5081 60.8392H79.9758V67.3715H86.5081V60.8392Z" fill="#F93D14"/>
<path d="M86.5081 84.3553H79.9758V90.8876H86.5081V84.3553Z" fill="#F93D14"/>
<path d="M86.5081 73.0328H79.9758V79.5651H86.5081V73.0328Z" fill="#F93D14"/>
<path d="M50.5806 73.0328H44.0484V79.5651H50.5806V73.0328Z" fill="#F93D14"/>
<path d="M62.5565 73.0328H56.0242V79.5651H62.5565V73.0328Z" fill="#F93D14"/>
<path d="M74.5323 73.0328H68V79.5651H74.5323V73.0328Z" fill="#F93D14"/>
<path d="M50.5806 84.5731H44.0484V91.1054H50.5806V84.5731Z" fill="#F93D14"/>
<path d="M62.5565 84.5731H56.0242V91.1054H62.5565V84.5731Z" fill="#F93D14"/>
<path d="M50.7984 44.7263H49.4919C49.0564 44.7263 48.621 44.2908 48.621 43.8553V37.7585C48.621 37.3231 49.0564 36.8876 49.4919 36.8876H50.7984C51.2339 36.8876 51.6693 37.3231 51.6693 37.7585V44.0731C51.6693 44.5085 51.2339 44.7263 50.7984 44.7263Z" fill="#F93D14"/>
<path d="M53.4113 49.5166V47.5569C53.4113 47.1214 53.8468 46.6859 54.2823 46.6859H76.9274C77.3629 46.6859 77.7984 47.1214 77.7984 47.5569V49.5166C77.7984 49.952 77.3629 50.3875 76.9274 50.3875H54.2823C53.8468 50.3875 53.4113 49.952 53.4113 49.5166Z" fill="#FFF7F7"/>
<path d="M81.0645 44.7263H79.7581C79.3226 44.7263 78.8871 44.2908 78.8871 43.8553V37.7585C78.8871 37.3231 79.3226 36.8876 79.7581 36.8876H81.0645C81.5 36.8876 81.9355 37.3231 81.9355 37.7585V44.0731C81.9355 44.5085 81.5 44.7263 81.0645 44.7263Z" fill="#F93D14"/>
<path opacity="0.21" d="M45.5726 60.4037C45.1371 60.6214 44.7016 60.8392 44.0484 60.8392C44.4839 60.8392 45.1371 60.6214 45.5726 60.4037Z" fill="#282830"/>
<path d="M92.1693 90.6699V93.936L113.29 92.8473C113.508 91.7586 113.508 90.8876 113.508 89.7989C113.508 89.1457 113.508 88.4924 113.29 87.6215C112.637 81.7424 108.065 77.6053 103.274 77.6053C100.226 77.6053 97.3951 79.1295 95.4355 81.5247C93.4758 83.9199 92.1693 87.186 92.1693 90.6699Z" fill="#282830"/>
<path d="M20.0968 89.3634C20.0968 90.2344 20.0968 91.1054 20.3145 91.9763L41.4355 93.2828V90.4521C41.4355 83.4844 36.6452 77.6053 30.7661 77.6053C27.9355 77.6053 25.3226 78.9118 23.5806 81.0892C21.4032 83.0489 20.0968 86.0973 20.0968 89.3634Z" fill="#282830"/>
<path d="M9.8629 80.6537C9.8629 80.6537 9.20967 76.9521 10.2984 73.9037C10.5161 73.4682 10.5161 73.2505 10.7339 73.0328C10.9516 73.4682 11.3871 74.1215 12.4758 74.5569C14 75.2102 17.0484 74.7747 17.0484 74.7747C17.0484 74.7747 18.1371 74.1215 18.5726 73.9037C19.0081 73.686 21.1855 72.5973 16.1774 72.5973C12.9113 72.5973 12.6935 70.8553 12.0403 69.9844C12.2581 69.5489 12.2581 69.1134 12.4758 68.8957C12.9113 67.3715 14.2177 66.2828 15.5242 66.2828C16.3952 66.2828 17.2661 66.2828 18.1371 66.2828C19.6613 66.2828 21.8387 66.065 24.0161 65.4118L26.8468 66.2828C31.6371 63.4521 40.7822 60.186 44.7016 58.8795C49.4919 57.7908 55.371 56.0489 65.3871 56.4844C67.5645 56.7021 69.9597 57.1376 72.7903 58.0086C78.6693 60.6215 87.5968 66.5005 88.6855 67.3715C89.7742 68.2424 92.8226 69.5489 94.7822 68.8957C95.6532 68.6779 96.5242 68.4602 96.9597 68.4602C98.9193 68.6779 104.363 69.1134 109.153 70.2021C115.032 71.7263 120.694 73.686 123.742 75.6457C126.79 77.6053 128.097 79.3473 127.008 82.3957C125.702 83.4844 123.742 85.6618 123.089 85.6618L124.831 89.1456C124.831 89.1456 125.484 90.2344 126.79 88.9279L127.008 89.3634C127.008 89.3634 126.137 91.5408 123.742 92.8473C121.347 93.936 118.734 94.5892 112.637 95.2424H112.419C113.508 92.6295 113.508 90.4521 112.855 87.8392C111.984 84.3553 108.5 80.436 103.274 80.2182C97.6129 80.0005 92.1693 83.9198 92.1693 90.8876L92.3871 95.2424L41.6532 94.5892V90.6698C41.4355 84.5731 36.8629 80.436 31.4193 80.2182C25.9758 80.0005 21.621 83.9198 20.5322 88.7102C20.3145 90.2344 20.3145 91.5408 20.5322 93.2827H20.3145C20.3145 93.2827 15.9597 92.8473 11.3871 90.6698C11.3871 90.6698 10.0806 88.0569 9.20967 85.6618C8.3387 83.2666 8.77419 81.7424 9.8629 80.6537Z" fill="#F93D14"/>
<path d="M40.3468 85.8795C41 85.8795 41.4355 85.8795 41.4355 85.8795L92.1694 86.5327H92.8226C92.3871 87.8392 91.9516 89.3634 91.9516 90.8876V95.2424L41.2177 94.5892C41.2177 94.5892 41.2177 94.5892 41 94.5892V90.6698C41.4355 88.9279 40.7823 87.4037 40.3468 85.8795Z" fill="#F93D14"/>
<path d="M113.073 89.3634C113.073 88.9279 112.637 87.4037 112.202 86.5328C117.863 86.0973 121.129 85.2263 123.524 83.9199C125.919 82.8311 124.395 83.9198 124.395 83.7021H124.613C124.613 84.1376 127.008 81.5247 126.79 81.9602C126.573 82.1779 126.573 82.1779 126.355 82.3957C125.266 83.7021 123.524 85.2263 123.089 85.2263L125.048 88.9279C125.048 88.9279 125.702 89.7989 127.008 88.4924V89.1457C127.008 89.1457 126.573 90.0166 125.919 90.8876C125.484 91.5408 124.831 91.9763 123.96 92.4118C121.565 93.5005 118.952 94.1537 112.855 94.8069H112.419C113.073 93.2828 113.508 91.9763 113.073 89.3634Z" fill="#F93D14"/>
<path d="M11.1694 90.4521C11.1694 90.4521 9.8629 87.8392 8.99193 85.444C8.12097 83.0489 8.77419 81.5247 9.64516 80.436C9.64516 80.436 9.42742 79.565 9.42742 78.2585C10.2984 80.6537 12.0403 82.1779 14.2177 83.0489C17.4839 84.1376 20.0968 84.3553 20.0968 84.3553H20.3145C20.5323 84.3553 21.8387 84.5731 22.0564 84.5731C21.4032 85.6618 20.5323 86.9682 20.3145 88.9279C20.0968 90.2344 20.0968 91.9763 20.3145 93.065H20.0968C20.3145 93.2827 15.9597 92.8473 11.1694 90.4521Z" fill="#F93D14"/>
<path d="M89.5565 71.0731C89.5565 71.0731 50.3629 70.4198 30.9839 67.1537C30.9839 67.1537 48.621 57.7908 61.6855 58.444C74.75 59.315 79.5403 63.4521 89.5565 71.0731Z" fill="#FFF7F7"/>
<path d="M88.6855 67.1537C87.5968 66.2827 78.6693 60.4037 72.7903 57.7908C83.2419 61.0569 96.3064 68.0246 96.3064 68.0246C96.3064 68.0246 96.5242 68.0246 96.9597 68.0246C96.5242 68.0246 95.871 68.2424 94.7822 68.4601C92.8226 69.3311 89.7742 68.0246 88.6855 67.1537Z" fill="#282830"/>
<path d="M24.0161 64.9763C24.4516 64.7586 25.1048 64.7586 25.5403 64.5409C28.1532 63.6699 39.6935 59.7505 44.7016 58.4441C40.7823 59.7505 31.8548 63.0167 27.0645 65.8473L24.0161 64.9763Z" fill="#282830"/>
<path d="M17.4839 71.7262C22.2742 72.5972 19.0081 73.4682 18.5726 73.6859C18.1371 73.9037 17.0484 74.5569 17.0484 74.5569C17.0484 74.5569 14.2177 74.7746 12.4758 74.5569C11.3871 74.3392 10.7339 74.1214 10.5161 73.6859C10.9516 72.5972 11.8226 70.6375 12.2581 69.5488C12.6935 70.4198 13.7823 71.2908 17.4839 71.7262Z" fill="#FFF7F7"/>
<path d="M102.621 99.5973C107.431 99.5973 111.331 95.7953 111.331 91.1053C111.331 86.4154 107.431 82.6134 102.621 82.6134C97.8107 82.6134 93.9113 86.4154 93.9113 91.1053C93.9113 95.7953 97.8107 99.5973 102.621 99.5973Z" fill="#282830"/>
<path d="M102.621 97.8553C106.349 97.8553 109.371 94.8333 109.371 91.1053C109.371 87.3774 106.349 84.3553 102.621 84.3553C98.893 84.3553 95.871 87.3774 95.871 91.1053C95.871 94.8333 98.893 97.8553 102.621 97.8553Z" fill="#FFF7F7"/>
<path d="M102.621 93.2828C103.824 93.2828 104.798 92.308 104.798 91.1054C104.798 89.9028 103.824 88.928 102.621 88.928C101.418 88.928 100.444 89.9028 100.444 91.1054C100.444 92.308 101.418 93.2828 102.621 93.2828Z" fill="#282830"/>
<path opacity="0.1" d="M111.113 91.1053C111.113 91.9763 110.895 92.6295 110.895 93.2828C109.806 89.5811 106.54 86.9682 102.621 86.9682C98.7016 86.9682 95.2177 89.5811 94.3468 93.2828C94.129 92.6295 94.129 91.7586 94.129 91.1053C94.129 86.315 98.0484 82.6134 102.839 82.6134C107.194 82.6134 111.113 86.315 111.113 91.1053Z" fill="#282830"/>
<path d="M30.7661 99.5973C35.5763 99.5973 39.4758 95.7953 39.4758 91.1053C39.4758 86.4154 35.5763 82.6134 30.7661 82.6134C25.9559 82.6134 22.0564 86.4154 22.0564 91.1053C22.0564 95.7953 25.9559 99.5973 30.7661 99.5973Z" fill="#282830"/>
<path d="M30.7661 97.8553C34.494 97.8553 37.5161 94.8333 37.5161 91.1053C37.5161 87.3774 34.494 84.3553 30.7661 84.3553C27.0382 84.3553 24.0161 87.3774 24.0161 91.1053C24.0161 94.8333 27.0382 97.8553 30.7661 97.8553Z" fill="#FFF7F7"/>
<path d="M30.7661 93.2828C31.9687 93.2828 32.9435 92.308 32.9435 91.1054C32.9435 89.9028 31.9687 88.928 30.7661 88.928C29.5636 88.928 28.5887 89.9028 28.5887 91.1054C28.5887 92.308 29.5636 93.2828 30.7661 93.2828Z" fill="#282830"/>
<path opacity="0.1" d="M39.2581 91.1053C39.2581 91.9763 39.0403 92.6295 39.0403 93.2828C37.9516 89.5811 34.6855 86.9682 30.7661 86.9682C26.8468 86.9682 23.3629 89.5811 22.4919 93.2828C22.2742 92.6295 22.2742 91.7586 22.2742 91.1053C22.2742 86.315 26.1935 82.6134 30.9839 82.6134C35.5564 82.6134 39.2581 86.315 39.2581 91.1053Z" fill="#282830"/>
<path d="M116.121 73.9037C116.121 73.9037 113.29 73.0327 114.161 74.9924C115.032 76.9521 118.734 80.6537 120.911 80.6537C123.524 80.6537 124.831 80.436 124.395 79.3472C123.742 77.3876 119.605 74.7747 116.121 73.9037Z" fill="#FFF7F7"/>
<path d="M126.79 82.1779V89.3633C126.79 89.3633 126.79 89.3633 126.79 89.5811L125.484 90.452C125.266 90.6698 124.831 90.6698 124.613 90.2343L122 86.3149C121.565 85.8795 121.782 85.0085 122.435 84.7908L126.79 82.1779Z" fill="#F93D14"/>
<path d="M85.8548 66.2827H84.3306C83.8952 66.2827 83.2419 66.5005 83.2419 67.1537C83.2419 67.5892 83.2419 69.1134 83.2419 69.1134C83.2419 69.7666 83.4597 70.2021 83.8952 70.2021L86.7258 70.4198L87.1613 71.7263L88.6855 71.944C88.6855 71.944 88.4677 68.8956 86.7258 66.9359C86.7258 66.5005 86.2903 66.2827 85.8548 66.2827Z" fill="#282830"/>
<path opacity="0.1" d="M85.8548 66.2827H84.3306C83.8952 66.2827 83.2419 66.5005 83.2419 67.1537C83.2419 67.5892 83.2419 69.1134 83.2419 69.1134C83.2419 69.7666 83.4597 70.2021 83.8952 70.2021L86.7258 70.4198L87.1613 71.7263H88.6855C88.6855 71.7263 88.4677 68.6779 86.9435 66.9359C86.7258 66.5005 86.2903 66.2827 85.8548 66.2827Z" fill="#282830"/>
<path opacity="0.21" d="M90.8629 42.5488H84.3307V40.1537C84.3307 39.7182 83.8952 39.2827 83.4597 39.2827H82.1532C81.7177 39.2827 81.2823 39.7182 81.2823 40.1537V42.5488H54.0645V40.1537C54.0645 39.7182 53.629 39.2827 53.1936 39.2827H51.8871C51.4516 39.2827 51.0161 39.7182 51.0161 40.1537V42.5488H44.9194C42.9597 42.5488 41.4355 44.073 41.4355 46.0327V59.5327V95.4601C41.4355 97.4198 42.9597 98.944 44.9194 98.944H90.6452C92.6048 98.944 94.129 97.4198 94.129 95.4601V59.7505V46.2505C94.3468 44.2908 92.8226 42.5488 90.8629 42.5488Z" fill="#282830"/>
<path d="M39.2581 93.065C39.2581 95.0247 40.7823 96.5489 42.7419 96.5489H88.4677C90.4274 96.5489 91.9516 95.0247 91.9516 93.065V57.1376H39.2581V93.065Z" fill="#FFF7F7"/>
<path d="M88.4677 40.1537H42.7419C40.7823 40.1537 39.2581 41.6779 39.2581 43.6376V57.1376H91.9516V43.6376C91.9516 41.6779 90.2097 40.1537 88.4677 40.1537Z" fill="#282830"/>
<path d="M62.5565 60.8392H56.0242V67.3715H62.5565V60.8392Z" fill="#282830"/>
<path d="M74.5323 60.8392H68V67.3715H74.5323V60.8392Z" fill="#282830"/>
<path d="M74.5323 84.5731H68V91.1054H74.5323V84.5731Z" fill="#282830"/>
<path d="M86.5081 60.8392H79.9758V67.3715H86.5081V60.8392Z" fill="#282830"/>
<path d="M86.5081 84.3553H79.9758V90.8876H86.5081V84.3553Z" fill="#282830"/>
<path d="M86.5081 73.0328H79.9758V79.5651H86.5081V73.0328Z" fill="#282830"/>
<path d="M50.5806 73.0328H44.0484V79.5651H50.5806V73.0328Z" fill="#282830"/>
<path d="M62.5565 73.0328H56.0242V79.5651H62.5565V73.0328Z" fill="#282830"/>
<path d="M74.5323 73.0328H68V79.5651H74.5323V73.0328Z" fill="#282830"/>
<path d="M50.5806 84.7909H44.0484V91.3232H50.5806V84.7909Z" fill="#282830"/>
<path d="M62.5565 84.7909H56.0242V91.3232H62.5565V84.7909Z" fill="#282830"/>
<path d="M50.7984 44.7263H49.4919C49.0565 44.7263 48.621 44.2908 48.621 43.8553V37.7585C48.621 37.3231 49.0565 36.8876 49.4919 36.8876H50.7984C51.2339 36.8876 51.6694 37.3231 51.6694 37.7585V44.0731C51.6694 44.2908 51.2339 44.7263 50.7984 44.7263Z" fill="#F93D14"/>
<path d="M53.4113 49.5166V47.5569C53.4113 47.1214 53.8468 46.6859 54.2823 46.6859H76.9274C77.3629 46.6859 77.7984 47.1214 77.7984 47.5569V49.5166C77.7984 49.952 77.3629 50.3875 76.9274 50.3875H54.2823C53.8468 50.3875 53.4113 49.952 53.4113 49.5166Z" fill="#FFF7F7"/>
<path d="M81.0645 44.7263H79.7581C79.3226 44.7263 78.8871 44.2908 78.8871 43.8553V37.7585C78.8871 37.3231 79.3226 36.8876 79.7581 36.8876H81.0645C81.5 36.8876 81.9355 37.3231 81.9355 37.7585V44.0731C81.9355 44.2908 81.5 44.7263 81.0645 44.7263Z" fill="#F93D14"/>
<path d="M38.8391 137.511C38.8391 138.217 38.6725 138.884 38.3391 139.511C38.0058 140.137 37.4725 140.651 36.7391 141.051C36.0058 141.437 35.0658 141.631 33.9191 141.631H31.3991V147.271H29.1191V133.371H33.9191C34.9858 133.371 35.8858 133.557 36.6191 133.931C37.3658 134.291 37.9191 134.784 38.2791 135.411C38.6525 136.037 38.8391 136.737 38.8391 137.511ZM33.9191 139.771C34.7858 139.771 35.4325 139.577 35.8591 139.191C36.2858 138.791 36.4991 138.231 36.4991 137.511C36.4991 135.991 35.6391 135.231 33.9191 135.231H31.3991V139.771H33.9191ZM51.1137 141.491C51.1137 141.904 51.087 142.277 51.0337 142.611H42.6137C42.6803 143.491 43.007 144.197 43.5937 144.731C44.1803 145.264 44.9003 145.531 45.7537 145.531C46.9803 145.531 47.847 145.017 48.3537 143.991H50.8137C50.4803 145.004 49.8737 145.837 48.9937 146.491C48.127 147.131 47.047 147.451 45.7537 147.451C44.7003 147.451 43.7537 147.217 42.9137 146.751C42.087 146.271 41.4337 145.604 40.9537 144.751C40.487 143.884 40.2537 142.884 40.2537 141.751C40.2537 140.617 40.4803 139.624 40.9337 138.771C41.4003 137.904 42.047 137.237 42.8737 136.771C43.7137 136.304 44.6737 136.071 45.7537 136.071C46.7937 136.071 47.7203 136.297 48.5337 136.751C49.347 137.204 49.9803 137.844 50.4337 138.671C50.887 139.484 51.1137 140.424 51.1137 141.491ZM48.7337 140.771C48.7203 139.931 48.4203 139.257 47.8337 138.751C47.247 138.244 46.5203 137.991 45.6537 137.991C44.867 137.991 44.1937 138.244 43.6337 138.751C43.0737 139.244 42.7403 139.917 42.6337 140.771H48.7337ZM55.6374 137.851C55.9708 137.291 56.4108 136.857 56.9574 136.551C57.5174 136.231 58.1774 136.071 58.9374 136.071V138.431H58.3574C57.4641 138.431 56.7841 138.657 56.3174 139.111C55.8641 139.564 55.6374 140.351 55.6374 141.471V147.271H53.3574V136.251H55.6374V137.851ZM62.1932 134.791C61.7799 134.791 61.4332 134.651 61.1532 134.371C60.8732 134.091 60.7332 133.744 60.7332 133.331C60.7332 132.917 60.8732 132.571 61.1532 132.291C61.4332 132.011 61.7799 131.871 62.1932 131.871C62.5932 131.871 62.9332 132.011 63.2132 132.291C63.4932 132.571 63.6332 132.917 63.6332 133.331C63.6332 133.744 63.4932 134.091 63.2132 134.371C62.9332 134.651 62.5932 134.791 62.1932 134.791ZM63.3132 136.251V147.271H61.0332V136.251H63.3132ZM71.0866 147.451C70.0466 147.451 69.1066 147.217 68.2666 146.751C67.4266 146.271 66.7666 145.604 66.2866 144.751C65.8066 143.884 65.5666 142.884 65.5666 141.751C65.5666 140.631 65.8133 139.637 66.3066 138.771C66.8 137.904 67.4733 137.237 68.3266 136.771C69.18 136.304 70.1333 136.071 71.1866 136.071C72.24 136.071 73.1933 136.304 74.0466 136.771C74.9 137.237 75.5733 137.904 76.0666 138.771C76.56 139.637 76.8066 140.631 76.8066 141.751C76.8066 142.871 76.5533 143.864 76.0466 144.731C75.54 145.597 74.8466 146.271 73.9666 146.751C73.1 147.217 72.14 147.451 71.0866 147.451ZM71.0866 145.471C71.6733 145.471 72.22 145.331 72.7266 145.051C73.2466 144.771 73.6666 144.351 73.9866 143.791C74.3066 143.231 74.4666 142.551 74.4666 141.751C74.4666 140.951 74.3133 140.277 74.0066 139.731C73.7 139.171 73.2933 138.751 72.7866 138.471C72.28 138.191 71.7333 138.051 71.1466 138.051C70.56 138.051 70.0133 138.191 69.5066 138.471C69.0133 138.751 68.62 139.171 68.3266 139.731C68.0333 140.277 67.8866 140.951 67.8866 141.751C67.8866 142.937 68.1866 143.857 68.7866 144.511C69.4 145.151 70.1666 145.471 71.0866 145.471ZM78.3005 141.711C78.3005 140.604 78.5272 139.624 78.9805 138.771C79.4472 137.917 80.0739 137.257 80.8605 136.791C81.6605 136.311 82.5472 136.071 83.5205 136.071C84.2405 136.071 84.9472 136.231 85.6405 136.551C86.3472 136.857 86.9072 137.271 87.3205 137.791V132.471H89.6205V147.271H87.3205V145.611C86.9472 146.144 86.4272 146.584 85.7605 146.931C85.1072 147.277 84.3539 147.451 83.5005 147.451C82.5405 147.451 81.6605 147.211 80.8605 146.731C80.0739 146.237 79.4472 145.557 78.9805 144.691C78.5272 143.811 78.3005 142.817 78.3005 141.711ZM87.3205 141.751C87.3205 140.991 87.1605 140.331 86.8405 139.771C86.5339 139.211 86.1272 138.784 85.6205 138.491C85.1139 138.197 84.5672 138.051 83.9805 138.051C83.3939 138.051 82.8472 138.197 82.3405 138.491C81.8339 138.771 81.4205 139.191 81.1005 139.751C80.7939 140.297 80.6405 140.951 80.6405 141.711C80.6405 142.471 80.7939 143.137 81.1005 143.711C81.4205 144.284 81.8339 144.724 82.3405 145.031C82.8605 145.324 83.4072 145.471 83.9805 145.471C84.5672 145.471 85.1139 145.324 85.6205 145.031C86.1272 144.737 86.5339 144.311 86.8405 143.751C87.1605 143.177 87.3205 142.511 87.3205 141.751ZM93.7752 134.791C93.3619 134.791 93.0152 134.651 92.7352 134.371C92.4552 134.091 92.3152 133.744 92.3152 133.331C92.3152 132.917 92.4552 132.571 92.7352 132.291C93.0152 132.011 93.3619 131.871 93.7752 131.871C94.1752 131.871 94.5152 132.011 94.7952 132.291C95.0752 132.571 95.2152 132.917 95.2152 133.331C95.2152 133.744 95.0752 134.091 94.7952 134.371C94.5152 134.651 94.1752 134.791 93.7752 134.791ZM94.8952 136.251V147.271H92.6152V136.251H94.8952ZM97.1287 141.751C97.1287 140.617 97.3553 139.624 97.8087 138.771C98.2753 137.904 98.9153 137.237 99.7287 136.771C100.542 136.304 101.475 136.071 102.529 136.071C103.862 136.071 104.962 136.391 105.829 137.031C106.709 137.657 107.302 138.557 107.609 139.731H105.149C104.949 139.184 104.629 138.757 104.189 138.451C103.749 138.144 103.195 137.991 102.529 137.991C101.595 137.991 100.849 138.324 100.289 138.991C99.742 139.644 99.4687 140.564 99.4687 141.751C99.4687 142.937 99.742 143.864 100.289 144.531C100.849 145.197 101.595 145.531 102.529 145.531C103.849 145.531 104.722 144.951 105.149 143.791H107.609C107.289 144.911 106.689 145.804 105.809 146.471C104.929 147.124 103.835 147.451 102.529 147.451C101.475 147.451 100.542 147.217 99.7287 146.751C98.9153 146.271 98.2753 145.604 97.8087 144.751C97.3553 143.884 97.1287 142.884 97.1287 141.751ZM32.1269 177.411C31.1935 177.411 30.3535 177.251 29.6069 176.931C28.8602 176.597 28.2735 176.131 27.8469 175.531C27.4202 174.931 27.2069 174.231 27.2069 173.431H29.6469C29.7002 174.031 29.9335 174.524 30.3469 174.911C30.7735 175.297 31.3669 175.491 32.1269 175.491C32.9135 175.491 33.5269 175.304 33.9669 174.931C34.4069 174.544 34.6269 174.051 34.6269 173.451C34.6269 172.984 34.4869 172.604 34.2069 172.311C33.9402 172.017 33.6002 171.791 33.1869 171.631C32.7869 171.471 32.2269 171.297 31.5069 171.111C30.6002 170.871 29.8602 170.631 29.2869 170.391C28.7269 170.137 28.2469 169.751 27.8469 169.231C27.4469 168.711 27.2469 168.017 27.2469 167.151C27.2469 166.351 27.4469 165.651 27.8469 165.051C28.2469 164.451 28.8069 163.991 29.5269 163.671C30.2469 163.351 31.0802 163.191 32.0269 163.191C33.3735 163.191 34.4735 163.531 35.3269 164.211C36.1935 164.877 36.6735 165.797 36.7669 166.971H34.2469C34.2069 166.464 33.9669 166.031 33.5269 165.671C33.0869 165.311 32.5069 165.131 31.7869 165.131C31.1335 165.131 30.6002 165.297 30.1869 165.631C29.7735 165.964 29.5669 166.444 29.5669 167.071C29.5669 167.497 29.6935 167.851 29.9469 168.131C30.2135 168.397 30.5469 168.611 30.9469 168.771C31.3469 168.931 31.8935 169.104 32.5869 169.291C33.5069 169.544 34.2535 169.797 34.8269 170.051C35.4135 170.304 35.9069 170.697 36.3069 171.231C36.7202 171.751 36.9269 172.451 36.9269 173.331C36.9269 174.037 36.7335 174.704 36.3469 175.331C35.9735 175.957 35.4202 176.464 34.6869 176.851C33.9669 177.224 33.1135 177.411 32.1269 177.411ZM49.7172 171.491C49.7172 171.904 49.6905 172.277 49.6372 172.611H41.2172C41.2839 173.491 41.6105 174.197 42.1972 174.731C42.7839 175.264 43.5039 175.531 44.3572 175.531C45.5839 175.531 46.4505 175.017 46.9572 173.991H49.4172C49.0839 175.004 48.4772 175.837 47.5972 176.491C46.7305 177.131 45.6505 177.451 44.3572 177.451C43.3039 177.451 42.3572 177.217 41.5172 176.751C40.6905 176.271 40.0372 175.604 39.5572 174.751C39.0905 173.884 38.8572 172.884 38.8572 171.751C38.8572 170.617 39.0839 169.624 39.5372 168.771C40.0039 167.904 40.6505 167.237 41.4772 166.771C42.3172 166.304 43.2772 166.071 44.3572 166.071C45.3972 166.071 46.3239 166.297 47.1372 166.751C47.9505 167.204 48.5839 167.844 49.0372 168.671C49.4905 169.484 49.7172 170.424 49.7172 171.491ZM47.3372 170.771C47.3239 169.931 47.0239 169.257 46.4372 168.751C45.8505 168.244 45.1239 167.991 44.2572 167.991C43.4705 167.991 42.7972 168.244 42.2372 168.751C41.6772 169.244 41.3439 169.917 41.2372 170.771H47.3372ZM54.2409 167.851C54.5743 167.291 55.0143 166.857 55.5609 166.551C56.1209 166.231 56.7809 166.071 57.5409 166.071V168.431H56.9609C56.0676 168.431 55.3876 168.657 54.9209 169.111C54.4676 169.564 54.2409 170.351 54.2409 171.471V177.271H51.9609V166.251H54.2409V167.851ZM63.8967 175.231L67.0167 166.251H69.4367L65.2367 177.271H62.5167L58.3367 166.251H60.7767L63.8967 175.231ZM72.3202 164.791C71.9068 164.791 71.5602 164.651 71.2802 164.371C71.0002 164.091 70.8602 163.744 70.8602 163.331C70.8602 162.917 71.0002 162.571 71.2802 162.291C71.5602 162.011 71.9068 161.871 72.3202 161.871C72.7202 161.871 73.0602 162.011 73.3402 162.291C73.6202 162.571 73.7602 162.917 73.7602 163.331C73.7602 163.744 73.6202 164.091 73.3402 164.371C73.0602 164.651 72.7202 164.791 72.3202 164.791ZM73.4402 166.251V177.271H71.1602V166.251H73.4402ZM75.6736 171.751C75.6736 170.617 75.9003 169.624 76.3536 168.771C76.8203 167.904 77.4603 167.237 78.2736 166.771C79.0869 166.304 80.0203 166.071 81.0736 166.071C82.4069 166.071 83.5069 166.391 84.3736 167.031C85.2536 167.657 85.8469 168.557 86.1536 169.731H83.6936C83.4936 169.184 83.1736 168.757 82.7336 168.451C82.2936 168.144 81.7403 167.991 81.0736 167.991C80.1403 167.991 79.3936 168.324 78.8336 168.991C78.2869 169.644 78.0136 170.564 78.0136 171.751C78.0136 172.937 78.2869 173.864 78.8336 174.531C79.3936 175.197 80.1403 175.531 81.0736 175.531C82.3936 175.531 83.2669 174.951 83.6936 173.791H86.1536C85.8336 174.911 85.2336 175.804 84.3536 176.471C83.4736 177.124 82.3803 177.451 81.0736 177.451C80.0203 177.451 79.0869 177.217 78.2736 176.751C77.4603 176.271 76.8203 175.604 76.3536 174.751C75.9003 173.884 75.6736 172.884 75.6736 171.751ZM98.5258 171.491C98.5258 171.904 98.4991 172.277 98.4458 172.611H90.0258C90.0924 173.491 90.4191 174.197 91.0058 174.731C91.5924 175.264 92.3124 175.531 93.1658 175.531C94.3924 175.531 95.2591 175.017 95.7658 173.991H98.2258C97.8924 175.004 97.2858 175.837 96.4058 176.491C95.5391 177.131 94.4591 177.451 93.1658 177.451C92.1124 177.451 91.1658 177.217 90.3258 176.751C89.4991 176.271 88.8458 175.604 88.3658 174.751C87.8991 173.884 87.6658 172.884 87.6658 171.751C87.6658 170.617 87.8924 169.624 88.3458 168.771C88.8124 167.904 89.4591 167.237 90.2858 166.771C91.1258 166.304 92.0858 166.071 93.1658 166.071C94.2058 166.071 95.1324 166.297 95.9458 166.751C96.7591 167.204 97.3924 167.844 97.8458 168.671C98.2991 169.484 98.5258 170.424 98.5258 171.491ZM96.1458 170.771C96.1324 169.931 95.8324 169.257 95.2458 168.751C94.6591 168.244 93.9324 167.991 93.0658 167.991C92.2791 167.991 91.6058 168.244 91.0458 168.751C90.4858 169.244 90.1524 169.917 90.0458 170.771H96.1458ZM104.77 177.451C103.903 177.451 103.123 177.297 102.43 176.991C101.75 176.671 101.21 176.244 100.81 175.711C100.41 175.164 100.196 174.557 100.17 173.891H102.53C102.57 174.357 102.79 174.751 103.19 175.071C103.603 175.377 104.116 175.531 104.73 175.531C105.37 175.531 105.863 175.411 106.21 175.171C106.57 174.917 106.75 174.597 106.75 174.211C106.75 173.797 106.55 173.491 106.15 173.291C105.763 173.091 105.143 172.871 104.29 172.631C103.463 172.404 102.79 172.184 102.27 171.971C101.75 171.757 101.296 171.431 100.91 170.991C100.536 170.551 100.35 169.971 100.35 169.251C100.35 168.664 100.523 168.131 100.87 167.651C101.216 167.157 101.71 166.771 102.35 166.491C103.003 166.211 103.75 166.071 104.59 166.071C105.843 166.071 106.85 166.391 107.61 167.031C108.383 167.657 108.796 168.517 108.85 169.611H106.57C106.53 169.117 106.33 168.724 105.97 168.431C105.61 168.137 105.123 167.991 104.51 167.991C103.91 167.991 103.45 168.104 103.13 168.331C102.81 168.557 102.65 168.857 102.65 169.231C102.65 169.524 102.756 169.771 102.97 169.971C103.183 170.171 103.443 170.331 103.75 170.451C104.056 170.557 104.51 170.697 105.11 170.871C105.91 171.084 106.563 171.304 107.07 171.531C107.59 171.744 108.036 172.064 108.41 172.491C108.783 172.917 108.976 173.484 108.99 174.191C108.99 174.817 108.816 175.377 108.47 175.871C108.123 176.364 107.63 176.751 106.99 177.031C106.363 177.311 105.623 177.451 104.77 177.451Z" fill="#282830"/>
</svg>
