<svg width="262" height="262" viewBox="0 0 262 262" fill="none" xmlns="http://www.w3.org/2000/svg">
<g filter="url(#filter0_d_329_793)">
<rect x="16" y="16" width="230" height="230" rx="20" fill="white"/>
</g>
<path d="M95.2623 201.092C96.0089 201.226 96.6423 201.619 97.1623 202.272C97.6823 202.926 97.9423 203.666 97.9423 204.492C97.9423 205.199 97.7556 205.839 97.3823 206.412C97.0223 206.972 96.4956 207.419 95.8023 207.752C95.1089 208.072 94.3023 208.232 93.3823 208.232H87.8223V194.332H93.1223C94.0689 194.332 94.8823 194.492 95.5623 194.812C96.2423 195.132 96.7556 195.566 97.1023 196.112C97.4489 196.646 97.6223 197.246 97.6223 197.912C97.6223 198.712 97.4089 199.379 96.9823 199.912C96.5556 200.446 95.9823 200.839 95.2623 201.092ZM90.1023 200.172H92.9223C93.6689 200.172 94.2489 200.006 94.6623 199.672C95.0889 199.326 95.3023 198.832 95.3023 198.192C95.3023 197.566 95.0889 197.079 94.6623 196.732C94.2489 196.372 93.6689 196.192 92.9223 196.192H90.1023V200.172ZM93.1823 206.372C93.9556 206.372 94.5623 206.186 95.0023 205.812C95.4423 205.439 95.6623 204.919 95.6623 204.252C95.6623 203.572 95.4289 203.032 94.9623 202.632C94.4956 202.232 93.8756 202.032 93.1023 202.032H90.1023V206.372H93.1823ZM99.6599 202.672C99.6599 201.566 99.8866 200.586 100.34 199.732C100.807 198.879 101.433 198.219 102.22 197.752C103.02 197.272 103.9 197.032 104.86 197.032C105.727 197.032 106.48 197.206 107.12 197.552C107.773 197.886 108.293 198.306 108.68 198.812V197.212H110.98V208.232H108.68V206.592C108.293 207.112 107.767 207.546 107.1 207.892C106.433 208.239 105.673 208.412 104.82 208.412C103.873 208.412 103.007 208.172 102.22 207.692C101.433 207.199 100.807 206.519 100.34 205.652C99.8866 204.772 99.6599 203.779 99.6599 202.672ZM108.68 202.712C108.68 201.952 108.52 201.292 108.2 200.732C107.893 200.172 107.487 199.746 106.98 199.452C106.473 199.159 105.927 199.012 105.34 199.012C104.753 199.012 104.207 199.159 103.7 199.452C103.193 199.732 102.78 200.152 102.46 200.712C102.153 201.259 102 201.912 102 202.672C102 203.432 102.153 204.099 102.46 204.672C102.78 205.246 103.193 205.686 103.7 205.992C104.22 206.286 104.767 206.432 105.34 206.432C105.927 206.432 106.473 206.286 106.98 205.992C107.487 205.699 107.893 205.272 108.2 204.712C108.52 204.139 108.68 203.472 108.68 202.712ZM116.635 199.072V205.172C116.635 205.586 116.728 205.886 116.915 206.072C117.115 206.246 117.448 206.332 117.915 206.332H119.315V208.232H117.515C116.488 208.232 115.701 207.992 115.155 207.512C114.608 207.032 114.335 206.252 114.335 205.172V199.072H113.035V197.212H114.335V194.472H116.635V197.212H119.315V199.072H116.635ZM124.076 199.072V205.172C124.076 205.586 124.169 205.886 124.356 206.072C124.556 206.246 124.889 206.332 125.356 206.332H126.756V208.232H124.956C123.929 208.232 123.143 207.992 122.596 207.512C122.049 207.032 121.776 206.252 121.776 205.172V199.072H120.476V197.212H121.776V194.472H124.076V197.212H126.756V199.072H124.076ZM138.957 202.452C138.957 202.866 138.931 203.239 138.877 203.572H130.457C130.524 204.452 130.851 205.159 131.437 205.692C132.024 206.226 132.744 206.492 133.597 206.492C134.824 206.492 135.691 205.979 136.197 204.952H138.657C138.324 205.966 137.717 206.799 136.837 207.452C135.971 208.092 134.891 208.412 133.597 208.412C132.544 208.412 131.597 208.179 130.757 207.712C129.931 207.232 129.277 206.566 128.797 205.712C128.331 204.846 128.097 203.846 128.097 202.712C128.097 201.579 128.324 200.586 128.777 199.732C129.244 198.866 129.891 198.199 130.717 197.732C131.557 197.266 132.517 197.032 133.597 197.032C134.637 197.032 135.564 197.259 136.377 197.712C137.191 198.166 137.824 198.806 138.277 199.632C138.731 200.446 138.957 201.386 138.957 202.452ZM136.577 201.732C136.564 200.892 136.264 200.219 135.677 199.712C135.091 199.206 134.364 198.952 133.497 198.952C132.711 198.952 132.037 199.206 131.477 199.712C130.917 200.206 130.584 200.879 130.477 201.732H136.577ZM143.481 198.812C143.815 198.252 144.255 197.819 144.801 197.512C145.361 197.192 146.021 197.032 146.781 197.032V199.392H146.201C145.308 199.392 144.628 199.619 144.161 200.072C143.708 200.526 143.481 201.312 143.481 202.432V208.232H141.201V197.212H143.481V198.812ZM150.037 195.752C149.624 195.752 149.277 195.612 148.997 195.332C148.717 195.052 148.577 194.706 148.577 194.292C148.577 193.879 148.717 193.532 148.997 193.252C149.277 192.972 149.624 192.832 150.037 192.832C150.437 192.832 150.777 192.972 151.057 193.252C151.337 193.532 151.477 193.879 151.477 194.292C151.477 194.706 151.337 195.052 151.057 195.332C150.777 195.612 150.437 195.752 150.037 195.752ZM151.157 197.212V208.232H148.877V197.212H151.157ZM164.25 202.452C164.25 202.866 164.224 203.239 164.17 203.572H155.75C155.817 204.452 156.144 205.159 156.73 205.692C157.317 206.226 158.037 206.492 158.89 206.492C160.117 206.492 160.984 205.979 161.49 204.952H163.95C163.617 205.966 163.01 206.799 162.13 207.452C161.264 208.092 160.184 208.412 158.89 208.412C157.837 208.412 156.89 208.179 156.05 207.712C155.224 207.232 154.57 206.566 154.09 205.712C153.624 204.846 153.39 203.846 153.39 202.712C153.39 201.579 153.617 200.586 154.07 199.732C154.537 198.866 155.184 198.199 156.01 197.732C156.85 197.266 157.81 197.032 158.89 197.032C159.93 197.032 160.857 197.259 161.67 197.712C162.484 198.166 163.117 198.806 163.57 199.632C164.024 200.446 164.25 201.386 164.25 202.452ZM161.87 201.732C161.857 200.892 161.557 200.219 160.97 199.712C160.384 199.206 159.657 198.952 158.79 198.952C158.004 198.952 157.33 199.206 156.77 199.712C156.21 200.206 155.877 200.879 155.77 201.732H161.87ZM170.494 208.412C169.627 208.412 168.847 208.259 168.154 207.952C167.474 207.632 166.934 207.206 166.534 206.672C166.134 206.126 165.921 205.519 165.894 204.852H168.254C168.294 205.319 168.514 205.712 168.914 206.032C169.327 206.339 169.841 206.492 170.454 206.492C171.094 206.492 171.587 206.372 171.934 206.132C172.294 205.879 172.474 205.559 172.474 205.172C172.474 204.759 172.274 204.452 171.874 204.252C171.487 204.052 170.867 203.832 170.014 203.592C169.187 203.366 168.514 203.146 167.994 202.932C167.474 202.719 167.021 202.392 166.634 201.952C166.261 201.512 166.074 200.932 166.074 200.212C166.074 199.626 166.247 199.092 166.594 198.612C166.941 198.119 167.434 197.732 168.074 197.452C168.727 197.172 169.474 197.032 170.314 197.032C171.567 197.032 172.574 197.352 173.334 197.992C174.107 198.619 174.521 199.479 174.574 200.572H172.294C172.254 200.079 172.054 199.686 171.694 199.392C171.334 199.099 170.847 198.952 170.234 198.952C169.634 198.952 169.174 199.066 168.854 199.292C168.534 199.519 168.374 199.819 168.374 200.192C168.374 200.486 168.481 200.732 168.694 200.932C168.907 201.132 169.167 201.292 169.474 201.412C169.781 201.519 170.234 201.659 170.834 201.832C171.634 202.046 172.287 202.266 172.794 202.492C173.314 202.706 173.761 203.026 174.134 203.452C174.507 203.879 174.701 204.446 174.714 205.152C174.714 205.779 174.541 206.339 174.194 206.832C173.847 207.326 173.354 207.712 172.714 207.992C172.087 208.272 171.347 208.412 170.494 208.412Z" fill="#282830"/>
<path d="M168.887 95.8484L170.411 95.6306C170.411 95.6306 170.194 93.0177 171.065 92.3645C171.935 92.3645 174.984 92.8 175.419 93.2355C175.855 93.671 176.508 94.7597 176.29 95.6306C176.073 96.2839 173.242 96.7193 171.718 96.7193C170.194 96.7193 169.323 96.9371 169.323 96.9371" fill="#AD202B"/>
<path opacity="0.1" d="M168.887 95.8484L170.411 95.6306C170.411 95.6306 170.194 93.0177 171.065 92.3645C171.935 92.3645 174.984 92.8 175.419 93.2355C175.855 93.671 176.508 94.7597 176.29 95.6306C176.073 96.2839 173.242 96.7193 171.718 96.7193C170.194 96.7193 169.323 96.9371 169.323 96.9371" fill="#AD202B"/>
<path d="M143.411 129.163L158.653 128.945C158.653 128.945 160.613 128.727 161.702 129.163C162.79 129.598 175.419 127.856 175.419 127.856L175.637 128.074C175.637 128.074 176.726 128.51 177.161 126.985C179.339 111.744 176.944 103.905 176.726 103.034C176.726 102.381 173.677 100.203 172.806 99.7677C171.935 99.3322 169.976 97.5903 169.976 97.5903C169.976 97.5903 169.54 96.9371 168.887 95.1951C168.234 93.6709 164.532 83.8725 161.048 83.0016C157.782 82.1306 148.637 81.2596 144.5 81.2596C143.847 81.2596 143.194 81.2596 142.54 81.2596C138.403 81.2596 129.04 81.9129 125.774 83.0016C122.29 84.0903 118.371 93.6709 117.935 95.1951C117.282 96.7193 116.847 97.5903 116.847 97.5903C116.847 97.5903 114.887 99.3322 114.016 99.7677C113.145 100.203 109.879 102.381 109.879 103.252C109.661 103.905 107.266 111.961 109.444 127.203C109.879 128.727 110.968 128.292 110.968 128.292L111.185 128.074C111.185 128.074 124.032 129.598 124.903 129.381C125.992 128.945 127.952 129.163 127.952 129.163H143.411Z" fill="#F93D14"/>
<path d="M175.419 121.542C175.419 121.542 162.573 122.848 161.484 123.066C159.96 123.284 158.653 123.502 158.653 123.502L143.411 123.719L128.169 123.502C128.169 123.502 120.766 122.195 119.677 122.413C118.589 122.848 111.839 121.76 111.839 121.76C111.839 121.76 108.79 115.01 108.79 112.397C108.573 116.098 108.79 121.106 109.661 127.203C110.315 127.639 111.403 128.074 111.403 128.074C111.403 128.074 124.25 129.598 125.121 129.381C126.21 128.945 128.169 129.163 128.169 129.163L143.411 129.381L158.653 129.163C158.653 129.163 160.613 128.945 161.702 129.381C162.79 129.816 175.419 128.074 175.419 128.074C175.419 128.074 176.073 128.074 177.161 127.203C178.032 121.106 178.25 116.098 178.032 112.397C178.032 115.01 175.419 121.542 175.419 121.542Z" fill="#AD202B"/>
<path d="M111.621 103.905C111.621 103.905 110.097 108.477 112.492 109.784C114.452 110.873 115.105 110.873 115.105 110.873L117.064 110.219C117.064 110.219 121.419 111.526 123.161 111.308C124.903 111.09 126.427 110.002 126.427 110.002C126.427 110.002 123.814 106.082 111.621 103.905Z" fill="#FFF7F7"/>
<path d="M109.879 127.421C109.879 127.421 110.097 132.429 111.839 132.429C113.581 132.429 117.935 132.647 118.371 132.429C118.806 132.211 119.895 131.34 119.895 128.945" fill="#1C1C1A"/>
<path d="M175.419 103.905C175.419 103.905 176.944 108.477 174.548 109.784C172.589 110.873 171.935 110.873 171.935 110.873L170.194 110.219C170.194 110.219 165.839 111.526 164.097 111.308C162.355 111.09 160.831 110.002 160.831 110.002C160.831 110.002 163.226 106.082 175.419 103.905Z" fill="#FFF7F7"/>
<path d="M177.161 127.421C177.161 127.421 176.944 132.429 175.202 132.429C173.46 132.429 169.105 132.647 168.669 132.429C168.234 132.211 167.145 131.34 167.145 128.945" fill="#1C1C1A"/>
<path d="M124.685 85.1791H162.355C162.355 85.1791 161.702 84.3081 160.831 83.0016C157.347 82.1307 148.637 81.2597 144.5 81.4774C143.847 81.4774 143.194 81.4774 142.54 81.4774C138.403 81.4774 129.694 82.1307 126.21 83.0016C125.774 83.6549 125.121 84.3081 124.685 85.1791Z" fill="#1C1C1A"/>
<path d="M168.234 97.3725C167.798 94.9774 164.097 86.7032 161.919 84.9613C160.177 84.7435 155.169 84.308 150.815 84.0903C146.024 83.6548 141.016 83.6548 136.226 84.0903C131.871 84.308 127.081 84.7435 125.339 84.9613C123.161 86.7032 119.677 95.4129 119.242 97.808C120.766 97.808 143.629 97.5903 143.629 97.5903" fill="#FFF7F7"/>
<path d="M156.04 113.921H132.089C131.871 113.921 131.435 113.703 131.435 113.268V113.05C131.435 112.832 131.653 112.615 132.089 112.615H156.04C156.258 112.615 156.476 112.832 156.476 113.05V113.268C156.694 113.485 156.476 113.921 156.04 113.921Z" fill="#1C1C1A"/>
<path d="M155.605 116.752H132.524C132.306 116.752 131.871 116.534 131.871 116.098V115.881C131.871 115.663 132.089 115.227 132.524 115.227H155.605C155.823 115.227 156.04 115.445 156.04 115.881V116.098C156.04 116.316 155.823 116.752 155.605 116.752Z" fill="#1C1C1A"/>
<path d="M154.952 119.582H133.177C132.96 119.582 132.742 119.364 132.742 119.147V118.929C132.742 118.711 132.96 118.494 133.177 118.494H154.952C155.169 118.494 155.605 118.711 155.605 118.929V119.147C155.605 119.147 155.169 119.582 154.952 119.582Z" fill="#1C1C1A"/>
<g opacity="0.21">
<path d="M144.718 98.679H84.1855C83.9677 98.679 83.75 98.8967 83.75 99.1144V104.993H85.0565V108.695V134.606V134.824V140.921C85.0565 141.139 85.2742 141.356 85.4919 141.356H143.847C144.065 141.356 144.282 141.139 144.282 140.921V134.824V134.606V108.695V104.993H141.669H144.935C145.153 104.993 145.371 104.776 145.371 104.558V99.3322C145.153 98.8967 144.935 98.679 144.718 98.679Z" fill="black"/>
<path d="M100.081 97.1548H97.0322V91.4935C97.0322 91.2757 96.8145 91.058 96.5968 91.058H92.2419C92.0242 91.058 91.8064 91.2757 91.8064 91.4935V97.1548H88.7581V98.679H100.298V97.1548H100.081Z" fill="black"/>
<path d="M138.403 97.1548H135.355V91.4935C135.355 91.2757 135.137 91.058 134.919 91.058H130.564C130.347 91.058 130.129 91.2757 130.129 91.4935V97.1548H127.081V98.679H138.621V97.1548H138.403Z" fill="black"/>
</g>
<path d="M100.298 93.6709H94.6371V99.9854H100.298V93.6709Z" fill="#F93D14"/>
<path d="M138.839 93.6709H133.177V99.9854H138.839V93.6709Z" fill="#1C1C1A"/>
<path d="M146.46 107.824H88.1049V138.526H146.46V107.824Z" fill="#FFF7F7"/>
<path d="M148.202 138.308H86.3629V145.058H148.202V138.308Z" fill="#1C1C1A"/>
<path opacity="0.1" d="M146.895 107.824H88.1049V111.743H146.895V107.824Z" fill="black"/>
<path d="M147.984 101.292H86.3629V107.824H147.984V101.292Z" fill="#1C1C1A"/>
<path d="M134.919 131.122C138.407 131.122 141.234 128.295 141.234 124.808C141.234 121.321 138.407 118.493 134.919 118.493C131.432 118.493 128.605 121.321 128.605 124.808C128.605 128.295 131.432 131.122 134.919 131.122Z" fill="#1C1C1A"/>
<path d="M99.6451 131.122C103.133 131.122 105.96 128.295 105.96 124.808C105.96 121.321 103.133 118.493 99.6451 118.493C96.1577 118.493 93.3306 121.321 93.3306 124.808C93.3306 128.295 96.1577 131.122 99.6451 131.122Z" fill="#1C1C1A"/>
<path d="M131.104 125.672L138.943 125.672L138.943 123.93L131.104 123.93L131.104 125.672Z" fill="#FFF7F7"/>
<path d="M95.7258 123.719H98.7742V120.671H100.516V123.719H103.782V125.679H100.516V128.727H98.7742V125.679H95.7258V123.719Z" fill="#FFF7F7"/>
<path d="M116.194 117.187H120.113L116.411 123.284H120.113L114.452 131.993L116.629 124.372H113.581L116.194 117.187Z" fill="#F93D14"/>
<path d="M103.347 99.7677H91.371V101.292H103.347V99.7677Z" fill="#1C1C1A"/>
<path d="M141.887 99.7677H129.911V101.292H141.887V99.7677Z" fill="#1C1C1A"/>
<defs>
<filter id="filter0_d_329_793" x="0" y="0" width="262" height="262" filterUnits="userSpaceOnUse" color-interpolation-filters="sRGB">
<feFlood flood-opacity="0" result="BackgroundImageFix"/>
<feColorMatrix in="SourceAlpha" type="matrix" values="0 0 0 0 0 0 0 0 0 0 0 0 0 0 0 0 0 0 127 0" result="hardAlpha"/>
<feOffset/>
<feGaussianBlur stdDeviation="8"/>
<feComposite in2="hardAlpha" operator="out"/>
<feColorMatrix type="matrix" values="0 0 0 0 0.0980392 0 0 0 0 0.0941176 0 0 0 0 0.360784 0 0 0 0.08 0"/>
<feBlend mode="normal" in2="BackgroundImageFix" result="effect1_dropShadow_329_793"/>
<feBlend mode="normal" in="SourceGraphic" in2="effect1_dropShadow_329_793" result="shape"/>
</filter>
</defs>
</svg>
