<svg width="263" height="262" viewBox="0 0 263 262" fill="none" xmlns="http://www.w3.org/2000/svg">
<g filter="url(#filter0_d_329_794)">
<rect x="16.5" y="16" width="230" height="230" rx="20" fill="white"/>
</g>
<path d="M70.896 171.842V173.702H67.196V185.742H64.916V173.702H61.196V171.842H70.896ZM83.1251 174.722L76.3651 190.922H74.0051L76.2451 185.562L71.9051 174.722H74.4451L77.5451 183.122L80.7651 174.722H83.1251ZM87.1257 176.322C87.459 175.762 87.899 175.329 88.4457 175.022C89.0057 174.702 89.6657 174.542 90.4257 174.542V176.902H89.8457C88.9524 176.902 88.2724 177.129 87.8057 177.582C87.3524 178.036 87.1257 178.822 87.1257 179.942V185.742H84.8457V174.722H87.1257V176.322ZM102.621 179.962C102.621 180.376 102.595 180.749 102.541 181.082H94.1215C94.1882 181.962 94.5148 182.669 95.1015 183.202C95.6882 183.736 96.4082 184.002 97.2615 184.002C98.4882 184.002 99.3548 183.489 99.8615 182.462H102.321C101.988 183.476 101.381 184.309 100.501 184.962C99.6348 185.602 98.5548 185.922 97.2615 185.922C96.2082 185.922 95.2615 185.689 94.4215 185.222C93.5948 184.742 92.9415 184.076 92.4615 183.222C91.9948 182.356 91.7615 181.356 91.7615 180.222C91.7615 179.089 91.9882 178.096 92.4415 177.242C92.9082 176.376 93.5548 175.709 94.3815 175.242C95.2215 174.776 96.1815 174.542 97.2615 174.542C98.3015 174.542 99.2282 174.769 100.041 175.222C100.855 175.676 101.488 176.316 101.941 177.142C102.395 177.956 102.621 178.896 102.621 179.962ZM100.241 179.242C100.228 178.402 99.9282 177.729 99.3415 177.222C98.7548 176.716 98.0282 176.462 97.1615 176.462C96.3748 176.462 95.7015 176.716 95.1415 177.222C94.5815 177.716 94.2482 178.389 94.1415 179.242H100.241ZM108.865 185.922C107.999 185.922 107.219 185.769 106.525 185.462C105.845 185.142 105.305 184.716 104.905 184.182C104.505 183.636 104.292 183.029 104.265 182.362H106.625C106.665 182.829 106.885 183.222 107.285 183.542C107.699 183.849 108.212 184.002 108.825 184.002C109.465 184.002 109.959 183.882 110.305 183.642C110.665 183.389 110.845 183.069 110.845 182.682C110.845 182.269 110.645 181.962 110.245 181.762C109.859 181.562 109.239 181.342 108.385 181.102C107.559 180.876 106.885 180.656 106.365 180.442C105.845 180.229 105.392 179.902 105.005 179.462C104.632 179.022 104.445 178.442 104.445 177.722C104.445 177.136 104.619 176.602 104.965 176.122C105.312 175.629 105.805 175.242 106.445 174.962C107.099 174.682 107.845 174.542 108.685 174.542C109.939 174.542 110.945 174.862 111.705 175.502C112.479 176.129 112.892 176.989 112.945 178.082H110.665C110.625 177.589 110.425 177.196 110.065 176.902C109.705 176.609 109.219 176.462 108.605 176.462C108.005 176.462 107.545 176.576 107.225 176.802C106.905 177.029 106.745 177.329 106.745 177.702C106.745 177.996 106.852 178.242 107.065 178.442C107.279 178.642 107.539 178.802 107.845 178.922C108.152 179.029 108.605 179.169 109.205 179.342C110.005 179.556 110.659 179.776 111.165 180.002C111.685 180.216 112.132 180.536 112.505 180.962C112.879 181.389 113.072 181.956 113.085 182.662C113.085 183.289 112.912 183.849 112.565 184.342C112.219 184.836 111.725 185.222 111.085 185.502C110.459 185.782 109.719 185.922 108.865 185.922ZM131.484 185.742L129.764 184.022C129.097 184.689 128.371 185.189 127.584 185.522C126.797 185.842 125.917 186.002 124.944 186.002C123.957 186.002 123.084 185.829 122.324 185.482C121.564 185.136 120.977 184.642 120.564 184.002C120.151 183.349 119.944 182.596 119.944 181.742C119.944 180.782 120.217 179.929 120.764 179.182C121.311 178.422 122.124 177.822 123.204 177.382C122.817 176.916 122.544 176.482 122.384 176.082C122.224 175.669 122.144 175.216 122.144 174.722C122.144 174.109 122.297 173.562 122.604 173.082C122.924 172.602 123.377 172.222 123.964 171.942C124.551 171.662 125.231 171.522 126.004 171.522C126.791 171.522 127.457 171.676 128.004 171.982C128.564 172.276 128.977 172.682 129.244 173.202C129.524 173.722 129.637 174.302 129.584 174.942H127.304C127.317 174.449 127.197 174.069 126.944 173.802C126.691 173.522 126.344 173.382 125.904 173.382C125.464 173.382 125.104 173.516 124.824 173.782C124.557 174.036 124.424 174.349 124.424 174.722C124.424 175.082 124.524 175.442 124.724 175.802C124.937 176.149 125.304 176.602 125.824 177.162L129.504 180.822L130.924 178.482H133.384L131.584 181.562L131.084 182.382L134.464 185.742H131.484ZM124.944 184.062C126.197 184.062 127.304 183.549 128.264 182.522L124.584 178.822C123.011 179.449 122.224 180.396 122.224 181.662C122.224 182.342 122.477 182.916 122.984 183.382C123.491 183.836 124.144 184.062 124.944 184.062ZM159.254 171.842L155.134 185.742H152.554L149.634 175.222L146.534 185.742L143.974 185.762L140.034 171.842H142.454L145.334 183.162L148.454 171.842H151.014L153.914 183.102L156.814 171.842H159.254ZM166.835 174.542C167.675 174.542 168.421 174.722 169.075 175.082C169.741 175.442 170.261 175.976 170.635 176.682C171.021 177.389 171.215 178.242 171.215 179.242V185.742H168.955V179.582C168.955 178.596 168.708 177.842 168.215 177.322C167.721 176.789 167.048 176.522 166.195 176.522C165.341 176.522 164.661 176.789 164.155 177.322C163.661 177.842 163.415 178.596 163.415 179.582V185.742H161.135V170.942H163.415V176.002C163.801 175.536 164.288 175.176 164.875 174.922C165.475 174.669 166.128 174.542 166.835 174.542ZM184.223 179.962C184.223 180.376 184.196 180.749 184.143 181.082H175.723C175.79 181.962 176.116 182.669 176.703 183.202C177.29 183.736 178.01 184.002 178.863 184.002C180.09 184.002 180.956 183.489 181.463 182.462H183.923C183.59 183.476 182.983 184.309 182.103 184.962C181.236 185.602 180.156 185.922 178.863 185.922C177.81 185.922 176.863 185.689 176.023 185.222C175.196 184.742 174.543 184.076 174.063 183.222C173.596 182.356 173.363 181.356 173.363 180.222C173.363 179.089 173.59 178.096 174.043 177.242C174.51 176.376 175.156 175.709 175.983 175.242C176.823 174.776 177.783 174.542 178.863 174.542C179.903 174.542 180.83 174.769 181.643 175.222C182.456 175.676 183.09 176.316 183.543 177.142C183.996 177.956 184.223 178.896 184.223 179.962ZM181.843 179.242C181.83 178.402 181.53 177.729 180.943 177.222C180.356 176.716 179.63 176.462 178.763 176.462C177.976 176.462 177.303 176.716 176.743 177.222C176.183 177.716 175.85 178.389 175.743 179.242H181.843ZM196.567 179.962C196.567 180.376 196.54 180.749 196.487 181.082H188.067C188.133 181.962 188.46 182.669 189.047 183.202C189.633 183.736 190.353 184.002 191.207 184.002C192.433 184.002 193.3 183.489 193.807 182.462H196.267C195.933 183.476 195.327 184.309 194.447 184.962C193.58 185.602 192.5 185.922 191.207 185.922C190.153 185.922 189.207 185.689 188.367 185.222C187.54 184.742 186.887 184.076 186.407 183.222C185.94 182.356 185.707 181.356 185.707 180.222C185.707 179.089 185.933 178.096 186.387 177.242C186.853 176.376 187.5 175.709 188.327 175.242C189.167 174.776 190.127 174.542 191.207 174.542C192.247 174.542 193.173 174.769 193.987 175.222C194.8 175.676 195.433 176.316 195.887 177.142C196.34 177.956 196.567 178.896 196.567 179.962ZM194.187 179.242C194.173 178.402 193.873 177.729 193.287 177.222C192.7 176.716 191.973 176.462 191.107 176.462C190.32 176.462 189.647 176.716 189.087 177.222C188.527 177.716 188.193 178.389 188.087 179.242H194.187ZM201.091 170.942V185.742H198.811V170.942H201.091ZM107.719 208.762C107.719 207.402 108.032 206.182 108.659 205.102C109.299 204.022 110.159 203.182 111.239 202.582C112.332 201.969 113.525 201.662 114.819 201.662C116.299 201.662 117.612 202.029 118.759 202.762C119.919 203.482 120.759 204.509 121.279 205.842H118.539C118.179 205.109 117.679 204.562 117.039 204.202C116.399 203.842 115.659 203.662 114.819 203.662C113.899 203.662 113.079 203.869 112.359 204.282C111.639 204.696 111.072 205.289 110.659 206.062C110.259 206.836 110.059 207.736 110.059 208.762C110.059 209.789 110.259 210.689 110.659 211.462C111.072 212.236 111.639 212.836 112.359 213.262C113.079 213.676 113.899 213.882 114.819 213.882C115.659 213.882 116.399 213.702 117.039 213.342C117.679 212.982 118.179 212.436 118.539 211.702H121.279C120.759 213.036 119.919 214.062 118.759 214.782C117.612 215.502 116.299 215.862 114.819 215.862C113.512 215.862 112.319 215.562 111.239 214.962C110.159 214.349 109.299 213.502 108.659 212.422C108.032 211.342 107.719 210.122 107.719 208.762ZM123.187 210.182C123.187 209.076 123.414 208.096 123.867 207.242C124.334 206.389 124.961 205.729 125.747 205.262C126.547 204.782 127.427 204.542 128.387 204.542C129.254 204.542 130.007 204.716 130.647 205.062C131.301 205.396 131.821 205.816 132.207 206.322V204.722H134.507V215.742H132.207V214.102C131.821 214.622 131.294 215.056 130.627 215.402C129.961 215.749 129.201 215.922 128.347 215.922C127.401 215.922 126.534 215.682 125.747 215.202C124.961 214.709 124.334 214.029 123.867 213.162C123.414 212.282 123.187 211.289 123.187 210.182ZM132.207 210.222C132.207 209.462 132.047 208.802 131.727 208.242C131.421 207.682 131.014 207.256 130.507 206.962C130.001 206.669 129.454 206.522 128.867 206.522C128.281 206.522 127.734 206.669 127.227 206.962C126.721 207.242 126.307 207.662 125.987 208.222C125.681 208.769 125.527 209.422 125.527 210.182C125.527 210.942 125.681 211.609 125.987 212.182C126.307 212.756 126.721 213.196 127.227 213.502C127.747 213.796 128.294 213.942 128.867 213.942C129.454 213.942 130.001 213.796 130.507 213.502C131.014 213.209 131.421 212.782 131.727 212.222C132.047 211.649 132.207 210.982 132.207 210.222ZM139.782 206.322C140.115 205.762 140.555 205.329 141.102 205.022C141.662 204.702 142.322 204.542 143.082 204.542V206.902H142.502C141.609 206.902 140.929 207.129 140.462 207.582C140.009 208.036 139.782 208.822 139.782 209.942V215.742H137.502V204.722H139.782V206.322ZM155.278 209.962C155.278 210.376 155.251 210.749 155.198 211.082H146.778C146.844 211.962 147.171 212.669 147.758 213.202C148.344 213.736 149.064 214.002 149.918 214.002C151.144 214.002 152.011 213.489 152.518 212.462H154.978C154.644 213.476 154.038 214.309 153.158 214.962C152.291 215.602 151.211 215.922 149.918 215.922C148.864 215.922 147.918 215.689 147.078 215.222C146.251 214.742 145.598 214.076 145.118 213.222C144.651 212.356 144.418 211.356 144.418 210.222C144.418 209.089 144.644 208.096 145.098 207.242C145.564 206.376 146.211 205.709 147.038 205.242C147.878 204.776 148.838 204.542 149.918 204.542C150.958 204.542 151.884 204.769 152.698 205.222C153.511 205.676 154.144 206.316 154.598 207.142C155.051 207.956 155.278 208.896 155.278 209.962ZM152.898 209.242C152.884 208.402 152.584 207.729 151.998 207.222C151.411 206.716 150.684 206.462 149.818 206.462C149.031 206.462 148.358 206.716 147.798 207.222C147.238 207.716 146.904 208.389 146.798 209.242H152.898Z" fill="#282830"/>
<path opacity="0.21" d="M149.573 124.048L164.379 109.677C165.25 108.806 166.557 108.153 168.081 108.153C169.169 108.153 170.258 108.371 171.129 109.459C172.218 110.33 172.436 111.637 172.436 112.725C172.436 114.467 171.782 115.992 170.476 117.08C166.992 120.564 155.887 131.669 152.186 135.371C148.702 138.854 144.565 138.419 144.565 138.419L119.089 136.895L118.436 137.113L113.427 141.032L100.798 127.967L111.903 118.169C111.903 118.169 114.734 115.556 121.266 116.645C127.798 117.516 144.347 118.604 144.347 118.604" fill="black"/>
<path d="M137.815 111.637C151.043 111.637 161.766 100.913 161.766 87.6851C161.766 74.457 151.043 63.7335 137.815 63.7335C124.586 63.7335 113.863 74.457 113.863 87.6851C113.863 100.913 124.586 111.637 137.815 111.637Z" stroke="#1C1C1A" stroke-miterlimit="10"/>
<path d="M137.815 111.637C151.043 111.637 161.766 100.913 161.766 87.6851C161.766 74.457 151.043 63.7335 137.815 63.7335C124.586 63.7335 113.863 74.457 113.863 87.6851C113.863 100.913 124.586 111.637 137.815 111.637Z" fill="#1C1C1A"/>
<path d="M137.815 103.145C146.353 103.145 153.274 96.2233 153.274 87.6851C153.274 79.147 146.353 72.2255 137.815 72.2255C129.276 72.2255 122.355 79.147 122.355 87.6851C122.355 96.2233 129.276 103.145 137.815 103.145Z" fill="#FFF7F7"/>
<path d="M131.5 75.2738L136.073 83.1125C136.726 84.419 138.468 84.419 139.339 83.1125L143.911 75.2738C143.911 75.2738 142.169 73.5319 137.815 73.5319C133.46 73.5319 131.5 75.2738 131.5 75.2738Z" fill="#1C1C1A"/>
<path d="M147.177 77.6689L141.516 84.8544C140.645 85.9431 141.298 87.6851 142.605 87.6851L151.75 88.9915C151.75 88.9915 152.621 86.5964 151.097 82.677C149.573 78.7577 147.177 77.6689 147.177 77.6689Z" fill="#1C1C1A"/>
<path d="M150.661 93.3464L141.952 90.298C140.645 89.8625 139.339 90.9512 139.556 92.2576L141.298 101.185C141.298 101.185 143.911 101.403 147.177 98.5722C150.226 95.9593 150.661 93.3464 150.661 93.3464Z" fill="#1C1C1A"/>
<path d="M136.073 101.403L136.726 92.2576C136.726 90.9512 135.419 89.8625 134.113 90.5157L125.839 94.6528C125.839 94.6528 126.274 97.0479 129.976 99.4431C133.46 101.838 136.073 101.403 136.073 101.403Z" fill="#1C1C1A"/>
<path d="M123.879 90.0802L132.806 88.1205C134.113 87.9028 134.766 86.1609 133.677 85.0721L127.363 78.3221C127.363 78.3221 125.185 79.6286 123.879 83.5479C122.79 87.685 123.879 90.0802 123.879 90.0802Z" fill="#1C1C1A"/>
<path d="M148.484 121.871L163.29 107.5C164.161 106.629 165.468 105.975 166.992 105.975C168.081 105.975 169.169 106.193 170.04 107.282C171.129 108.153 171.347 109.459 171.347 110.548C171.347 112.29 170.694 113.814 169.387 114.903C165.903 118.387 154.798 129.492 151.097 133.193C147.613 136.459 143.476 136.242 143.476 136.242L118 134.717L117.565 135.153L112.557 139.072L99.9275 126.008L111.032 116.209C111.032 116.209 113.863 113.596 120.395 114.685C126.927 115.556 143.476 116.645 143.476 116.645C143.476 116.645 147.831 117.08 148.048 121.653C148.266 126.225 143.258 125.572 143.258 125.572L125.839 124.484" fill="#F7E3E2"/>
<path d="M106.895 147.129C107.766 147.782 108.855 147.782 109.726 147.129L114.081 143.209C115.169 142.338 115.169 140.814 114.081 139.943L98.4033 124.919C97.5323 124.048 96.2258 124.048 95.3549 124.919L91 128.838C90.1291 129.709 90.1291 131.233 91 132.104L106.895 147.129Z" fill="#F93D14"/>
<path opacity="0.21" d="M124.968 124.701L141.734 125.79C145.218 126.225 147.177 125.355 147.831 123.177C147.831 122.742 148.048 122.524 148.048 122.088C148.048 122.742 148.048 123.613 148.048 124.266C147.831 125.572 146.96 126.879 145.653 127.532C144.347 127.967 143.258 127.75 141.952 127.314C141.081 127.096 140.21 127.096 139.121 126.879C136.944 126.443 134.766 126.225 132.806 125.79C130.847 125.572 129.105 125.137 127.145 124.919C126.492 124.919 125.839 124.701 124.968 124.701Z" fill="#1C1C1A"/>
<path d="M91.2177 131.451C90.7822 131.016 90.7822 130.58 91.2177 130.363L96.6613 124.483C96.879 124.266 97.3145 124.266 97.5322 124.483C97.75 124.701 97.75 125.137 97.5322 125.354L92.0887 131.234C91.871 131.669 91.4355 131.669 91.2177 131.451Z" fill="#F93D14"/>
<path d="M93.6129 133.629C93.1774 133.193 93.1774 132.758 93.6129 132.54L99.0564 126.661C99.2742 126.443 99.7096 126.443 99.9274 126.661C100.145 126.879 100.145 127.314 99.9274 127.532L94.4838 133.411C94.2661 133.846 93.8306 133.846 93.6129 133.629Z" fill="#F93D14"/>
<path d="M96.008 136.024C95.5725 135.588 95.5725 135.153 96.008 134.935L101.452 129.056C101.669 128.838 102.105 128.838 102.323 129.056C102.54 129.274 102.54 129.709 102.323 129.927L96.879 135.806C96.879 136.242 96.4435 136.242 96.008 136.024Z" fill="#F93D14"/>
<path d="M98.4032 138.201C97.9677 137.766 97.9677 137.33 98.4032 137.113L103.847 131.233C104.064 131.016 104.5 131.016 104.718 131.233C104.935 131.451 104.935 131.887 104.718 132.104L99.2741 137.983C99.2741 138.419 98.8386 138.419 98.4032 138.201Z" fill="#F93D14"/>
<path d="M101.016 140.596C100.581 140.161 100.581 139.725 101.016 139.508L106.46 133.629C106.677 133.411 107.113 133.411 107.331 133.629C107.548 133.846 107.548 134.282 107.331 134.5L101.887 140.596C101.669 140.814 101.234 140.814 101.016 140.596Z" fill="#F93D14"/>
<path d="M103.411 142.774C102.976 142.338 102.976 141.903 103.411 141.685L108.855 135.806C109.073 135.588 109.508 135.588 109.726 135.806C109.944 136.024 109.944 136.459 109.726 136.677L104.282 142.774C104.065 143.209 103.629 143.209 103.411 142.774Z" fill="#F93D14"/>
<path d="M105.806 145.169C105.371 144.734 105.371 144.298 105.806 144.08L111.25 138.201C111.468 137.984 111.903 137.984 112.121 138.201C112.339 138.419 112.339 138.854 112.121 139.072L106.677 144.951C106.46 145.387 106.024 145.387 105.806 145.169Z" fill="#F93D14"/>
<path d="M108.202 147.564C107.766 147.129 107.766 146.693 108.202 146.475L113.645 140.596C113.863 140.379 114.298 140.379 114.516 140.596C114.734 140.814 114.734 141.25 114.516 141.467L109.073 147.346C108.855 147.782 108.419 147.782 108.202 147.564Z" fill="#F93D14"/>
<defs>
<filter id="filter0_d_329_794" x="0.5" y="0" width="262" height="262" filterUnits="userSpaceOnUse" color-interpolation-filters="sRGB">
<feFlood flood-opacity="0" result="BackgroundImageFix"/>
<feColorMatrix in="SourceAlpha" type="matrix" values="0 0 0 0 0 0 0 0 0 0 0 0 0 0 0 0 0 0 127 0" result="hardAlpha"/>
<feOffset/>
<feGaussianBlur stdDeviation="8"/>
<feComposite in2="hardAlpha" operator="out"/>
<feColorMatrix type="matrix" values="0 0 0 0 0.0980392 0 0 0 0 0.0941176 0 0 0 0 0.360784 0 0 0 0.08 0"/>
<feBlend mode="normal" in2="BackgroundImageFix" result="effect1_dropShadow_329_794"/>
<feBlend mode="normal" in="SourceGraphic" in2="effect1_dropShadow_329_794" result="shape"/>
</filter>
</defs>
</svg>
