<svg width="262" height="262" viewBox="0 0 262 262" fill="none" xmlns="http://www.w3.org/2000/svg">
<g filter="url(#filter0_d_329_796)">
<rect x="16" y="16" width="230" height="230" rx="20" fill="white"/>
</g>
<path d="M89.4619 171.364C90.9419 171.364 92.2352 171.651 93.3419 172.224C94.4619 172.784 95.3219 173.597 95.9219 174.664C96.5352 175.717 96.8419 176.951 96.8419 178.364C96.8419 179.777 96.5352 181.004 95.9219 182.044C95.3219 183.084 94.4619 183.884 93.3419 184.444C92.2352 184.991 90.9419 185.264 89.4619 185.264H84.9219V171.364H89.4619ZM89.4619 183.404C91.0885 183.404 92.3352 182.964 93.2019 182.084C94.0685 181.204 94.5019 179.964 94.5019 178.364C94.5019 176.751 94.0685 175.491 93.2019 174.584C92.3352 173.677 91.0885 173.224 89.4619 173.224H87.2019V183.404H89.4619ZM109.202 179.484C109.202 179.897 109.175 180.271 109.122 180.604H100.702C100.768 181.484 101.095 182.191 101.682 182.724C102.268 183.257 102.988 183.524 103.842 183.524C105.068 183.524 105.935 183.011 106.442 181.984H108.902C108.568 182.997 107.962 183.831 107.082 184.484C106.215 185.124 105.135 185.444 103.842 185.444C102.788 185.444 101.842 185.211 101.002 184.744C100.175 184.264 99.5216 183.597 99.0416 182.744C98.5749 181.877 98.3416 180.877 98.3416 179.744C98.3416 178.611 98.5682 177.617 99.0216 176.764C99.4882 175.897 100.135 175.231 100.962 174.764C101.802 174.297 102.762 174.064 103.842 174.064C104.882 174.064 105.808 174.291 106.622 174.744C107.435 175.197 108.068 175.837 108.522 176.664C108.975 177.477 109.202 178.417 109.202 179.484ZM106.822 178.764C106.808 177.924 106.508 177.251 105.922 176.744C105.335 176.237 104.608 175.984 103.742 175.984C102.955 175.984 102.282 176.237 101.722 176.744C101.162 177.237 100.828 177.911 100.722 178.764H106.822ZM114.105 176.104V182.204C114.105 182.617 114.199 182.917 114.385 183.104C114.585 183.277 114.919 183.364 115.385 183.364H116.785V185.264H114.985C113.959 185.264 113.172 185.024 112.625 184.544C112.079 184.064 111.805 183.284 111.805 182.204V176.104H110.505V174.244H111.805V171.504H114.105V174.244H116.785V176.104H114.105ZM118.127 179.704C118.127 178.597 118.353 177.617 118.807 176.764C119.273 175.911 119.9 175.251 120.687 174.784C121.487 174.304 122.367 174.064 123.327 174.064C124.193 174.064 124.947 174.237 125.587 174.584C126.24 174.917 126.76 175.337 127.147 175.844V174.244H129.447V185.264H127.147V183.624C126.76 184.144 126.233 184.577 125.567 184.924C124.9 185.271 124.14 185.444 123.287 185.444C122.34 185.444 121.473 185.204 120.687 184.724C119.9 184.231 119.273 183.551 118.807 182.684C118.353 181.804 118.127 180.811 118.127 179.704ZM127.147 179.744C127.147 178.984 126.987 178.324 126.667 177.764C126.36 177.204 125.953 176.777 125.447 176.484C124.94 176.191 124.393 176.044 123.807 176.044C123.22 176.044 122.673 176.191 122.167 176.484C121.66 176.764 121.247 177.184 120.927 177.744C120.62 178.291 120.467 178.944 120.467 179.704C120.467 180.464 120.62 181.131 120.927 181.704C121.247 182.277 121.66 182.717 122.167 183.024C122.687 183.317 123.233 183.464 123.807 183.464C124.393 183.464 124.94 183.317 125.447 183.024C125.953 182.731 126.36 182.304 126.667 181.744C126.987 181.171 127.147 180.504 127.147 179.744ZM133.601 172.784C133.188 172.784 132.841 172.644 132.561 172.364C132.281 172.084 132.141 171.737 132.141 171.324C132.141 170.911 132.281 170.564 132.561 170.284C132.841 170.004 133.188 169.864 133.601 169.864C134.001 169.864 134.341 170.004 134.621 170.284C134.901 170.564 135.041 170.911 135.041 171.324C135.041 171.737 134.901 172.084 134.621 172.364C134.341 172.644 134.001 172.784 133.601 172.784ZM134.721 174.244V185.264H132.441V174.244H134.721ZM139.995 170.464V185.264H137.715V170.464H139.995ZM145.268 170.464V185.264H142.988V170.464H145.268ZM149.422 172.784C149.008 172.784 148.662 172.644 148.382 172.364C148.102 172.084 147.962 171.737 147.962 171.324C147.962 170.911 148.102 170.564 148.382 170.284C148.662 170.004 149.008 169.864 149.422 169.864C149.822 169.864 150.162 170.004 150.442 170.284C150.722 170.564 150.862 170.911 150.862 171.324C150.862 171.737 150.722 172.084 150.442 172.364C150.162 172.644 149.822 172.784 149.422 172.784ZM150.542 174.244V185.264H148.262V174.244H150.542ZM159.095 174.064C159.962 174.064 160.735 174.244 161.415 174.604C162.108 174.964 162.648 175.497 163.035 176.204C163.422 176.911 163.615 177.764 163.615 178.764V185.264H161.355V179.104C161.355 178.117 161.108 177.364 160.615 176.844C160.122 176.311 159.448 176.044 158.595 176.044C157.742 176.044 157.062 176.311 156.555 176.844C156.062 177.364 155.815 178.117 155.815 179.104V185.264H153.535V174.244H155.815V175.504C156.188 175.051 156.662 174.697 157.235 174.444C157.822 174.191 158.442 174.064 159.095 174.064ZM170.963 174.064C171.817 174.064 172.57 174.237 173.223 174.584C173.89 174.917 174.41 175.337 174.783 175.844V174.244H177.083V185.444C177.083 186.457 176.87 187.357 176.443 188.144C176.017 188.944 175.397 189.571 174.583 190.024C173.783 190.477 172.823 190.704 171.703 190.704C170.21 190.704 168.97 190.351 167.983 189.644C166.997 188.951 166.437 188.004 166.303 186.804H168.563C168.737 187.377 169.103 187.837 169.663 188.184C170.237 188.544 170.917 188.724 171.703 188.724C172.623 188.724 173.363 188.444 173.923 187.884C174.497 187.324 174.783 186.511 174.783 185.444V183.604C174.397 184.124 173.87 184.564 173.203 184.924C172.55 185.271 171.803 185.444 170.963 185.444C170.003 185.444 169.123 185.204 168.323 184.724C167.537 184.231 166.91 183.551 166.443 182.684C165.99 181.804 165.763 180.811 165.763 179.704C165.763 178.597 165.99 177.617 166.443 176.764C166.91 175.911 167.537 175.251 168.323 174.784C169.123 174.304 170.003 174.064 170.963 174.064ZM174.783 179.744C174.783 178.984 174.623 178.324 174.303 177.764C173.997 177.204 173.59 176.777 173.083 176.484C172.577 176.191 172.03 176.044 171.443 176.044C170.857 176.044 170.31 176.191 169.803 176.484C169.297 176.764 168.883 177.184 168.563 177.744C168.257 178.291 168.103 178.944 168.103 179.704C168.103 180.464 168.257 181.131 168.563 181.704C168.883 182.277 169.297 182.717 169.803 183.024C170.323 183.317 170.87 183.464 171.443 183.464C172.03 183.464 172.577 183.317 173.083 183.024C173.59 182.731 173.997 182.304 174.303 181.744C174.623 181.171 174.783 180.504 174.783 179.744ZM95.1269 215.404C94.1935 215.404 93.3535 215.244 92.6069 214.924C91.8602 214.591 91.2735 214.124 90.8469 213.524C90.4202 212.924 90.2069 212.224 90.2069 211.424H92.6469C92.7002 212.024 92.9335 212.517 93.3469 212.904C93.7735 213.291 94.3669 213.484 95.1269 213.484C95.9135 213.484 96.5269 213.297 96.9669 212.924C97.4069 212.537 97.6269 212.044 97.6269 211.444C97.6269 210.977 97.4869 210.597 97.2069 210.304C96.9402 210.011 96.6002 209.784 96.1869 209.624C95.7869 209.464 95.2269 209.291 94.5069 209.104C93.6002 208.864 92.8602 208.624 92.2869 208.384C91.7269 208.131 91.2469 207.744 90.8469 207.224C90.4469 206.704 90.2469 206.011 90.2469 205.144C90.2469 204.344 90.4469 203.644 90.8469 203.044C91.2469 202.444 91.8069 201.984 92.5269 201.664C93.2469 201.344 94.0802 201.184 95.0269 201.184C96.3735 201.184 97.4735 201.524 98.3269 202.204C99.1935 202.871 99.6735 203.791 99.7669 204.964H97.2469C97.2069 204.457 96.9669 204.024 96.5269 203.664C96.0869 203.304 95.5069 203.124 94.7869 203.124C94.1335 203.124 93.6002 203.291 93.1869 203.624C92.7735 203.957 92.5669 204.437 92.5669 205.064C92.5669 205.491 92.6935 205.844 92.9469 206.124C93.2135 206.391 93.5469 206.604 93.9469 206.764C94.3469 206.924 94.8935 207.097 95.5869 207.284C96.5069 207.537 97.2535 207.791 97.8269 208.044C98.4135 208.297 98.9069 208.691 99.3069 209.224C99.7202 209.744 99.9269 210.444 99.9269 211.324C99.9269 212.031 99.7335 212.697 99.3469 213.324C98.9735 213.951 98.4202 214.457 97.6869 214.844C96.9669 215.217 96.1135 215.404 95.1269 215.404ZM112.717 209.484C112.717 209.897 112.691 210.271 112.637 210.604H104.217C104.284 211.484 104.611 212.191 105.197 212.724C105.784 213.257 106.504 213.524 107.357 213.524C108.584 213.524 109.451 213.011 109.957 211.984H112.417C112.084 212.997 111.477 213.831 110.597 214.484C109.731 215.124 108.651 215.444 107.357 215.444C106.304 215.444 105.357 215.211 104.517 214.744C103.691 214.264 103.037 213.597 102.557 212.744C102.091 211.877 101.857 210.877 101.857 209.744C101.857 208.611 102.084 207.617 102.537 206.764C103.004 205.897 103.651 205.231 104.477 204.764C105.317 204.297 106.277 204.064 107.357 204.064C108.397 204.064 109.324 204.291 110.137 204.744C110.951 205.197 111.584 205.837 112.037 206.664C112.491 207.477 112.717 208.417 112.717 209.484ZM110.337 208.764C110.324 207.924 110.024 207.251 109.437 206.744C108.851 206.237 108.124 205.984 107.257 205.984C106.471 205.984 105.797 206.237 105.237 206.744C104.677 207.237 104.344 207.911 104.237 208.764H110.337ZM117.241 205.844C117.574 205.284 118.014 204.851 118.561 204.544C119.121 204.224 119.781 204.064 120.541 204.064V206.424H119.961C119.068 206.424 118.388 206.651 117.921 207.104C117.468 207.557 117.241 208.344 117.241 209.464V215.264H114.961V204.244H117.241V205.844ZM126.897 213.224L130.017 204.244H132.437L128.237 215.264H125.517L121.337 204.244H123.777L126.897 213.224ZM135.32 202.784C134.907 202.784 134.56 202.644 134.28 202.364C134 202.084 133.86 201.737 133.86 201.324C133.86 200.911 134 200.564 134.28 200.284C134.56 200.004 134.907 199.864 135.32 199.864C135.72 199.864 136.06 200.004 136.34 200.284C136.62 200.564 136.76 200.911 136.76 201.324C136.76 201.737 136.62 202.084 136.34 202.364C136.06 202.644 135.72 202.784 135.32 202.784ZM136.44 204.244V215.264H134.16V204.244H136.44ZM138.674 209.744C138.674 208.611 138.9 207.617 139.354 206.764C139.82 205.897 140.46 205.231 141.274 204.764C142.087 204.297 143.02 204.064 144.074 204.064C145.407 204.064 146.507 204.384 147.374 205.024C148.254 205.651 148.847 206.551 149.154 207.724H146.694C146.494 207.177 146.174 206.751 145.734 206.444C145.294 206.137 144.74 205.984 144.074 205.984C143.14 205.984 142.394 206.317 141.834 206.984C141.287 207.637 141.014 208.557 141.014 209.744C141.014 210.931 141.287 211.857 141.834 212.524C142.394 213.191 143.14 213.524 144.074 213.524C145.394 213.524 146.267 212.944 146.694 211.784H149.154C148.834 212.904 148.234 213.797 147.354 214.464C146.474 215.117 145.38 215.444 144.074 215.444C143.02 215.444 142.087 215.211 141.274 214.744C140.46 214.264 139.82 213.597 139.354 212.744C138.9 211.877 138.674 210.877 138.674 209.744ZM161.526 209.484C161.526 209.897 161.499 210.271 161.446 210.604H153.026C153.092 211.484 153.419 212.191 154.006 212.724C154.592 213.257 155.312 213.524 156.166 213.524C157.392 213.524 158.259 213.011 158.766 211.984H161.226C160.892 212.997 160.286 213.831 159.406 214.484C158.539 215.124 157.459 215.444 156.166 215.444C155.112 215.444 154.166 215.211 153.326 214.744C152.499 214.264 151.846 213.597 151.366 212.744C150.899 211.877 150.666 210.877 150.666 209.744C150.666 208.611 150.892 207.617 151.346 206.764C151.812 205.897 152.459 205.231 153.286 204.764C154.126 204.297 155.086 204.064 156.166 204.064C157.206 204.064 158.132 204.291 158.946 204.744C159.759 205.197 160.392 205.837 160.846 206.664C161.299 207.477 161.526 208.417 161.526 209.484ZM159.146 208.764C159.132 207.924 158.832 207.251 158.246 206.744C157.659 206.237 156.932 205.984 156.066 205.984C155.279 205.984 154.606 206.237 154.046 206.744C153.486 207.237 153.152 207.911 153.046 208.764H159.146ZM167.77 215.444C166.903 215.444 166.123 215.291 165.43 214.984C164.75 214.664 164.21 214.237 163.81 213.704C163.41 213.157 163.196 212.551 163.17 211.884H165.53C165.57 212.351 165.79 212.744 166.19 213.064C166.603 213.371 167.116 213.524 167.73 213.524C168.37 213.524 168.863 213.404 169.21 213.164C169.57 212.911 169.75 212.591 169.75 212.204C169.75 211.791 169.55 211.484 169.15 211.284C168.763 211.084 168.143 210.864 167.29 210.624C166.463 210.397 165.79 210.177 165.27 209.964C164.75 209.751 164.296 209.424 163.91 208.984C163.536 208.544 163.35 207.964 163.35 207.244C163.35 206.657 163.523 206.124 163.87 205.644C164.216 205.151 164.71 204.764 165.35 204.484C166.003 204.204 166.75 204.064 167.59 204.064C168.843 204.064 169.85 204.384 170.61 205.024C171.383 205.651 171.796 206.511 171.85 207.604H169.57C169.53 207.111 169.33 206.717 168.97 206.424C168.61 206.131 168.123 205.984 167.51 205.984C166.91 205.984 166.45 206.097 166.13 206.324C165.81 206.551 165.65 206.851 165.65 207.224C165.65 207.517 165.756 207.764 165.97 207.964C166.183 208.164 166.443 208.324 166.75 208.444C167.056 208.551 167.51 208.691 168.11 208.864C168.91 209.077 169.563 209.297 170.07 209.524C170.59 209.737 171.036 210.057 171.41 210.484C171.783 210.911 171.976 211.477 171.99 212.184C171.99 212.811 171.816 213.371 171.47 213.864C171.123 214.357 170.63 214.744 169.99 215.024C169.363 215.304 168.623 215.444 167.77 215.444Z" fill="#282830"/>
<g clip-path="url(#clip0_329_796)">
<path opacity="0.21" d="M102.976 100.997C102.573 101.198 102.169 101.4 101.565 101.4C102.169 101.4 102.573 101.198 102.976 100.997Z" fill="black"/>
<path d="M146.121 129.223V132.247L165.677 131.239C165.879 130.231 165.879 129.424 165.879 128.416C165.879 127.811 165.879 127.206 165.677 126.4C165.073 120.956 160.839 117.126 156.403 117.126C153.581 117.126 150.96 118.537 149.145 120.755C147.331 122.771 146.121 125.795 146.121 129.223Z" fill="#1C1C1A"/>
<path d="M79.5887 128.013C79.5887 128.819 79.5887 129.626 79.7903 130.432L99.3468 131.642V129.021C99.3468 122.569 94.9113 117.126 89.4677 117.126C86.8468 117.126 84.4274 118.335 82.8145 120.352C80.7984 122.166 79.5887 124.787 79.5887 128.013Z" fill="#1C1C1A"/>
<path d="M70.1129 119.747C70.1129 119.747 69.5081 116.319 70.5161 113.497C70.7177 113.094 70.7177 112.892 70.9194 112.69C71.121 113.094 71.5242 113.698 72.5323 113.9C73.7419 114.505 76.5645 114.303 76.5645 114.303C76.5645 114.303 77.5726 113.698 77.9758 113.497C78.379 113.295 80.3952 112.287 75.7581 112.287C72.7339 112.287 72.5323 110.674 71.9274 109.868C72.129 109.464 72.129 109.061 72.3306 108.86C72.7339 107.448 73.9435 106.44 75.1532 106.44C75.9597 106.44 76.7661 106.44 77.5726 106.44C78.9839 106.44 81 106.239 83.0161 105.634L85.6371 106.44C90.0726 103.819 98.5403 100.795 102.169 99.5855C106.605 98.5774 112.048 96.9645 121.323 97.3677C123.339 97.5693 125.556 97.9726 128.177 98.779C133.621 101.198 141.887 106.642 142.895 107.448C143.903 108.255 146.726 109.464 148.54 108.86C149.347 108.658 150.153 108.456 150.556 108.456C152.371 108.658 157.411 109.061 161.847 110.069C167.29 111.481 172.532 113.295 175.355 115.11C178.177 116.924 179.387 118.537 178.379 121.36C177.371 122.569 175.355 124.585 174.952 124.585L176.565 127.811C176.565 127.811 177.169 128.819 178.379 127.61L178.581 128.013C178.581 128.013 177.774 130.029 175.556 131.239C173.339 132.247 170.919 132.852 165.274 133.456H165.073C166.081 131.037 166.081 129.021 165.476 126.602C164.669 123.376 161.444 119.747 156.605 119.545C151.363 119.344 146.323 122.973 146.323 129.424L146.524 133.456L99.5484 132.852V129.223C99.3468 123.577 95.1129 119.747 90.0726 119.545C85.0323 119.344 81 122.973 79.9919 127.408C79.7903 128.819 79.7903 130.029 79.9919 131.642H79.7903C79.7903 131.642 75.7581 131.239 71.5242 129.223C71.5242 129.223 70.3145 126.803 69.5081 124.585C68.7016 122.166 69.1048 120.755 70.1129 119.747Z" fill="#F93D14"/>
<path d="M98.1371 124.585C98.7419 124.585 99.1452 124.585 99.1452 124.585L146.323 125.19H146.927C146.524 126.4 146.121 127.811 146.121 129.223V133.255L99.1452 132.65C99.1452 132.65 99.1452 132.65 98.9436 132.65V129.021C99.1452 127.408 98.7419 125.997 98.1371 124.585Z" fill="#AD202B"/>
<path d="M165.677 128.013C165.677 127.61 165.274 126.198 164.871 125.392C170.113 124.989 173.137 124.182 175.355 122.973C177.573 121.965 176.161 122.973 176.161 122.771H176.363C176.363 123.174 178.581 120.755 178.379 121.158C178.177 121.36 178.177 121.36 177.976 121.561C176.968 122.771 175.355 124.182 174.952 124.182L176.766 127.61C176.766 127.61 177.371 128.416 178.581 127.206V127.811C178.581 127.811 178.177 128.618 177.573 129.424C177.169 130.029 176.565 130.432 175.758 130.835C173.54 131.844 171.121 132.448 165.476 133.053H165.073C165.476 131.44 166.081 130.231 165.677 128.013Z" fill="#AD202B"/>
<path d="M71.3226 129.021C71.3226 129.021 70.1129 126.602 69.3065 124.384C68.5 122.166 69.1048 120.755 69.9113 119.747C69.9113 119.747 69.7097 118.94 69.7097 117.731C70.5161 119.948 72.129 121.36 74.1452 122.166C77.1694 123.174 79.5887 123.376 79.5887 123.376H79.7903C79.9919 123.376 81.2016 123.577 81.4032 123.577C80.7984 124.585 79.9919 125.795 79.7903 127.61C79.5887 128.819 79.5887 130.432 79.7903 131.44H79.5887C79.5887 131.44 75.5565 131.037 71.3226 129.021Z" fill="#AD202B"/>
<path d="M143.702 111.077C143.702 111.077 107.411 110.473 89.4677 107.448C89.4677 107.448 105.798 98.779 117.895 99.3839C130.194 99.9887 134.629 103.819 143.702 111.077Z" fill="#FFF7F7"/>
<path d="M142.895 107.448C141.887 106.642 133.621 101.198 128.177 98.7791C137.855 101.803 149.952 108.255 149.952 108.255C149.952 108.255 150.153 108.255 150.556 108.255C150.153 108.255 149.548 108.456 148.54 108.658C146.927 109.465 144.105 108.255 142.895 107.448Z" fill="#1C1C1A"/>
<path d="M83.2177 105.231C83.621 105.231 84.0242 105.029 84.629 104.827C87.0484 104.021 97.7339 100.392 102.371 99.1823C98.7419 100.392 90.4758 103.416 86.0403 106.037L83.2177 105.231Z" fill="#1C1C1A"/>
<path d="M76.9677 111.682C81.4032 112.489 78.379 113.295 77.9758 113.497C77.5726 113.497 76.5645 114.303 76.5645 114.303C76.5645 114.303 73.9435 114.505 72.3306 114.303C71.3226 114.102 70.7177 113.9 70.5161 113.497C70.9194 112.489 71.7258 110.674 72.129 109.666C72.7339 110.473 73.7419 111.077 76.9677 111.682Z" fill="#FFF7F7"/>
<path d="M155.798 137.287C160.252 137.287 163.863 133.767 163.863 129.424C163.863 125.082 160.252 121.561 155.798 121.561C151.344 121.561 147.734 125.082 147.734 129.424C147.734 133.767 151.344 137.287 155.798 137.287Z" fill="#1C1C1A"/>
<path d="M155.798 135.674C159.25 135.674 162.048 132.876 162.048 129.424C162.048 125.972 159.25 123.174 155.798 123.174C152.347 123.174 149.548 125.972 149.548 129.424C149.548 132.876 152.347 135.674 155.798 135.674Z" fill="#FFF7F7"/>
<path d="M155.798 131.44C156.912 131.44 157.815 130.538 157.815 129.424C157.815 128.311 156.912 127.408 155.798 127.408C154.685 127.408 153.782 128.311 153.782 129.424C153.782 130.538 154.685 131.44 155.798 131.44Z" fill="#1C1C1A"/>
<path opacity="0.1" d="M163.863 129.424C163.863 130.231 163.661 130.835 163.661 131.44C162.653 128.013 159.629 125.594 156 125.594C152.371 125.594 149.145 128.013 148.339 131.44C148.137 130.835 148.137 130.029 148.137 129.424C148.137 124.989 151.766 121.561 156.202 121.561C160.234 121.561 163.863 125.19 163.863 129.424Z" fill="black"/>
<path d="M89.2661 137.287C93.72 137.287 97.3306 133.767 97.3306 129.424C97.3306 125.082 93.72 121.561 89.2661 121.561C84.8122 121.561 81.2016 125.082 81.2016 129.424C81.2016 133.767 84.8122 137.287 89.2661 137.287Z" fill="#1C1C1A"/>
<path d="M89.2661 135.674C92.7179 135.674 95.5161 132.876 95.5161 129.424C95.5161 125.972 92.7179 123.174 89.2661 123.174C85.8143 123.174 83.0161 125.972 83.0161 129.424C83.0161 132.876 85.8143 135.674 89.2661 135.674Z" fill="#FFF7F7"/>
<path d="M89.2661 131.44C90.3796 131.44 91.2823 130.538 91.2823 129.424C91.2823 128.311 90.3796 127.408 89.2661 127.408C88.1527 127.408 87.25 128.311 87.25 129.424C87.25 130.538 88.1527 131.44 89.2661 131.44Z" fill="#1C1C1A"/>
<path opacity="0.1" d="M97.3306 129.424C97.3306 130.231 97.129 130.835 97.129 131.44C96.121 128.013 93.0968 125.594 89.4677 125.594C85.8387 125.594 82.6129 128.215 81.6048 131.642C81.4032 131.037 81.4032 130.231 81.4032 129.626C81.4032 125.19 85.0323 121.763 89.4677 121.763C93.7016 121.561 97.3306 125.19 97.3306 129.424Z" fill="black"/>
<path d="M168.298 113.698C168.298 113.698 165.677 112.892 166.484 114.706C167.29 116.521 170.718 119.948 172.734 119.948C175.153 119.948 176.363 119.747 175.96 118.739C175.556 116.924 171.726 114.505 168.298 113.698Z" fill="#FFF7F7"/>
<path d="M178.379 121.158V127.811C178.379 127.811 178.379 127.811 178.379 128.013L177.169 128.819C176.968 129.021 176.565 129.021 176.363 128.618L173.944 124.989C173.54 124.586 173.742 123.779 174.347 123.577L178.379 121.158Z" fill="#AD202B"/>
<path d="M140.476 106.44H139.065C138.661 106.44 138.056 106.642 138.056 107.247C138.056 107.65 138.056 109.061 138.056 109.061C138.056 109.666 138.258 110.069 138.661 110.069L141.282 110.271L141.685 111.481L143.097 111.682C143.097 111.682 142.895 108.86 141.282 107.045C141.081 106.642 140.879 106.44 140.476 106.44Z" fill="#AD202B"/>
<path opacity="0.1" d="M140.476 106.44H139.065C138.661 106.44 138.056 106.642 138.056 107.247C138.056 107.65 138.056 109.061 138.056 109.061C138.056 109.666 138.258 110.069 138.661 110.069L141.282 110.271L141.685 111.481H143.097C143.097 111.481 142.895 108.658 141.484 107.045C141.081 106.642 140.879 106.44 140.476 106.44Z" fill="#AD202B"/>
<path d="M139.871 82.4483L141.484 77.6096L154.387 81.8435L152.573 86.8838C152.169 87.8919 151.161 88.4967 150.153 88.0935L141.081 85.0693C140.073 84.6661 139.468 83.4564 139.871 82.4483Z" fill="#F93D14"/>
<path d="M175.96 80.6339L191.887 86.0775C192.895 86.4807 193.298 87.4888 193.097 88.2952L191.484 93.1339C191.081 94.142 190.073 94.5452 189.266 94.3436L173.137 88.9L175.96 80.6339Z" fill="#1C1C1A"/>
<path d="M119.105 87.0855L119.911 84.8677C120.315 83.4564 121.927 82.8516 123.137 83.2548L165.274 97.3677C166.685 97.771 167.29 99.3839 166.887 100.594L166.282 103.013C165.879 104.424 164.266 105.029 163.056 104.626L120.919 90.5129C119.508 89.9081 118.702 88.4968 119.105 87.0855Z" fill="#1C1C1A"/>
<path d="M134.831 82.8516L125.96 83.8596L162.653 96.3596L156.202 90.1096L134.831 82.8516Z" fill="#F93D14"/>
<path d="M185.839 94.7467L165.879 87.8919C163.46 87.0854 162.048 84.2628 162.855 81.8435L163.661 79.4241C164.468 77.0048 167.29 75.5935 169.71 76.3999L189.669 83.2548L185.839 94.7467Z" fill="#1C1C1A"/>
<path d="M168.298 88.9L139.468 79.2226C136.847 78.4161 135.435 75.3919 136.242 72.771L137.855 68.1339C138.661 65.5129 141.685 64.1016 144.306 64.9081L171.726 74.1822C172.532 74.3839 173.137 75.3919 172.734 76.4L168.298 88.9Z" fill="#F93D14"/>
<path d="M92.8952 97.5693L93.9032 97.9726L96.121 98.9806C96.5242 99.1822 97.129 99.5855 97.5323 99.9887C97.7339 100.19 97.9355 100.594 98.1371 100.795L99.9516 103.819C100.153 104.021 100.556 104.021 100.556 103.819L101.766 100.997C101.968 100.392 102.371 99.9887 102.573 99.5855C102.976 99.1822 103.379 98.779 103.984 98.3758L104.79 97.9726L106.605 96.7629C106.806 96.5613 106.806 96.158 106.605 96.158L103.581 94.7468C102.573 94.3435 101.766 93.5371 101.161 92.7306L99.3468 89.908C99.1452 89.7064 98.7419 89.7064 98.7419 89.908L97.3307 93.1339C96.9274 93.9403 96.3226 94.7468 95.5161 95.15L92.8952 96.9645C92.6936 97.1661 92.6936 97.5693 92.8952 97.5693Z" fill="#FFF8F9" stroke="#1D1C1A" stroke-width="0.25" stroke-miterlimit="10"/>
<path d="M87.4516 85.4725L89.4677 86.4806C90.0726 86.6822 90.4758 87.0854 90.6774 87.4887L91.4839 88.6983L91.8871 89.3032C91.8871 89.5048 92.2903 89.5048 92.2903 89.3032V89.1016L93.0968 87.4887C93.0968 87.2871 93.2984 87.2871 93.2984 87.0854C93.7016 86.4806 94.1048 86.0774 94.5081 85.6742L96.121 84.6661C96.3226 84.6661 96.3226 84.2629 96.121 84.2629L94.3065 83.4564C93.7016 83.2548 93.0968 82.65 92.8952 82.2467L91.8871 80.4322C91.8871 80.2306 91.4839 80.2306 91.4839 80.4322L90.4758 82.4483C90.2742 83.0532 89.871 83.4564 89.2661 83.658L87.8548 84.4645L87.25 84.8677C87.25 85.0693 87.25 85.2709 87.4516 85.4725Z" fill="#FFF8F9" stroke="#1D1C1A" stroke-width="0.25" stroke-miterlimit="10"/>
<path d="M156.202 110.674L158.218 111.682C158.823 111.884 159.226 112.287 159.427 112.69L160.234 113.9L160.637 114.505C160.637 114.706 161.04 114.706 161.04 114.505V114.303L161.847 112.69C161.847 112.489 162.048 112.489 162.048 112.287C162.452 111.682 162.855 111.279 163.258 110.876L164.871 109.868C165.073 109.868 165.073 109.465 164.871 109.465L163.056 108.658C162.452 108.456 161.847 107.852 161.645 107.448L160.637 105.634C160.637 105.432 160.234 105.432 160.234 105.634L159.226 107.65C159.024 108.255 158.621 108.658 158.016 108.86L156.605 109.666L156 110.069C156 110.271 156 110.473 156.202 110.674Z" fill="#FFF8F9" stroke="#1D1C1A" stroke-width="0.25" stroke-miterlimit="10"/>
</g>
<defs>
<filter id="filter0_d_329_796" x="0" y="0" width="262" height="262" filterUnits="userSpaceOnUse" color-interpolation-filters="sRGB">
<feFlood flood-opacity="0" result="BackgroundImageFix"/>
<feColorMatrix in="SourceAlpha" type="matrix" values="0 0 0 0 0 0 0 0 0 0 0 0 0 0 0 0 0 0 127 0" result="hardAlpha"/>
<feOffset/>
<feGaussianBlur stdDeviation="8"/>
<feComposite in2="hardAlpha" operator="out"/>
<feColorMatrix type="matrix" values="0 0 0 0 0.0980392 0 0 0 0 0.0941176 0 0 0 0 0.360784 0 0 0 0.08 0"/>
<feBlend mode="normal" in2="BackgroundImageFix" result="effect1_dropShadow_329_796"/>
<feBlend mode="normal" in="SourceGraphic" in2="effect1_dropShadow_329_796" result="shape"/>
</filter>
<clipPath id="clip0_329_796">
<rect width="125" height="125" fill="white" transform="translate(68.5 38.4967)"/>
</clipPath>
</defs>
</svg>
