<svg width="262" height="262" viewBox="0 0 262 262" fill="none" xmlns="http://www.w3.org/2000/svg">
<g filter="url(#filter0_d_329_802)">
<rect x="16" y="16" width="230" height="230" rx="20" fill="white"/>
</g>
<path d="M84.5359 171.842V185.742H82.2559V171.842H84.5359ZM93.0893 174.542C93.956 174.542 94.7293 174.722 95.4093 175.082C96.1026 175.442 96.6426 175.976 97.0293 176.682C97.416 177.389 97.6093 178.242 97.6093 179.242V185.742H95.3493V179.582C95.3493 178.596 95.1026 177.842 94.6093 177.322C94.116 176.789 93.4426 176.522 92.5893 176.522C91.736 176.522 91.056 176.789 90.5493 177.322C90.056 177.842 89.8093 178.596 89.8093 179.582V185.742H87.5293V174.722H89.8093V175.982C90.1826 175.529 90.656 175.176 91.2293 174.922C91.816 174.669 92.436 174.542 93.0893 174.542ZM104.518 185.922C103.651 185.922 102.871 185.769 102.178 185.462C101.498 185.142 100.958 184.716 100.558 184.182C100.158 183.636 99.9442 183.029 99.9176 182.362H102.278C102.318 182.829 102.538 183.222 102.938 183.542C103.351 183.849 103.864 184.002 104.478 184.002C105.118 184.002 105.611 183.882 105.958 183.642C106.318 183.389 106.498 183.069 106.498 182.682C106.498 182.269 106.298 181.962 105.898 181.762C105.511 181.562 104.891 181.342 104.038 181.102C103.211 180.876 102.538 180.656 102.018 180.442C101.498 180.229 101.044 179.902 100.658 179.462C100.284 179.022 100.098 178.442 100.098 177.722C100.098 177.136 100.271 176.602 100.618 176.122C100.964 175.629 101.458 175.242 102.098 174.962C102.751 174.682 103.498 174.542 104.338 174.542C105.591 174.542 106.598 174.862 107.358 175.502C108.131 176.129 108.544 176.989 108.598 178.082H106.318C106.278 177.589 106.078 177.196 105.718 176.902C105.358 176.609 104.871 176.462 104.258 176.462C103.658 176.462 103.198 176.576 102.878 176.802C102.558 177.029 102.398 177.329 102.398 177.702C102.398 177.996 102.504 178.242 102.718 178.442C102.931 178.642 103.191 178.802 103.498 178.922C103.804 179.029 104.258 179.169 104.858 179.342C105.658 179.556 106.311 179.776 106.818 180.002C107.338 180.216 107.784 180.536 108.158 180.962C108.531 181.389 108.724 181.956 108.738 182.662C108.738 183.289 108.564 183.849 108.218 184.342C107.871 184.836 107.378 185.222 106.738 185.502C106.111 185.782 105.371 185.922 104.518 185.922ZM121.181 174.722V185.742H118.901V184.442C118.541 184.896 118.068 185.256 117.481 185.522C116.908 185.776 116.295 185.902 115.641 185.902C114.775 185.902 113.995 185.722 113.301 185.362C112.621 185.002 112.081 184.469 111.681 183.762C111.295 183.056 111.101 182.202 111.101 181.202V174.722H113.361V180.862C113.361 181.849 113.608 182.609 114.101 183.142C114.595 183.662 115.268 183.922 116.121 183.922C116.975 183.922 117.648 183.662 118.141 183.142C118.648 182.609 118.901 181.849 118.901 180.862V174.722H121.181ZM126.469 176.322C126.803 175.762 127.243 175.329 127.789 175.022C128.349 174.702 129.009 174.542 129.769 174.542V176.902H129.189C128.296 176.902 127.616 177.129 127.149 177.582C126.696 178.036 126.469 178.822 126.469 179.942V185.742H124.189V174.722H126.469V176.322ZM131.105 180.182C131.105 179.076 131.332 178.096 131.785 177.242C132.252 176.389 132.879 175.729 133.665 175.262C134.465 174.782 135.345 174.542 136.305 174.542C137.172 174.542 137.925 174.716 138.565 175.062C139.219 175.396 139.739 175.816 140.125 176.322V174.722H142.425V185.742H140.125V184.102C139.739 184.622 139.212 185.056 138.545 185.402C137.879 185.749 137.119 185.922 136.265 185.922C135.319 185.922 134.452 185.682 133.665 185.202C132.879 184.709 132.252 184.029 131.785 183.162C131.332 182.282 131.105 181.289 131.105 180.182ZM140.125 180.222C140.125 179.462 139.965 178.802 139.645 178.242C139.339 177.682 138.932 177.256 138.425 176.962C137.919 176.669 137.372 176.522 136.785 176.522C136.199 176.522 135.652 176.669 135.145 176.962C134.639 177.242 134.225 177.662 133.905 178.222C133.599 178.769 133.445 179.422 133.445 180.182C133.445 180.942 133.599 181.609 133.905 182.182C134.225 182.756 134.639 183.196 135.145 183.502C135.665 183.796 136.212 183.942 136.785 183.942C137.372 183.942 137.919 183.796 138.425 183.502C138.932 183.209 139.339 182.782 139.645 182.222C139.965 181.649 140.125 180.982 140.125 180.222ZM150.98 174.542C151.847 174.542 152.62 174.722 153.3 175.082C153.993 175.442 154.533 175.976 154.92 176.682C155.307 177.389 155.5 178.242 155.5 179.242V185.742H153.24V179.582C153.24 178.596 152.993 177.842 152.5 177.322C152.007 176.789 151.333 176.522 150.48 176.522C149.627 176.522 148.947 176.789 148.44 177.322C147.947 177.842 147.7 178.596 147.7 179.582V185.742H145.42V174.722H147.7V175.982C148.073 175.529 148.547 175.176 149.12 174.922C149.707 174.669 150.327 174.542 150.98 174.542ZM157.648 180.222C157.648 179.089 157.875 178.096 158.328 177.242C158.795 176.376 159.435 175.709 160.248 175.242C161.062 174.776 161.995 174.542 163.048 174.542C164.382 174.542 165.482 174.862 166.348 175.502C167.228 176.129 167.822 177.029 168.128 178.202H165.668C165.468 177.656 165.148 177.229 164.708 176.922C164.268 176.616 163.715 176.462 163.048 176.462C162.115 176.462 161.368 176.796 160.808 177.462C160.262 178.116 159.988 179.036 159.988 180.222C159.988 181.409 160.262 182.336 160.808 183.002C161.368 183.669 162.115 184.002 163.048 184.002C164.368 184.002 165.242 183.422 165.668 182.262H168.128C167.808 183.382 167.208 184.276 166.328 184.942C165.448 185.596 164.355 185.922 163.048 185.922C161.995 185.922 161.062 185.689 160.248 185.222C159.435 184.742 158.795 184.076 158.328 183.222C157.875 182.356 157.648 181.356 157.648 180.222ZM180.5 179.962C180.5 180.376 180.474 180.749 180.42 181.082H172C172.067 181.962 172.394 182.669 172.98 183.202C173.567 183.736 174.287 184.002 175.14 184.002C176.367 184.002 177.234 183.489 177.74 182.462H180.2C179.867 183.476 179.26 184.309 178.38 184.962C177.514 185.602 176.434 185.922 175.14 185.922C174.087 185.922 173.14 185.689 172.3 185.222C171.474 184.742 170.82 184.076 170.34 183.222C169.874 182.356 169.64 181.356 169.64 180.222C169.64 179.089 169.867 178.096 170.32 177.242C170.787 176.376 171.434 175.709 172.26 175.242C173.1 174.776 174.06 174.542 175.14 174.542C176.18 174.542 177.107 174.769 177.92 175.222C178.734 175.676 179.367 176.316 179.82 177.142C180.274 177.956 180.5 178.896 180.5 179.962ZM178.12 179.242C178.107 178.402 177.807 177.729 177.22 177.222C176.634 176.716 175.907 176.462 175.04 176.462C174.254 176.462 173.58 176.716 173.02 177.222C172.46 177.716 172.127 178.389 172.02 179.242H178.12ZM96.2224 208.762C96.2224 207.402 96.5358 206.182 97.1624 205.102C97.8024 204.022 98.6624 203.182 99.7424 202.582C100.836 201.969 102.029 201.662 103.322 201.662C104.802 201.662 106.116 202.029 107.262 202.762C108.422 203.482 109.262 204.509 109.782 205.842H107.042C106.682 205.109 106.182 204.562 105.542 204.202C104.902 203.842 104.162 203.662 103.322 203.662C102.402 203.662 101.582 203.869 100.862 204.282C100.142 204.696 99.5758 205.289 99.1624 206.062C98.7624 206.836 98.5624 207.736 98.5624 208.762C98.5624 209.789 98.7624 210.689 99.1624 211.462C99.5758 212.236 100.142 212.836 100.862 213.262C101.582 213.676 102.402 213.882 103.322 213.882C104.162 213.882 104.902 213.702 105.542 213.342C106.182 212.982 106.682 212.436 107.042 211.702H109.782C109.262 213.036 108.422 214.062 107.262 214.782C106.116 215.502 104.802 215.862 103.322 215.862C102.016 215.862 100.822 215.562 99.7424 214.962C98.6624 214.349 97.8024 213.502 97.1624 212.422C96.5358 211.342 96.2224 210.122 96.2224 208.762ZM114.731 200.942V215.742H112.451V200.942H114.731ZM116.965 210.182C116.965 209.076 117.191 208.096 117.645 207.242C118.111 206.389 118.738 205.729 119.525 205.262C120.325 204.782 121.205 204.542 122.165 204.542C123.031 204.542 123.785 204.716 124.425 205.062C125.078 205.396 125.598 205.816 125.985 206.322V204.722H128.285V215.742H125.985V214.102C125.598 214.622 125.071 215.056 124.405 215.402C123.738 215.749 122.978 215.922 122.125 215.922C121.178 215.922 120.311 215.682 119.525 215.202C118.738 214.709 118.111 214.029 117.645 213.162C117.191 212.282 116.965 211.289 116.965 210.182ZM125.985 210.222C125.985 209.462 125.825 208.802 125.505 208.242C125.198 207.682 124.791 207.256 124.285 206.962C123.778 206.669 123.231 206.522 122.645 206.522C122.058 206.522 121.511 206.669 121.005 206.962C120.498 207.242 120.085 207.662 119.765 208.222C119.458 208.769 119.305 209.422 119.305 210.182C119.305 210.942 119.458 211.609 119.765 212.182C120.085 212.756 120.498 213.196 121.005 213.502C121.525 213.796 122.071 213.942 122.645 213.942C123.231 213.942 123.778 213.796 124.285 213.502C124.791 213.209 125.198 212.782 125.505 212.222C125.825 211.649 125.985 210.982 125.985 210.222ZM132.439 203.262C132.026 203.262 131.679 203.122 131.399 202.842C131.119 202.562 130.979 202.216 130.979 201.802C130.979 201.389 131.119 201.042 131.399 200.762C131.679 200.482 132.026 200.342 132.439 200.342C132.839 200.342 133.179 200.482 133.459 200.762C133.739 201.042 133.879 201.389 133.879 201.802C133.879 202.216 133.739 202.562 133.459 202.842C133.179 203.122 132.839 203.262 132.439 203.262ZM133.559 204.722V215.742H131.279V204.722H133.559ZM149.893 204.542C150.759 204.542 151.533 204.722 152.213 205.082C152.906 205.442 153.446 205.976 153.833 206.682C154.233 207.389 154.433 208.242 154.433 209.242V215.742H152.173V209.582C152.173 208.596 151.926 207.842 151.433 207.322C150.939 206.789 150.266 206.522 149.413 206.522C148.559 206.522 147.879 206.789 147.373 207.322C146.879 207.842 146.633 208.596 146.633 209.582V215.742H144.373V209.582C144.373 208.596 144.126 207.842 143.633 207.322C143.139 206.789 142.466 206.522 141.613 206.522C140.759 206.522 140.079 206.789 139.573 207.322C139.079 207.842 138.833 208.596 138.833 209.582V215.742H136.553V204.722H138.833V205.982C139.206 205.529 139.679 205.176 140.253 204.922C140.826 204.669 141.439 204.542 142.093 204.542C142.973 204.542 143.759 204.729 144.453 205.102C145.146 205.476 145.679 206.016 146.053 206.722C146.386 206.056 146.906 205.529 147.613 205.142C148.319 204.742 149.079 204.542 149.893 204.542ZM161.334 215.922C160.467 215.922 159.687 215.769 158.994 215.462C158.314 215.142 157.774 214.716 157.374 214.182C156.974 213.636 156.761 213.029 156.734 212.362H159.094C159.134 212.829 159.354 213.222 159.754 213.542C160.167 213.849 160.681 214.002 161.294 214.002C161.934 214.002 162.427 213.882 162.774 213.642C163.134 213.389 163.314 213.069 163.314 212.682C163.314 212.269 163.114 211.962 162.714 211.762C162.327 211.562 161.707 211.342 160.854 211.102C160.027 210.876 159.354 210.656 158.834 210.442C158.314 210.229 157.861 209.902 157.474 209.462C157.101 209.022 156.914 208.442 156.914 207.722C156.914 207.136 157.087 206.602 157.434 206.122C157.781 205.629 158.274 205.242 158.914 204.962C159.567 204.682 160.314 204.542 161.154 204.542C162.407 204.542 163.414 204.862 164.174 205.502C164.947 206.129 165.361 206.989 165.414 208.082H163.134C163.094 207.589 162.894 207.196 162.534 206.902C162.174 206.609 161.687 206.462 161.074 206.462C160.474 206.462 160.014 206.576 159.694 206.802C159.374 207.029 159.214 207.329 159.214 207.702C159.214 207.996 159.321 208.242 159.534 208.442C159.747 208.642 160.007 208.802 160.314 208.922C160.621 209.029 161.074 209.169 161.674 209.342C162.474 209.556 163.127 209.776 163.634 210.002C164.154 210.216 164.601 210.536 164.974 210.962C165.347 211.389 165.541 211.956 165.554 212.662C165.554 213.289 165.381 213.849 165.034 214.342C164.687 214.836 164.194 215.222 163.554 215.502C162.927 215.782 162.187 215.922 161.334 215.922Z" fill="#282830"/>
<path d="M158 98.7897V83.5478C140.798 84.201 131.871 73.9672 131 73.0962C130.129 74.1849 121.202 84.4188 104 83.5478V98.7897C104 98.7897 101.605 130.362 130.782 138.637H131H131.218C160.395 130.362 158 98.7897 158 98.7897Z" fill="#F93D14" stroke="#1D1C1A" stroke-width="0.5" stroke-miterlimit="10"/>
<path d="M142.976 97.4834L141.016 95.5237L136.661 99.8785L127.081 109.459L122.944 105.322L122.073 104.451L118.153 108.37L127.081 117.298L144.936 99.443L142.976 97.4834Z" fill="white"/>
<defs>
<filter id="filter0_d_329_802" x="0" y="0" width="262" height="262" filterUnits="userSpaceOnUse" color-interpolation-filters="sRGB">
<feFlood flood-opacity="0" result="BackgroundImageFix"/>
<feColorMatrix in="SourceAlpha" type="matrix" values="0 0 0 0 0 0 0 0 0 0 0 0 0 0 0 0 0 0 127 0" result="hardAlpha"/>
<feOffset/>
<feGaussianBlur stdDeviation="8"/>
<feComposite in2="hardAlpha" operator="out"/>
<feColorMatrix type="matrix" values="0 0 0 0 0.0980392 0 0 0 0 0.0941176 0 0 0 0 0.360784 0 0 0 0.08 0"/>
<feBlend mode="normal" in2="BackgroundImageFix" result="effect1_dropShadow_329_802"/>
<feBlend mode="normal" in="SourceGraphic" in2="effect1_dropShadow_329_802" result="shape"/>
</filter>
</defs>
</svg>
