<svg width="263" height="262" viewBox="0 0 263 262" fill="none" xmlns="http://www.w3.org/2000/svg">
<g filter="url(#filter0_d_329_797)">
<rect x="16.5" y="16" width="230" height="230" rx="20" fill="white"/>
</g>
<path d="M81.4979 178.284C81.4979 176.924 81.8112 175.704 82.4379 174.624C83.0779 173.544 83.9379 172.704 85.0179 172.104C86.1112 171.491 87.3045 171.184 88.5979 171.184C90.0779 171.184 91.3912 171.551 92.5379 172.284C93.6979 173.004 94.5379 174.031 95.0579 175.364H92.3179C91.9579 174.631 91.4579 174.084 90.8179 173.724C90.1779 173.364 89.4379 173.184 88.5979 173.184C87.6779 173.184 86.8579 173.391 86.1379 173.804C85.4179 174.217 84.8512 174.811 84.4379 175.584C84.0379 176.357 83.8379 177.257 83.8379 178.284C83.8379 179.311 84.0379 180.211 84.4379 180.984C84.8512 181.757 85.4179 182.357 86.1379 182.784C86.8579 183.197 87.6779 183.404 88.5979 183.404C89.4379 183.404 90.1779 183.224 90.8179 182.864C91.4579 182.504 91.9579 181.957 92.3179 181.224H95.0579C94.5379 182.557 93.6979 183.584 92.5379 184.304C91.3912 185.024 90.0779 185.384 88.5979 185.384C87.2912 185.384 86.0979 185.084 85.0179 184.484C83.9379 183.871 83.0779 183.024 82.4379 181.944C81.8112 180.864 81.4979 179.644 81.4979 178.284ZM96.9666 179.704C96.9666 178.597 97.1933 177.617 97.6466 176.764C98.1133 175.911 98.74 175.251 99.5266 174.784C100.327 174.304 101.207 174.064 102.167 174.064C103.033 174.064 103.787 174.237 104.427 174.584C105.08 174.917 105.6 175.337 105.987 175.844V174.244H108.287V185.264H105.987V183.624C105.6 184.144 105.073 184.577 104.407 184.924C103.74 185.271 102.98 185.444 102.127 185.444C101.18 185.444 100.313 185.204 99.5266 184.724C98.74 184.231 98.1133 183.551 97.6466 182.684C97.1933 181.804 96.9666 180.811 96.9666 179.704ZM105.987 179.744C105.987 178.984 105.827 178.324 105.507 177.764C105.2 177.204 104.793 176.777 104.287 176.484C103.78 176.191 103.233 176.044 102.647 176.044C102.06 176.044 101.513 176.191 101.007 176.484C100.5 176.764 100.087 177.184 99.7666 177.744C99.46 178.291 99.3066 178.944 99.3066 179.704C99.3066 180.464 99.46 181.131 99.7666 181.704C100.087 182.277 100.5 182.717 101.007 183.024C101.527 183.317 102.073 183.464 102.647 183.464C103.233 183.464 103.78 183.317 104.287 183.024C104.793 182.731 105.2 182.304 105.507 181.744C105.827 181.171 105.987 180.504 105.987 179.744ZM113.561 175.844C113.895 175.284 114.335 174.851 114.881 174.544C115.441 174.224 116.101 174.064 116.861 174.064V176.424H116.281C115.388 176.424 114.708 176.651 114.241 177.104C113.788 177.557 113.561 178.344 113.561 179.464V185.264H111.281V174.244H113.561V175.844ZM128.732 185.404C127.799 185.404 126.959 185.244 126.212 184.924C125.466 184.591 124.879 184.124 124.452 183.524C124.026 182.924 123.812 182.224 123.812 181.424H126.252C126.306 182.024 126.539 182.517 126.952 182.904C127.379 183.291 127.972 183.484 128.732 183.484C129.519 183.484 130.132 183.297 130.572 182.924C131.012 182.537 131.232 182.044 131.232 181.444C131.232 180.977 131.092 180.597 130.812 180.304C130.546 180.011 130.206 179.784 129.792 179.624C129.392 179.464 128.832 179.291 128.112 179.104C127.206 178.864 126.466 178.624 125.892 178.384C125.332 178.131 124.852 177.744 124.452 177.224C124.052 176.704 123.852 176.011 123.852 175.144C123.852 174.344 124.052 173.644 124.452 173.044C124.852 172.444 125.412 171.984 126.132 171.664C126.852 171.344 127.686 171.184 128.632 171.184C129.979 171.184 131.079 171.524 131.932 172.204C132.799 172.871 133.279 173.791 133.372 174.964H130.852C130.812 174.457 130.572 174.024 130.132 173.664C129.692 173.304 129.112 173.124 128.392 173.124C127.739 173.124 127.206 173.291 126.792 173.624C126.379 173.957 126.172 174.437 126.172 175.064C126.172 175.491 126.299 175.844 126.552 176.124C126.819 176.391 127.152 176.604 127.552 176.764C127.952 176.924 128.499 177.097 129.192 177.284C130.112 177.537 130.859 177.791 131.432 178.044C132.019 178.297 132.512 178.691 132.912 179.224C133.326 179.744 133.532 180.444 133.532 181.324C133.532 182.031 133.339 182.697 132.952 183.324C132.579 183.951 132.026 184.457 131.292 184.844C130.572 185.217 129.719 185.404 128.732 185.404ZM138.503 175.864C138.889 175.357 139.416 174.931 140.083 174.584C140.749 174.237 141.503 174.064 142.343 174.064C143.303 174.064 144.176 174.304 144.963 174.784C145.763 175.251 146.389 175.911 146.843 176.764C147.296 177.617 147.523 178.597 147.523 179.704C147.523 180.811 147.296 181.804 146.843 182.684C146.389 183.551 145.763 184.231 144.963 184.724C144.176 185.204 143.303 185.444 142.343 185.444C141.503 185.444 140.756 185.277 140.103 184.944C139.449 184.597 138.916 184.171 138.503 183.664V190.504H136.223V174.244H138.503V175.864ZM145.203 179.704C145.203 178.944 145.043 178.291 144.723 177.744C144.416 177.184 144.003 176.764 143.483 176.484C142.976 176.191 142.429 176.044 141.843 176.044C141.269 176.044 140.723 176.191 140.203 176.484C139.696 176.777 139.283 177.204 138.963 177.764C138.656 178.324 138.503 178.984 138.503 179.744C138.503 180.504 138.656 181.171 138.963 181.744C139.283 182.304 139.696 182.731 140.203 183.024C140.723 183.317 141.269 183.464 141.843 183.464C142.429 183.464 142.976 183.317 143.483 183.024C144.003 182.717 144.416 182.277 144.723 181.704C145.043 181.131 145.203 180.464 145.203 179.704ZM149.017 179.704C149.017 178.597 149.244 177.617 149.697 176.764C150.164 175.911 150.791 175.251 151.577 174.784C152.377 174.304 153.257 174.064 154.217 174.064C155.084 174.064 155.837 174.237 156.477 174.584C157.131 174.917 157.651 175.337 158.037 175.844V174.244H160.337V185.264H158.037V183.624C157.651 184.144 157.124 184.577 156.457 184.924C155.791 185.271 155.031 185.444 154.177 185.444C153.231 185.444 152.364 185.204 151.577 184.724C150.791 184.231 150.164 183.551 149.697 182.684C149.244 181.804 149.017 180.811 149.017 179.704ZM158.037 179.744C158.037 178.984 157.877 178.324 157.557 177.764C157.251 177.204 156.844 176.777 156.337 176.484C155.831 176.191 155.284 176.044 154.697 176.044C154.111 176.044 153.564 176.191 153.057 176.484C152.551 176.764 152.137 177.184 151.817 177.744C151.511 178.291 151.357 178.944 151.357 179.704C151.357 180.464 151.511 181.131 151.817 181.704C152.137 182.277 152.551 182.717 153.057 183.024C153.577 183.317 154.124 183.464 154.697 183.464C155.284 183.464 155.831 183.317 156.337 183.024C156.844 182.731 157.251 182.304 157.557 181.744C157.877 181.171 158.037 180.504 158.037 179.744ZM179.267 185.264L177.547 183.544C176.881 184.211 176.154 184.711 175.367 185.044C174.581 185.364 173.701 185.524 172.727 185.524C171.741 185.524 170.867 185.351 170.107 185.004C169.347 184.657 168.761 184.164 168.347 183.524C167.934 182.871 167.727 182.117 167.727 181.264C167.727 180.304 168.001 179.451 168.547 178.704C169.094 177.944 169.907 177.344 170.987 176.904C170.601 176.437 170.327 176.004 170.167 175.604C170.007 175.191 169.927 174.737 169.927 174.244C169.927 173.631 170.081 173.084 170.387 172.604C170.707 172.124 171.161 171.744 171.747 171.464C172.334 171.184 173.014 171.044 173.787 171.044C174.574 171.044 175.241 171.197 175.787 171.504C176.347 171.797 176.761 172.204 177.027 172.724C177.307 173.244 177.421 173.824 177.367 174.464H175.087C175.101 173.971 174.981 173.591 174.727 173.324C174.474 173.044 174.127 172.904 173.687 172.904C173.247 172.904 172.887 173.037 172.607 173.304C172.341 173.557 172.207 173.871 172.207 174.244C172.207 174.604 172.307 174.964 172.507 175.324C172.721 175.671 173.087 176.124 173.607 176.684L177.287 180.344L178.707 178.004H181.167L179.367 181.084L178.867 181.904L182.247 185.264H179.267ZM172.727 183.584C173.981 183.584 175.087 183.071 176.047 182.044L172.367 178.344C170.794 178.971 170.007 179.917 170.007 181.184C170.007 181.864 170.261 182.437 170.767 182.904C171.274 183.357 171.927 183.584 172.727 183.584ZM86.5174 208.284C86.5174 206.924 86.8307 205.704 87.4574 204.624C88.0974 203.544 88.9574 202.704 90.0374 202.104C91.1307 201.491 92.3241 201.184 93.6174 201.184C95.0974 201.184 96.4107 201.551 97.5574 202.284C98.7174 203.004 99.5574 204.031 100.077 205.364H97.3374C96.9774 204.631 96.4774 204.084 95.8374 203.724C95.1974 203.364 94.4574 203.184 93.6174 203.184C92.6974 203.184 91.8774 203.391 91.1574 203.804C90.4374 204.217 89.8707 204.811 89.4574 205.584C89.0574 206.357 88.8574 207.257 88.8574 208.284C88.8574 209.311 89.0574 210.211 89.4574 210.984C89.8707 211.757 90.4374 212.357 91.1574 212.784C91.8774 213.197 92.6974 213.404 93.6174 213.404C94.4574 213.404 95.1974 213.224 95.8374 212.864C96.4774 212.504 96.9774 211.957 97.3374 211.224H100.077C99.5574 212.557 98.7174 213.584 97.5574 214.304C96.4107 215.024 95.0974 215.384 93.6174 215.384C92.3107 215.384 91.1174 215.084 90.0374 214.484C88.9574 213.871 88.0974 213.024 87.4574 211.944C86.8307 210.864 86.5174 209.644 86.5174 208.284ZM105.026 200.464V215.264H102.746V200.464H105.026ZM118.12 209.484C118.12 209.897 118.093 210.271 118.04 210.604H109.62C109.686 211.484 110.013 212.191 110.6 212.724C111.186 213.257 111.906 213.524 112.76 213.524C113.986 213.524 114.853 213.011 115.36 211.984H117.82C117.486 212.997 116.88 213.831 116 214.484C115.133 215.124 114.053 215.444 112.76 215.444C111.706 215.444 110.76 215.211 109.92 214.744C109.093 214.264 108.44 213.597 107.96 212.744C107.493 211.877 107.26 210.877 107.26 209.744C107.26 208.611 107.486 207.617 107.94 206.764C108.406 205.897 109.053 205.231 109.88 204.764C110.72 204.297 111.68 204.064 112.76 204.064C113.8 204.064 114.726 204.291 115.54 204.744C116.353 205.197 116.986 205.837 117.44 206.664C117.893 207.477 118.12 208.417 118.12 209.484ZM115.74 208.764C115.726 207.924 115.426 207.251 114.84 206.744C114.253 206.237 113.526 205.984 112.66 205.984C111.873 205.984 111.2 206.237 110.64 206.744C110.08 207.237 109.746 207.911 109.64 208.764H115.74ZM119.603 209.704C119.603 208.597 119.83 207.617 120.283 206.764C120.75 205.911 121.377 205.251 122.163 204.784C122.963 204.304 123.843 204.064 124.803 204.064C125.67 204.064 126.423 204.237 127.063 204.584C127.717 204.917 128.237 205.337 128.623 205.844V204.244H130.923V215.264H128.623V213.624C128.237 214.144 127.71 214.577 127.043 214.924C126.377 215.271 125.617 215.444 124.763 215.444C123.817 215.444 122.95 215.204 122.163 214.724C121.377 214.231 120.75 213.551 120.283 212.684C119.83 211.804 119.603 210.811 119.603 209.704ZM128.623 209.744C128.623 208.984 128.463 208.324 128.143 207.764C127.837 207.204 127.43 206.777 126.923 206.484C126.417 206.191 125.87 206.044 125.283 206.044C124.697 206.044 124.15 206.191 123.643 206.484C123.137 206.764 122.723 207.184 122.403 207.744C122.097 208.291 121.943 208.944 121.943 209.704C121.943 210.464 122.097 211.131 122.403 211.704C122.723 212.277 123.137 212.717 123.643 213.024C124.163 213.317 124.71 213.464 125.283 213.464C125.87 213.464 126.417 213.317 126.923 213.024C127.43 212.731 127.837 212.304 128.143 211.744C128.463 211.171 128.623 210.504 128.623 209.744ZM139.478 204.064C140.345 204.064 141.118 204.244 141.798 204.604C142.491 204.964 143.031 205.497 143.418 206.204C143.805 206.911 143.998 207.764 143.998 208.764V215.264H141.738V209.104C141.738 208.117 141.491 207.364 140.998 206.844C140.505 206.311 139.831 206.044 138.978 206.044C138.125 206.044 137.445 206.311 136.938 206.844C136.445 207.364 136.198 208.117 136.198 209.104V215.264H133.918V204.244H136.198V205.504C136.571 205.051 137.045 204.697 137.618 204.444C138.205 204.191 138.825 204.064 139.478 204.064ZM148.066 202.784C147.653 202.784 147.306 202.644 147.026 202.364C146.746 202.084 146.606 201.737 146.606 201.324C146.606 200.911 146.746 200.564 147.026 200.284C147.306 200.004 147.653 199.864 148.066 199.864C148.466 199.864 148.806 200.004 149.086 200.284C149.366 200.564 149.506 200.911 149.506 201.324C149.506 201.737 149.366 202.084 149.086 202.364C148.806 202.644 148.466 202.784 148.066 202.784ZM149.186 204.244V215.264H146.906V204.244H149.186ZM157.74 204.064C158.606 204.064 159.38 204.244 160.06 204.604C160.753 204.964 161.293 205.497 161.68 206.204C162.066 206.911 162.26 207.764 162.26 208.764V215.264H160V209.104C160 208.117 159.753 207.364 159.26 206.844C158.766 206.311 158.093 206.044 157.24 206.044C156.386 206.044 155.706 206.311 155.2 206.844C154.706 207.364 154.46 208.117 154.46 209.104V215.264H152.18V204.244H154.46V205.504C154.833 205.051 155.306 204.697 155.88 204.444C156.466 204.191 157.086 204.064 157.74 204.064ZM169.608 204.064C170.461 204.064 171.215 204.237 171.868 204.584C172.535 204.917 173.055 205.337 173.428 205.844V204.244H175.728V215.444C175.728 216.457 175.515 217.357 175.088 218.144C174.661 218.944 174.041 219.571 173.228 220.024C172.428 220.477 171.468 220.704 170.348 220.704C168.855 220.704 167.615 220.351 166.628 219.644C165.641 218.951 165.081 218.004 164.948 216.804H167.208C167.381 217.377 167.748 217.837 168.308 218.184C168.881 218.544 169.561 218.724 170.348 218.724C171.268 218.724 172.008 218.444 172.568 217.884C173.141 217.324 173.428 216.511 173.428 215.444V213.604C173.041 214.124 172.515 214.564 171.848 214.924C171.195 215.271 170.448 215.444 169.608 215.444C168.648 215.444 167.768 215.204 166.968 214.724C166.181 214.231 165.555 213.551 165.088 212.684C164.635 211.804 164.408 210.811 164.408 209.704C164.408 208.597 164.635 207.617 165.088 206.764C165.555 205.911 166.181 205.251 166.968 204.784C167.768 204.304 168.648 204.064 169.608 204.064ZM173.428 209.744C173.428 208.984 173.268 208.324 172.948 207.764C172.641 207.204 172.235 206.777 171.728 206.484C171.221 206.191 170.675 206.044 170.088 206.044C169.501 206.044 168.955 206.191 168.448 206.484C167.941 206.764 167.528 207.184 167.208 207.744C166.901 208.291 166.748 208.944 166.748 209.704C166.748 210.464 166.901 211.131 167.208 211.704C167.528 212.277 167.941 212.717 168.448 213.024C168.968 213.317 169.515 213.464 170.088 213.464C170.675 213.464 171.221 213.317 171.728 213.024C172.235 212.731 172.641 212.304 172.948 211.744C173.268 211.171 173.428 210.504 173.428 209.744Z" fill="#282830"/>
<g clip-path="url(#clip0_329_797)">
<path d="M110.389 71.2483C110.389 71.2483 88.3772 84.3417 79.6483 111.288C79.6483 111.288 89.2311 88.3266 109.915 77.6052L110.389 71.2483Z" fill="black"/>
<path d="M149.575 120.111C148.531 120.586 128.891 130.169 126.993 111.572C125.096 92.8809 114.469 89.9396 110.105 82.7287C108.112 79.4079 108.207 75.7076 109.725 72.3868L107.353 77.795C105.835 81.1158 105.74 84.8161 107.733 88.1369C112.002 95.3477 122.724 98.3839 124.621 116.98C126.519 135.672 146.159 125.994 147.203 125.519C147.772 125.14 154.793 121.25 157.26 115.557L159.632 110.149C157.26 115.747 150.239 119.732 149.575 120.111Z" fill="black"/>
<path d="M120.067 62.5193C127.468 58.6293 137.335 59.2934 140.751 66.5992C144.261 74.1895 140.751 84.6263 155.172 96.676C169.594 108.726 150.523 119.542 149.575 120.111C148.531 120.586 128.891 130.169 126.993 111.572C125.096 92.8808 114.469 89.9396 110.105 82.7287C105.93 75.8025 111.053 67.2633 118.454 63.3732C118.739 63.2784 118.928 63.0886 119.213 62.9937C119.498 62.804 119.782 62.7091 120.067 62.5193Z" fill="#F93D14"/>
<path d="M138.189 124.096C133.16 124.096 126.993 121.914 125.95 111.667C124.716 98.9531 119.308 93.8296 114.564 89.3703C112.477 87.3778 110.579 85.5751 109.251 83.298C107.543 80.4516 107.163 77.2257 108.112 73.9049C109.44 69.3506 113.141 64.9862 117.98 62.4244C118.264 62.2347 118.549 62.1398 118.834 61.95C119.023 61.8551 119.308 61.6654 119.593 61.5705C122.629 59.9576 126.139 59.1036 129.365 59.1036C135.153 59.1036 139.612 61.6654 141.7 66.1247C142.838 68.4967 143.313 71.1534 143.787 73.9049C144.925 80.3567 146.159 87.6624 155.932 95.8221C160.106 99.3326 162.004 103.033 161.624 106.923C160.96 114.419 151.947 119.922 150.144 120.965C149.005 121.534 143.597 124.096 138.189 124.096ZM129.365 61.2859C126.424 61.2859 123.293 62.0449 120.541 63.563C120.257 63.6579 120.067 63.8476 119.782 63.9425C119.403 64.1323 119.213 64.2271 118.928 64.322C114.564 66.5991 111.243 70.4892 110.105 74.4742C109.346 77.2257 109.63 79.8823 111.053 82.1594C112.287 84.1519 113.995 85.8597 116.082 87.8522C120.826 92.4064 126.709 98.0043 128.132 111.477C128.796 118.498 132.212 122.009 138.284 122.009C143.218 122.009 148.246 119.637 149.195 119.162C150.144 118.593 158.968 113.47 159.537 106.828C159.822 103.697 158.114 100.566 154.603 97.5299C144.166 88.801 142.743 80.7362 141.7 74.2844C141.225 71.5329 140.846 69.1609 139.802 66.9787C138.094 63.3732 134.299 61.2859 129.365 61.2859Z" fill="black"/>
<path d="M119.972 76.7512C119.972 76.8461 120.067 76.941 120.067 77.0359C120.257 78.3642 118.834 77.3205 118.169 78.5539C118.075 78.5539 117.98 78.4591 117.885 78.4591C117.505 78.2693 117.221 77.8898 117.031 77.5103C116.651 76.6564 117.031 75.6127 117.885 75.328C117.98 75.328 118.075 75.2332 118.169 75.2332C118.264 75.328 119.593 75.8973 119.782 76.182C119.782 76.182 119.782 76.2768 119.972 76.7512Z" fill="black"/>
<path d="M122.724 69.7301C122.629 69.7301 122.534 69.7301 122.534 69.7301C121.68 69.5404 122.629 68.9711 122.059 68.3069C122.059 68.212 122.154 68.212 122.154 68.1172C122.344 67.9274 122.629 67.8325 122.913 67.8325C123.483 67.8325 123.957 68.212 124.052 68.7813C124.052 68.8762 124.052 68.8762 124.052 68.9711C123.957 68.9711 123.388 69.6352 123.198 69.7301C123.008 69.6352 123.008 69.6352 122.724 69.7301Z" fill="black"/>
<path d="M126.139 76.8462C126.044 76.8462 126.044 76.8462 125.95 76.8462C125.096 76.6564 126.044 76.0872 125.475 75.423C125.475 75.3281 125.57 75.3281 125.57 75.2332C125.76 75.0435 126.044 74.9486 126.329 74.9486C126.898 74.9486 127.373 75.3281 127.468 75.8974C127.468 75.9923 127.468 75.9923 127.468 76.0872C127.373 76.0872 126.803 76.7513 126.614 76.8462C126.519 76.8462 126.424 76.8462 126.139 76.8462Z" fill="black"/>
<path d="M112.761 77.7949C112.666 77.7949 112.572 77.7949 112.572 77.7949C111.718 77.6052 112.666 77.0359 112.097 76.3717C112.097 76.2769 112.192 76.2769 112.192 76.182C112.382 75.9922 112.666 75.8973 112.951 75.8973C113.52 75.8973 113.995 76.2769 114.09 76.8461C114.09 76.941 114.09 76.941 114.09 77.0359C113.995 77.0359 113.425 77.7001 113.236 77.7949C113.046 77.7949 113.046 77.7949 112.761 77.7949Z" fill="black"/>
<path d="M120.162 70.4892C120.257 70.679 120.257 70.8687 120.257 71.0585C120.257 71.1534 120.257 71.1534 120.257 71.2482C120.352 71.6278 120.257 71.8175 120.067 72.0073C119.972 72.0073 119.972 72.1022 119.877 72.1022C119.403 72.1022 119.308 73.2407 118.454 72.9561C118.359 72.9561 118.264 72.9561 118.264 72.9561C117.505 72.9561 116.746 72.5766 116.462 71.8175C116.462 71.7226 116.462 71.7226 116.367 71.6278C116.367 71.5329 116.367 71.5329 116.367 71.438C117.315 70.7738 115.892 69.7302 117.031 69.825C117.126 69.7302 117.126 69.7302 117.221 69.7302C117.315 69.6353 117.505 69.5404 117.6 69.5404C117.695 69.5404 117.79 69.4455 117.79 69.4455C117.885 69.4455 117.98 69.4455 117.98 69.4455C118.739 69.2558 119.308 69.5404 119.877 70.2046C119.877 70.2994 119.972 70.2994 119.972 70.3943C120.162 70.3943 120.162 70.3943 120.162 70.4892Z" fill="black"/>
<path d="M129.84 68.9711C130.314 69.1609 129.555 70.0148 129.745 70.3943C129.46 71.0585 128.227 70.4892 127.752 70.6789C127.088 70.3943 127.657 69.1609 127.657 68.6865C127.657 68.5916 127.752 68.5916 127.752 68.4967C127.847 68.3069 128.037 68.2121 128.227 68.1172C128.511 68.0223 128.891 68.0223 129.175 68.1172C129.27 68.1172 129.27 68.2121 129.365 68.2121L129.46 68.3069C129.46 68.4018 129.555 68.4018 129.555 68.4967C129.46 68.3069 129.65 68.7813 129.745 68.6865C129.84 68.7813 129.84 68.8762 129.84 68.9711Z" fill="black"/>
<path d="M120.447 82.7287C120.921 82.9184 120.162 83.6775 120.352 84.1519C120.067 84.816 118.834 84.2467 118.359 84.4365C117.695 84.1519 118.264 82.9184 118.264 82.444C118.264 82.3491 118.359 82.3491 118.359 82.2543C118.454 82.0645 118.644 81.9696 118.834 81.8747C119.118 81.7799 119.498 81.7799 119.782 81.8747C119.877 81.8747 119.877 81.9696 119.972 81.9696L120.067 82.0645C120.067 82.1594 120.162 82.1594 120.162 82.2543C120.067 82.0645 120.257 82.5389 120.352 82.444C120.447 82.6338 120.447 82.6338 120.447 82.7287Z" fill="black"/>
<path d="M136.007 71.8175C136.007 71.9124 136.102 71.9124 136.102 72.0073C136.102 72.1021 136.102 72.1021 136.102 72.197V72.2919V72.3868C136.197 72.9561 136.007 73.2407 135.722 73.4305C135.627 73.4305 135.627 73.5253 135.532 73.5253C135.248 73.4305 134.204 74.9485 133.445 73.0509C133.445 72.9561 133.35 72.8612 133.35 72.8612C133.35 72.7663 133.35 72.7663 133.255 72.7663C133.255 72.7663 133.255 72.6714 133.16 72.6714C132.876 71.8175 133.16 71.1533 134.014 70.8687C134.109 70.8687 134.109 70.8687 134.109 70.8687C134.868 70.6789 134.868 71.5329 135.627 71.5329C135.627 71.6277 135.722 71.6277 135.722 71.7226C135.912 71.7226 136.007 71.8175 136.007 71.8175Z" fill="black"/>
<path d="M134.584 66.3144C134.678 66.5991 134.773 66.8837 134.678 67.1684C134.678 67.2632 134.678 67.2632 134.678 67.3581C134.014 67.6428 134.678 68.3069 134.014 68.5916C133.919 68.5916 133.825 68.6864 133.73 68.6864C133.255 68.4018 132.306 68.7813 131.642 68.4967C131.547 68.4967 131.547 68.4018 131.453 68.4018C131.358 68.4018 131.358 68.3069 131.263 68.3069C131.168 68.3069 131.168 68.212 131.073 68.212C130.124 67.5479 131.453 67.0735 130.978 66.2196C130.978 66.1247 130.978 66.1247 130.978 66.0298C130.978 65.9349 131.073 65.8401 131.168 65.7452C131.263 65.6503 131.263 65.6503 131.358 65.5554C131.453 65.5554 131.453 65.4605 131.547 65.4605C131.642 65.4605 131.642 65.3657 131.737 65.3657C132.117 64.7015 132.971 65.4605 133.635 65.3657C133.73 65.3657 133.73 65.4605 133.825 65.4605C134.204 65.6503 134.489 65.9349 134.584 66.3144Z" fill="black"/>
<path d="M168.645 139.562C168.645 139.562 159.537 127.512 155.457 125.614C151.472 123.717 139.043 118.119 133.73 113.28C128.322 108.441 122.439 103.318 123.767 101.23C125.096 99.048 132.876 103.887 135.627 106.069C138.284 108.251 142.079 105.025 136.481 100.661C130.788 96.3914 119.782 91.8372 120.352 88.3266C120.921 84.8161 138.094 91.5525 141.035 94.7784C141.035 94.7784 130.029 86.6188 128.132 85.7649C126.234 84.9109 124.147 82.8236 125.191 81.3055C126.139 79.7874 130.788 79.9772 143.692 88.9908C143.692 88.9908 135.058 81.8748 133.635 80.1669C132.401 78.6489 131.832 77.2257 132.781 76.3718C133.635 75.5178 138.189 76.2769 148.246 86.8085C148.246 86.8085 140.466 79.7874 142.364 77.8898C144.261 75.8974 152.8 84.5314 157.544 94.6835C162.288 104.836 160.201 104.361 161.909 106.828C163.617 109.295 181.929 122.483 181.929 122.483L168.645 139.562Z" fill="white"/>
<path d="M168.645 141.27L167.791 140.131C165.325 136.81 158.114 127.986 154.983 126.468L154.413 126.184C149.575 123.907 138.189 118.688 132.971 113.944L132.022 113.09C125.19 107.018 121.111 103.128 122.819 100.471C123.103 99.9968 123.767 99.4275 125.001 99.4275C128.227 99.4275 134.394 103.507 136.291 105.025C136.671 105.31 137.05 105.5 137.43 105.5C137.62 105.5 138.094 105.5 138.284 105.025C138.474 104.361 137.809 102.938 135.817 101.325C134.014 99.9019 131.453 98.4788 129.081 97.0556C123.578 93.8296 118.834 90.9833 119.308 87.9471C119.403 87.2829 119.972 86.0495 122.344 86.0495C124.052 86.0495 126.709 86.6188 129.46 87.5676C128.606 86.9983 127.942 86.6188 127.657 86.429C126.139 85.67 124.431 84.2468 123.957 82.6338C123.767 81.8748 123.862 81.0209 124.242 80.3567C124.621 79.7874 125.38 79.1233 126.898 79.1233C128.511 79.1233 130.599 79.7874 133.255 81.0209C132.971 80.7362 132.781 80.5465 132.686 80.3567C130.314 77.3206 131.168 75.8025 131.927 75.1383C132.212 74.9486 132.686 74.6639 133.445 74.6639C135.153 74.6639 137.715 75.8974 140.846 78.2694C140.846 77.7001 141.035 77.1308 141.415 76.7513C141.794 76.3718 142.269 76.182 142.933 76.182C146.538 76.182 154.129 84.9109 158.304 93.8296C161.245 100.092 161.624 102.464 161.909 103.887C162.004 104.741 162.099 105.12 162.668 105.879C163.807 107.587 175.477 116.221 182.498 121.25L183.352 121.914L168.645 141.27ZM125.001 101.61C124.716 101.61 124.621 101.705 124.621 101.705C123.862 102.938 130.314 108.821 133.445 111.572L134.394 112.426C139.422 116.98 150.998 122.294 155.267 124.381L155.837 124.666C159.347 126.279 166.084 134.723 168.551 137.854L180.221 122.673C176.236 119.827 162.383 109.675 160.77 107.397C160.011 106.259 159.822 105.5 159.727 104.551C159.537 103.223 159.157 101.041 156.311 95.0631C151.947 85.7649 144.831 78.6489 142.838 78.6489C142.838 78.7438 142.743 79.7874 145.685 83.0134C146.633 83.8673 147.677 84.911 148.816 86.1444L147.297 87.6625C147.203 87.5676 145.685 86.2393 144.072 84.4366C136.861 77.5103 133.825 77.2257 133.35 77.2257C133.066 77.4155 133.255 78.1745 134.204 79.5028C135.248 80.8311 141.7 86.2393 144.072 88.1369L142.743 89.8447C129.081 79.9772 126.234 81.4004 125.95 81.685C125.855 81.7799 125.855 81.9697 125.855 82.1594C126.044 82.9185 127.183 83.9622 128.416 84.6263C129.745 85.2905 134.963 88.9908 139.043 92.0269C140.181 92.6911 141.13 93.3552 141.605 93.9245L140.181 95.5375L137.715 93.7348C133.635 91.2679 125.665 88.3266 122.154 88.3266C121.3 88.3266 121.111 88.5164 121.111 88.5164C120.921 90.0345 126.139 93.0706 129.934 95.3477C132.401 96.7709 134.963 98.289 136.861 99.8071C140.656 102.653 140.371 105.025 140.087 105.879C139.422 107.777 136.671 108.441 134.773 106.923C132.306 104.741 127.088 101.61 125.001 101.61Z" fill="black"/>
<path d="M134.868 122.768C134.868 122.768 121.016 127.702 113.046 141.934C113.046 141.934 121.016 130.074 133.919 126.278L134.868 122.768Z" fill="black"/>
</g>
<defs>
<filter id="filter0_d_329_797" x="0.5" y="0" width="262" height="262" filterUnits="userSpaceOnUse" color-interpolation-filters="sRGB">
<feFlood flood-opacity="0" result="BackgroundImageFix"/>
<feColorMatrix in="SourceAlpha" type="matrix" values="0 0 0 0 0 0 0 0 0 0 0 0 0 0 0 0 0 0 127 0" result="hardAlpha"/>
<feOffset/>
<feGaussianBlur stdDeviation="8"/>
<feComposite in2="hardAlpha" operator="out"/>
<feColorMatrix type="matrix" values="0 0 0 0 0.0980392 0 0 0 0 0.0941176 0 0 0 0 0.360784 0 0 0 0.08 0"/>
<feBlend mode="normal" in2="BackgroundImageFix" result="effect1_dropShadow_329_797"/>
<feBlend mode="normal" in="SourceGraphic" in2="effect1_dropShadow_329_797" result="shape"/>
</filter>
<clipPath id="clip0_329_797">
<rect width="103.704" height="82.83" fill="white" transform="translate(79.6483 59.1036)"/>
</clipPath>
</defs>
</svg>
