<svg width="303" height="60" viewBox="0 0 303 60" fill="none" xmlns="http://www.w3.org/2000/svg">
<path d="M29.3861 0.00138678C14.6667 0.262251 3.66229 5.8146 0 8.55817C0 17.4675 1.26475 23.2366 1.89712 25.0075C3.41482 32.1696 6.73331 37.6936 8.20284 39.5603L16.5586 31.0946C14.2515 24.5597 17.5199 19.114 19.4424 17.208C25.003 10.7919 32.013 12.0593 34.8229 13.495L26.7629 21.5893L28.6115 28.2727L34.8229 29.8322L43.1786 21.5893C46.1364 28.8371 41.9462 34.9562 39.4814 37.1097C34.6898 41.8624 28.1679 41.0703 25.5059 40.0801L16.1888 49.5112C19.679 53.9668 26.4413 58.3602 29.3861 60C38.9105 55.4784 46.631 46.0148 49.3007 41.8482C57.6994 31.1528 59.2218 15.1984 58.9332 8.55817C48.1101 1.57784 34.7255 -0.0548251 29.3861 0.00138678Z" fill="white"/>
<path d="M92.9615 20.344V40H88.1735V28.212L83.7775 40H79.9135L75.4895 28.184V40H70.7015V20.344H76.3575L81.8735 33.952L87.3335 20.344H92.9615ZM111.133 31.936C111.133 32.384 111.105 32.8507 111.049 33.336H100.213C100.287 34.3067 100.595 35.0533 101.137 35.576C101.697 36.08 102.378 36.332 103.181 36.332C104.375 36.332 105.206 35.828 105.673 34.82H110.769C110.507 35.8467 110.031 36.7707 109.341 37.592C108.669 38.4133 107.819 39.0573 106.793 39.524C105.766 39.9907 104.618 40.224 103.349 40.224C101.818 40.224 100.455 39.8973 99.2606 39.244C98.066 38.5907 97.1326 37.6573 96.4606 36.444C95.7886 35.2307 95.4526 33.812 95.4526 32.188C95.4526 30.564 95.7793 29.1453 96.4326 27.932C97.1046 26.7187 98.038 25.7853 99.2326 25.132C100.427 24.4787 101.799 24.152 103.349 24.152C104.861 24.152 106.205 24.4693 107.381 25.104C108.557 25.7387 109.471 26.644 110.125 27.82C110.797 28.996 111.133 30.368 111.133 31.936ZM106.233 30.676C106.233 29.8547 105.953 29.2013 105.393 28.716C104.833 28.2307 104.133 27.988 103.293 27.988C102.49 27.988 101.809 28.2213 101.249 28.688C100.707 29.1547 100.371 29.8173 100.241 30.676H106.233ZM112.707 32.188C112.707 30.564 113.033 29.1453 113.687 27.932C114.359 26.7187 115.283 25.7853 116.459 25.132C117.653 24.4787 119.016 24.152 120.547 24.152C122.507 24.152 124.14 24.6653 125.447 25.692C126.772 26.7187 127.64 28.1653 128.051 30.032H122.955C122.525 28.8373 121.695 28.24 120.463 28.24C119.585 28.24 118.885 28.5853 118.363 29.276C117.84 29.948 117.579 30.9187 117.579 32.188C117.579 33.4573 117.84 34.4373 118.363 35.128C118.885 35.8 119.585 36.136 120.463 36.136C121.695 36.136 122.525 35.5387 122.955 34.344H128.051C127.64 36.1733 126.772 37.6107 125.447 38.656C124.121 39.7013 122.488 40.224 120.547 40.224C119.016 40.224 117.653 39.8973 116.459 39.244C115.283 38.5907 114.359 37.6573 113.687 36.444C113.033 35.2307 112.707 33.812 112.707 32.188ZM140.216 24.208C142.008 24.208 143.445 24.8053 144.528 26C145.61 27.176 146.152 28.8 146.152 30.872V40H141.392V31.516C141.392 30.4707 141.121 29.6587 140.58 29.08C140.038 28.5013 139.31 28.212 138.396 28.212C137.481 28.212 136.753 28.5013 136.212 29.08C135.67 29.6587 135.4 30.4707 135.4 31.516V40H130.612V19.28H135.4V26.476C135.885 25.7853 136.548 25.2347 137.388 24.824C138.228 24.4133 139.17 24.208 140.216 24.208ZM148.527 32.16C148.527 30.5547 148.826 29.1453 149.423 27.932C150.039 26.7187 150.87 25.7853 151.915 25.132C152.96 24.4787 154.127 24.152 155.415 24.152C156.516 24.152 157.478 24.376 158.299 24.824C159.139 25.272 159.783 25.86 160.231 26.588V24.376H165.019V40H160.231V37.788C159.764 38.516 159.111 39.104 158.271 39.552C157.45 40 156.488 40.224 155.387 40.224C154.118 40.224 152.96 39.8973 151.915 39.244C150.87 38.572 150.039 37.6293 149.423 36.416C148.826 35.184 148.527 33.7653 148.527 32.16ZM160.231 32.188C160.231 30.9933 159.895 30.0507 159.223 29.36C158.57 28.6693 157.767 28.324 156.815 28.324C155.863 28.324 155.051 28.6693 154.379 29.36C153.726 30.032 153.399 30.9653 153.399 32.16C153.399 33.3547 153.726 34.3067 154.379 35.016C155.051 35.7067 155.863 36.052 156.815 36.052C157.767 36.052 158.57 35.7067 159.223 35.016C159.895 34.3253 160.231 33.3827 160.231 32.188ZM178.003 24.208C179.832 24.208 181.288 24.8053 182.371 26C183.472 27.176 184.023 28.8 184.023 30.872V40H179.263V31.516C179.263 30.4707 178.992 29.6587 178.451 29.08C177.909 28.5013 177.181 28.212 176.267 28.212C175.352 28.212 174.624 28.5013 174.083 29.08C173.541 29.6587 173.271 30.4707 173.271 31.516V40H168.483V24.376H173.271V26.448C173.756 25.7573 174.409 25.216 175.231 24.824C176.052 24.4133 176.976 24.208 178.003 24.208ZM189.758 22.752C188.918 22.752 188.227 22.5093 187.686 22.024C187.163 21.52 186.902 20.904 186.902 20.176C186.902 19.4293 187.163 18.8133 187.686 18.328C188.227 17.824 188.918 17.572 189.758 17.572C190.579 17.572 191.251 17.824 191.774 18.328C192.315 18.8133 192.586 19.4293 192.586 20.176C192.586 20.904 192.315 21.52 191.774 22.024C191.251 22.5093 190.579 22.752 189.758 22.752ZM192.138 24.376V40H187.35V24.376H192.138ZM194.656 32.188C194.656 30.564 194.982 29.1453 195.636 27.932C196.308 26.7187 197.232 25.7853 198.408 25.132C199.602 24.4787 200.965 24.152 202.496 24.152C204.456 24.152 206.089 24.6653 207.396 25.692C208.721 26.7187 209.589 28.1653 210 30.032H204.904C204.474 28.8373 203.644 28.24 202.412 28.24C201.534 28.24 200.834 28.5853 200.312 29.276C199.789 29.948 199.528 30.9187 199.528 32.188C199.528 33.4573 199.789 34.4373 200.312 35.128C200.834 35.8 201.534 36.136 202.412 36.136C203.644 36.136 204.474 35.5387 204.904 34.344H210C209.589 36.1733 208.721 37.6107 207.396 38.656C206.07 39.7013 204.437 40.224 202.496 40.224C200.965 40.224 199.602 39.8973 198.408 39.244C197.232 38.5907 196.308 37.6573 195.636 36.444C194.982 35.2307 194.656 33.812 194.656 32.188ZM211.609 32.16C211.609 30.5547 211.908 29.1453 212.505 27.932C213.121 26.7187 213.952 25.7853 214.997 25.132C216.042 24.4787 217.209 24.152 218.497 24.152C219.598 24.152 220.56 24.376 221.381 24.824C222.221 25.272 222.865 25.86 223.313 26.588V24.376H228.101V40H223.313V37.788C222.846 38.516 222.193 39.104 221.353 39.552C220.532 40 219.57 40.224 218.469 40.224C217.2 40.224 216.042 39.8973 214.997 39.244C213.952 38.572 213.121 37.6293 212.505 36.416C211.908 35.184 211.609 33.7653 211.609 32.16ZM223.313 32.188C223.313 30.9933 222.977 30.0507 222.305 29.36C221.652 28.6693 220.849 28.324 219.897 28.324C218.945 28.324 218.133 28.6693 217.461 29.36C216.808 30.032 216.481 30.9653 216.481 32.16C216.481 33.3547 216.808 34.3067 217.461 35.016C218.133 35.7067 218.945 36.052 219.897 36.052C220.849 36.052 221.652 35.7067 222.305 35.016C222.977 34.3253 223.313 33.3827 223.313 32.188ZM236.353 19.28V40H231.565V19.28H236.353ZM262.78 20.344V40H257.992V31.908H250.544V40H245.756V20.344H250.544V28.044H257.992V20.344H262.78ZM281.665 24.376V40H276.877V37.872C276.391 38.5627 275.729 39.1227 274.889 39.552C274.067 39.9627 273.153 40.168 272.145 40.168C270.95 40.168 269.895 39.9067 268.981 39.384C268.066 38.8427 267.357 38.068 266.853 37.06C266.349 36.052 266.097 34.8667 266.097 33.504V24.376H270.857V32.86C270.857 33.9053 271.127 34.7173 271.669 35.296C272.21 35.8747 272.938 36.164 273.853 36.164C274.786 36.164 275.523 35.8747 276.065 35.296C276.606 34.7173 276.877 33.9053 276.877 32.86V24.376H281.665ZM289.892 26.588C290.34 25.86 290.984 25.272 291.824 24.824C292.664 24.376 293.625 24.152 294.708 24.152C295.996 24.152 297.163 24.4787 298.208 25.132C299.253 25.7853 300.075 26.7187 300.672 27.932C301.288 29.1453 301.596 30.5547 301.596 32.16C301.596 33.7653 301.288 35.184 300.672 36.416C300.075 37.6293 299.253 38.572 298.208 39.244C297.163 39.8973 295.996 40.224 294.708 40.224C293.607 40.224 292.645 40.0093 291.824 39.58C291.003 39.132 290.359 38.544 289.892 37.816V40H285.104V19.28H289.892V26.588ZM296.724 32.16C296.724 30.9653 296.388 30.032 295.716 29.36C295.063 28.6693 294.251 28.324 293.28 28.324C292.328 28.324 291.516 28.6693 290.844 29.36C290.191 30.0507 289.864 30.9933 289.864 32.188C289.864 33.3827 290.191 34.3253 290.844 35.016C291.516 35.7067 292.328 36.052 293.28 36.052C294.232 36.052 295.044 35.7067 295.716 35.016C296.388 34.3067 296.724 33.3547 296.724 32.16Z" fill="white"/>
</svg>
