<svg width="667" height="651" viewBox="0 0 667 651" fill="none" xmlns="http://www.w3.org/2000/svg">
<g opacity="0.1" clip-path="url(#clip0_55_796)">
<path d="M475.04 454.471H475.153L475.04 454.585V454.471Z" fill="#282830"/>
<path d="M457.513 454.471L457.854 454.243V454.699L457.513 454.471Z" fill="#282830"/>
<path d="M483.348 439.432L484.031 439.09V439.773L483.348 439.432Z" fill="#282830"/>
<path d="M448.522 438.52L450.002 439.432L448.522 440.343V438.52Z" fill="#282830"/>
<path d="M431.565 469.51H431.678V469.624L431.565 469.51Z" fill="#282830"/>
<path d="M474.471 423.367L476.292 424.392L474.471 425.418V423.367Z" fill="#282830"/>
<path d="M456.147 424.392L458.537 423.025V425.76L456.147 424.392Z" fill="#282830"/>
<path d="M430.313 439.432L432.361 438.292V440.571L430.313 439.432Z" fill="#282830"/>
<path d="M422.574 453.788L423.825 454.471L422.574 455.269V453.788Z" fill="#282830"/>
<path d="M501.102 439.318L501.329 439.432L501.102 439.546V439.318Z" fill="#282830"/>
<path d="M500.533 408.213L502.354 409.353L500.533 410.378V408.213Z" fill="#282830"/>
<path d="M481.982 409.353L484.714 407.758V410.834L481.982 409.353Z" fill="#282830"/>
<path d="M447.726 406.96L451.823 409.353L447.726 411.632V406.96Z" fill="#282830"/>
<path d="M428.492 409.353L433.272 406.504V412.087L428.492 409.353Z" fill="#282830"/>
<path d="M421.777 422.228L425.419 424.392L421.777 426.443V422.228Z" fill="#282830"/>
<path d="M404.137 454.471L406.3 453.218V455.724L404.137 454.471Z" fill="#282830"/>
<path d="M396.398 468.599L397.991 469.511L396.398 470.536V468.599Z" fill="#282830"/>
<path d="M405.389 484.664L405.73 484.436V484.778L405.389 484.664Z" fill="#282830"/>
<path d="M509.524 424.392L510.092 424.051V424.734L509.524 424.392Z" fill="#282830"/>
<path d="M508.272 394.2L510.662 392.832V395.567L508.272 394.2Z" fill="#282830"/>
<path d="M473.674 391.693L478.113 394.199L473.674 396.82V391.693Z" fill="#282830"/>
<path d="M454.099 394.2L459.562 391.123V397.39L454.099 394.2Z" fill="#282830"/>
<path d="M420.639 390.212L427.581 394.199L420.639 398.301V390.212Z" fill="#282830"/>
<path d="M402.657 424.392L407.096 421.772V426.899L402.657 424.392Z" fill="#282830"/>
<path d="M395.715 437.267L399.357 439.432L395.715 441.597V437.267Z" fill="#282830"/>
<path d="M377.733 469.511L380.464 468.03V471.106L377.733 469.511Z" fill="#282830"/>
<path d="M499.85 376.881L503.834 379.16L499.85 381.439V376.881Z" fill="#282830"/>
<path d="M480.275 379.16L485.51 376.198V382.122L480.275 379.16Z" fill="#282830"/>
<path d="M446.587 374.944L453.871 379.16L446.587 383.376V374.944Z" fill="#282830"/>
<path d="M426.329 379.16L434.296 374.603V383.831L426.329 379.16Z" fill="#282830"/>
<path d="M400.381 394.2L408.234 389.756V398.757L400.381 394.2Z" fill="#282830"/>
<path d="M394.69 405.479L401.291 409.353L394.69 413.113V405.479Z" fill="#282830"/>
<path d="M376.253 439.432L381.147 436.583V442.28L376.253 439.432Z" fill="#282830"/>
<path d="M369.311 451.851L373.977 454.471L369.311 457.206V451.851Z" fill="#282830"/>
<path d="M369.994 483.183L372.498 484.664L369.994 486.031V483.183Z" fill="#282830"/>
<path d="M378.985 499.703L379.782 499.248V500.159L378.985 499.703Z" fill="#282830"/>
<path d="M535.7 409.353L536.041 409.125V409.467L535.7 409.353Z" fill="#282830"/>
<path d="M526.709 393.402L528.189 394.199L526.709 395.111V393.402Z" fill="#282830"/>
<path d="M526.254 362.298L529.327 364.121L526.254 365.944V362.298Z" fill="#282830"/>
<path d="M507.02 364.121L511.232 361.728V366.513L507.02 364.121Z" fill="#282830"/>
<path d="M472.764 360.133L479.706 364.121L472.764 368.108V360.133Z" fill="#282830"/>
<path d="M452.392 364.121L460.358 359.449V368.678L452.392 364.121Z" fill="#282830"/>
<path d="M419.728 358.538L429.402 364.121L419.728 369.704V358.538Z" fill="#282830"/>
<path d="M398.788 364.121L409.03 358.196V370.045L398.788 364.121Z" fill="#282830"/>
<path d="M393.78 373.691L403.226 379.16L393.78 384.743V373.691Z" fill="#282830"/>
<path d="M374.432 409.353L382.171 404.795V413.796L374.432 409.353Z" fill="#282830"/>
<path d="M368.514 420.291L375.457 424.392L368.514 428.38V420.291Z" fill="#282830"/>
<path d="M349.167 454.471L355.654 450.825V458.231L349.167 454.471Z" fill="#282830"/>
<path d="M342.68 465.865L348.939 469.511L342.68 473.157V465.865Z" fill="#282830"/>
<path d="M350.646 484.664L354.858 482.157V487.057L350.646 484.664Z" fill="#282830"/>
<path d="M370.677 514.401L371.245 514.743L370.677 515.085V514.401Z" fill="#282830"/>
<path d="M534.676 379.16L536.497 378.135V380.185L534.676 379.16Z" fill="#282830"/>
<path d="M533.765 349.081L537.066 347.144V350.904L533.765 349.081Z" fill="#282830"/>
<path d="M499.167 345.663L505.085 349.081L499.167 352.385V345.663Z" fill="#282830"/>
<path d="M479.023 349.081L486.193 344.865V353.183L479.023 349.081Z" fill="#282830"/>
<path d="M445.905 343.612L455.351 349.081L445.905 354.436V343.612Z" fill="#282830"/>
<path d="M424.85 349.081L435.093 343.156V354.892L424.85 349.081Z" fill="#282830"/>
<path d="M393.211 342.587L404.364 349.081L393.211 355.576V342.587Z" fill="#282830"/>
<path d="M372.611 379.16L382.968 373.122V385.199L372.611 379.16Z" fill="#282830"/>
<path d="M367.604 388.617L377.391 394.2L367.604 399.896V388.617Z" fill="#282830"/>
<path d="M347.687 424.392L356.337 419.379V429.405L347.687 424.392Z" fill="#282830"/>
<path d="M341.997 434.532L350.419 439.432L341.997 444.331V434.532Z" fill="#282830"/>
<path d="M321.739 469.511L330.274 464.611V474.524L321.739 469.511Z" fill="#282830"/>
<path d="M343.476 497.425L347.46 499.704L343.476 501.982V497.425Z" fill="#282830"/>
<path d="M352.126 514.743L354.174 513.604V515.882L352.126 514.743Z" fill="#282830"/>
<path d="M552.999 378.704L553.909 379.16L552.999 379.73V378.704Z" fill="#282830"/>
<path d="M525.685 331.307L530.237 333.928L525.685 336.662V331.307Z" fill="#282830"/>
<path d="M505.996 333.928L511.8 330.624V337.346L505.996 333.928Z" fill="#282830"/>
<path d="M472.308 329.029L480.844 333.928L472.308 338.941V329.029Z" fill="#282830"/>
<path d="M451.254 333.928L460.927 328.459V339.511L451.254 333.928Z" fill="#282830"/>
<path d="M419.273 327.547L430.313 333.928L419.273 340.422V327.547Z" fill="#282830"/>
<path d="M397.991 333.928L409.372 327.32V340.65L397.991 333.928Z" fill="#282830"/>
<path d="M371.701 349.081L383.423 342.245V355.917L371.701 349.081Z" fill="#282830"/>
<path d="M367.035 357.398L378.53 364.121L367.035 370.843V357.398Z" fill="#282830"/>
<path d="M346.094 394.199L357.133 387.819V400.694L346.094 394.199Z" fill="#282830"/>
<path d="M341.2 403.086L352.012 409.353L341.2 415.505V403.086Z" fill="#282830"/>
<path d="M320.373 439.432L330.957 433.279V445.584L320.373 439.432Z" fill="#282830"/>
<path d="M315.138 448.205L326.063 454.471L315.138 460.852V448.205Z" fill="#282830"/>
<path d="M315.821 479.651L324.47 484.664L315.821 489.677V479.651Z" fill="#282830"/>
<path d="M323.332 499.703L329.478 496.171V503.235L323.332 499.703Z" fill="#282830"/>
<path d="M344.159 528.757L345.98 529.782L344.159 530.808V528.757Z" fill="#282830"/>
<path d="M353.264 544.936L353.605 544.708V545.05L353.264 544.936Z" fill="#282830"/>
<path d="M561.193 364.121L562.331 363.437V364.804L561.193 364.121Z" fill="#282830"/>
<path d="M552.544 347.714L554.82 349.081L552.544 350.334V347.714Z" fill="#282830"/>
<path d="M552.089 316.951L555.617 318.888L552.089 320.939V316.951Z" fill="#282830"/>
<path d="M532.855 318.888L537.407 316.268V321.623L532.855 318.888Z" fill="#282830"/>
<path d="M498.826 314.787L505.882 318.888L498.826 323.104V314.787Z" fill="#282830"/>
<path d="M478.113 318.888L486.648 313.989V323.788L478.113 318.888Z" fill="#282830"/>
<path d="M445.563 312.964L455.92 318.888L445.563 324.927V312.964Z" fill="#282830"/>
<path d="M424.281 318.888L435.32 312.508V325.383L424.281 318.888Z" fill="#282830"/>
<path d="M392.983 312.166L404.819 318.888L392.983 325.725V312.166Z" fill="#282830"/>
<path d="M371.587 318.888L383.537 312.052V325.838L371.587 318.888Z" fill="#282830"/>
<path d="M366.807 326.978L378.985 333.928L366.807 340.992V326.978Z" fill="#282830"/>
<path d="M345.297 364.121L357.589 357.057V371.185L345.297 364.121Z" fill="#282830"/>
<path d="M340.631 372.096L353.036 379.16L340.631 386.338V372.096Z" fill="#282830"/>
<path d="M319.007 409.353L331.64 401.947V416.645L319.007 409.353Z" fill="#282830"/>
<path d="M314.455 416.873L327.315 424.392L314.455 431.798V416.873Z" fill="#282830"/>
<path d="M292.604 454.471L305.692 446.837V462.105L292.604 454.471Z" fill="#282830"/>
<path d="M288.165 461.877L301.595 469.511L288.165 477.258V461.877Z" fill="#282830"/>
<path d="M293.969 484.664L305.009 478.284V490.931L293.969 484.664Z" fill="#282830"/>
<path d="M316.845 511.439L322.535 514.743L316.845 518.047V511.439Z" fill="#282830"/>
<path d="M325.153 529.782L328.568 527.845V531.833L325.153 529.782Z" fill="#282830"/>
<path d="M344.728 559.861L344.956 559.975L344.728 560.089V559.861Z" fill="#282830"/>
<path d="M579.175 363.893L579.63 364.121L579.175 364.349V363.893Z" fill="#282830"/>
<path d="M560.397 333.928L562.787 332.675V335.295L560.397 333.928Z" fill="#282830"/>
<path d="M559.6 303.849L563.129 301.798V305.9L559.6 303.849Z" fill="#282830"/>
<path d="M525.23 300.431L531.148 303.849L525.23 307.267V300.431Z" fill="#282830"/>
<path d="M505.199 303.849L512.142 299.861V307.95L505.199 303.849Z" fill="#282830"/>
<path d="M471.967 298.38L481.413 303.849L471.967 309.318V298.38Z" fill="#282830"/>
<path d="M450.798 303.849L461.155 297.924V309.888L450.798 303.849Z" fill="#282830"/>
<path d="M419.159 297.241L430.54 303.849L419.159 310.457V297.241Z" fill="#282830"/>
<path d="M397.877 303.849L409.486 297.127V310.571L397.877 303.849Z" fill="#282830"/>
<path d="M366.921 297.013L378.757 303.849L366.921 310.685V297.013Z" fill="#282830"/>
<path d="M345.183 333.928L357.589 326.75V341.22L345.183 333.928Z" fill="#282830"/>
<path d="M340.517 341.675L353.264 349.081L340.517 356.373V341.675Z" fill="#282830"/>
<path d="M318.438 379.16L331.868 371.413V386.908L318.438 379.16Z" fill="#282830"/>
<path d="M314.113 386.11L328.112 394.2L314.113 402.289V386.11Z" fill="#282830"/>
<path d="M291.465 424.392L306.261 415.847V432.937L291.465 424.392Z" fill="#282830"/>
<path d="M287.71 430.773L302.733 439.432L287.71 448.091V430.773Z" fill="#282830"/>
<path d="M264.948 469.51L280.426 460.624V478.511L264.948 469.51Z" fill="#282830"/>
<path d="M289.075 493.551L299.774 499.703L289.075 505.856V493.551Z" fill="#282830"/>
<path d="M296.132 514.743L303.984 510.186V519.3L296.132 514.743Z" fill="#282830"/>
<path d="M317.755 543.113L320.829 544.936L317.755 546.645V543.113Z" fill="#282830"/>
<path d="M326.519 559.975L327.883 559.177V560.773L326.519 559.975Z" fill="#282830"/>
<path d="M587.597 349.081L588.28 348.625V349.423L587.597 349.081Z" fill="#282830"/>
<path d="M578.834 333.13L580.427 333.928L578.834 334.839V333.13Z" fill="#282830"/>
<path d="M551.747 286.075L556.413 288.809L551.747 291.544V286.075Z" fill="#282830"/>
<path d="M532.058 288.809L537.863 285.391V292.227L532.058 288.809Z" fill="#282830"/>
<path d="M498.484 284.138L506.565 288.81L498.484 293.481V284.138Z" fill="#282830"/>
<path d="M477.657 288.81L486.876 283.455V294.164L477.657 288.81Z" fill="#282830"/>
<path d="M445.563 282.657L456.034 288.809L445.563 294.848V282.657Z" fill="#282830"/>
<path d="M424.281 288.81L435.32 282.429V295.19L424.281 288.81Z" fill="#282830"/>
<path d="M393.211 282.429L404.25 288.81L393.211 295.19V282.429Z" fill="#282830"/>
<path d="M372.27 288.81L383.196 282.429V295.19L372.27 288.81Z" fill="#282830"/>
<path d="M345.639 303.849L357.361 297.127V310.571L345.639 303.849Z" fill="#282830"/>
<path d="M340.745 311.824L352.922 318.888L340.745 325.952V311.824Z" fill="#282830"/>
<path d="M318.552 349.081L331.868 341.333V356.715L318.552 349.081Z" fill="#282830"/>
<path d="M314.113 356.145L327.998 364.12L314.113 372.096V356.145Z" fill="#282830"/>
<path d="M291.01 394.199L306.488 385.312V403.2L291.01 394.199Z" fill="#282830"/>
<path d="M287.255 400.01L303.415 409.353L287.255 418.582V400.01Z" fill="#282830"/>
<path d="M264.037 439.432L280.881 429.747V449.116L264.037 439.432Z" fill="#282830"/>
<path d="M260.851 444.445L278.15 454.471L260.851 464.497V444.445Z" fill="#282830"/>
<path d="M261.42 475.663L276.898 484.664L261.42 493.551V475.663Z" fill="#282830"/>
<path d="M266.769 499.703L279.515 492.298V507.109L266.769 499.703Z" fill="#282830"/>
<path d="M290.214 525.681L297.497 529.782L290.214 533.998V525.681Z" fill="#282830"/>
<path d="M298.18 544.936L302.96 542.201V547.556L298.18 544.936Z" fill="#282830"/>
<path d="M318.324 574.331L319.575 575.015L318.324 575.698V574.331Z" fill="#282830"/>
<path d="M605.351 348.967L605.579 349.081L605.351 349.195V348.967Z" fill="#282830"/>
<path d="M586.914 318.888L588.621 317.863V319.914L586.914 318.888Z" fill="#282830"/>
<path d="M578.492 302.368L581.11 303.849L578.492 305.444V302.368Z" fill="#282830"/>
<path d="M578.151 271.605L581.793 273.77L578.151 275.821V271.605Z" fill="#282830"/>
<path d="M558.917 273.77L563.47 271.036V276.391L558.917 273.77Z" fill="#282830"/>
<path d="M525.002 269.896L531.717 273.77L525.002 277.644V269.896Z" fill="#282830"/>
<path d="M504.744 273.77L512.369 269.327V278.1L504.744 273.77Z" fill="#282830"/>
<path d="M471.967 268.301L481.299 273.77L471.967 279.125V268.301Z" fill="#282830"/>
<path d="M451.14 273.77L461.041 268.073V279.467L451.14 273.77Z" fill="#282830"/>
<path d="M419.615 267.845L429.744 273.77L419.615 279.581V267.845Z" fill="#282830"/>
<path d="M398.901 273.77L408.917 267.845V279.581L398.901 273.77Z" fill="#282830"/>
<path d="M367.604 268.073L377.391 273.77L367.604 279.353V268.073Z" fill="#282830"/>
<path d="M347.232 273.77L356.564 268.301V279.125L347.232 273.77Z" fill="#282830"/>
<path d="M341.314 282.657L351.784 288.809L341.314 294.848V282.657Z" fill="#282830"/>
<path d="M319.121 318.888L331.526 311.71V326.066L319.121 318.888Z" fill="#282830"/>
<path d="M314.341 326.408L327.429 333.928L314.341 341.562V326.408Z" fill="#282830"/>
<path d="M291.579 364.121L306.261 355.575V372.552L291.579 364.121Z" fill="#282830"/>
<path d="M287.482 370.045L303.188 379.16L287.482 388.275V370.045Z" fill="#282830"/>
<path d="M263.582 409.353L281.109 399.213V419.493L263.582 409.353Z" fill="#282830"/>
<path d="M260.509 413.796L278.719 424.392L260.509 434.874V413.796Z" fill="#282830"/>
<path d="M236.723 454.471L255.502 443.647V465.295L236.723 454.471Z" fill="#282830"/>
<path d="M234.219 458.573L253.112 469.51L234.219 480.448V458.573Z" fill="#282830"/>
<path d="M237.634 484.664L255.047 474.638V494.69L237.634 484.664Z" fill="#282830"/>
<path d="M262.558 507.679L274.735 514.743L262.558 521.807V507.679Z" fill="#282830"/>
<path d="M269.159 529.782L278.377 524.427V535.137L269.159 529.782Z" fill="#282830"/>
<path d="M291.238 557.583L295.449 559.975L291.238 562.368V557.583Z" fill="#282830"/>
<path d="M299.774 575.015L302.164 573.647V576.382L299.774 575.015Z" fill="#282830"/>
<path d="M613.773 333.928L614.228 333.7V334.27L613.773 333.928Z" fill="#282830"/>
<path d="M605.01 318.319L606.148 318.888L605.01 319.572V318.319Z" fill="#282830"/>
<path d="M586.118 288.809L588.963 287.1V290.404L586.118 288.809Z" fill="#282830"/>
<path d="M585.662 258.617L589.191 256.566V260.782L585.662 258.617Z" fill="#282830"/>
<path d="M551.52 255.654L556.869 258.617L551.52 261.693V255.654Z" fill="#282830"/>
<path d="M531.831 258.617L537.976 255.085V262.263L531.831 258.617Z" fill="#282830"/>
<path d="M498.598 254.173L506.337 258.617L498.598 263.174V254.173Z" fill="#282830"/>
<path d="M478.226 258.617L486.535 253.831V263.516L478.226 258.617Z" fill="#282830"/>
<path d="M446.132 253.604L454.896 258.617L446.132 263.744V253.604Z" fill="#282830"/>
<path d="M425.647 258.617L434.637 253.49V263.858L425.647 258.617Z" fill="#282830"/>
<path d="M394.008 253.718L402.657 258.617L394.008 263.63V253.718Z" fill="#282830"/>
<path d="M373.977 258.617L382.399 253.831V263.516L373.977 258.617Z" fill="#282830"/>
<path d="M342.224 254.173L349.963 258.617L342.224 263.174V254.173Z" fill="#282830"/>
<path d="M320.487 288.809L330.843 282.885V294.734L320.487 288.809Z" fill="#282830"/>
<path d="M314.91 297.127L326.405 303.849L314.91 310.571V297.127Z" fill="#282830"/>
<path d="M292.49 333.928L305.805 326.294V341.675L292.49 333.928Z" fill="#282830"/>
<path d="M287.937 340.764L302.164 349.081L287.937 357.285V340.764Z" fill="#282830"/>
<path d="M264.265 379.16L280.767 369.59V388.731L264.265 379.16Z" fill="#282830"/>
<path d="M260.737 383.945L278.377 394.199L260.737 404.454V383.945Z" fill="#282830"/>
<path d="M236.268 424.392L255.729 413.113V435.558L236.268 424.392Z" fill="#282830"/>
<path d="M233.992 428.152L253.567 439.432L233.992 450.711V428.152Z" fill="#282830"/>
<path d="M209.978 469.511L229.781 458.117V481.018L209.978 469.511Z" fill="#282830"/>
<path d="M235.016 490.019L251.632 499.704L235.016 509.274V490.019Z" fill="#282830"/>
<path d="M239.796 514.743L253.908 506.54V522.946L239.796 514.743Z" fill="#282830"/>
<path d="M263.81 540.037L272.118 544.936L263.81 549.721V540.037Z" fill="#282830"/>
<path d="M271.435 559.975L277.239 556.557V563.279L271.435 559.975Z" fill="#282830"/>
<path d="M292.035 589.029L293.969 590.054L292.035 591.193V589.029Z" fill="#282830"/>
<path d="M301.025 605.093L301.48 604.865V605.435L301.025 605.093Z" fill="#282830"/>
<path d="M631.414 333.814L631.641 333.928L631.414 334.156V333.814Z" fill="#282830"/>
<path d="M613.204 303.849L614.569 303.051V304.646L613.204 303.849Z" fill="#282830"/>
<path d="M604.669 287.556L606.832 288.809L604.669 289.949V287.556Z" fill="#282830"/>
<path d="M578.037 241.185L582.021 243.577L578.037 245.97V241.185Z" fill="#282830"/>
<path d="M558.803 243.577L563.583 240.843V246.312L558.803 243.577Z" fill="#282830"/>
<path d="M525.116 240.045L531.375 243.577L525.116 247.223V240.045Z" fill="#282830"/>
<path d="M505.313 243.577L512.142 239.703V247.451L505.313 243.577Z" fill="#282830"/>
<path d="M472.536 239.248L480.161 243.577L472.536 248.021V239.248Z" fill="#282830"/>
<path d="M452.619 243.577L460.245 239.134V248.021L452.619 243.577Z" fill="#282830"/>
<path d="M420.411 239.248L428.037 243.577L420.411 248.021V239.248Z" fill="#282830"/>
<path d="M400.722 243.577L408.006 239.362V247.793L400.722 243.577Z" fill="#282830"/>
<path d="M368.628 239.703L375.457 243.577L368.628 247.565V239.703Z" fill="#282830"/>
<path d="M349.167 243.577L355.654 239.931V247.337L349.167 243.577Z" fill="#282830"/>
<path d="M322.422 258.617L329.933 254.287V263.06L322.422 258.617Z" fill="#282830"/>
<path d="M315.707 268.529L324.698 273.77L315.707 278.897V268.529Z" fill="#282830"/>
<path d="M293.628 303.849L305.236 297.241V310.571L293.628 303.849Z" fill="#282830"/>
<path d="M288.506 311.596L301.025 318.888L288.506 326.18V311.596Z" fill="#282830"/>
<path d="M265.517 349.081L280.198 340.536V357.512L265.517 349.081Z" fill="#282830"/>
<path d="M261.306 354.892L277.126 364.121L261.306 373.235V354.892Z" fill="#282830"/>
<path d="M237.065 394.2L255.388 383.604V404.795L237.065 394.2Z" fill="#282830"/>
<path d="M234.106 398.073L253.453 409.353L234.106 420.518V398.073Z" fill="#282830"/>
<path d="M209.75 439.432L229.895 427.81V451.053L209.75 439.432Z" fill="#282830"/>
<path d="M207.702 442.736L228.074 454.471L207.702 466.206V442.736Z" fill="#282830"/>
<path d="M208.043 473.498L227.277 484.664L208.043 495.716V473.498Z" fill="#282830"/>
<path d="M211.458 499.703L228.984 489.563V509.844L211.458 499.703Z" fill="#282830"/>
<path d="M236.268 522.376L249.128 529.782L236.268 537.188V522.376Z" fill="#282830"/>
<path d="M242.527 544.936L252.543 539.011V550.746L242.527 544.936Z" fill="#282830"/>
<path d="M264.834 571.938L270.183 575.015L264.834 578.091V571.938Z" fill="#282830"/>
<path d="M273.256 590.054L276.329 588.231V591.877L273.256 590.054Z" fill="#282830"/>
<path d="M639.836 318.888L640.29 318.66V319.116L639.836 318.888Z" fill="#282830"/>
<path d="M631.186 303.393L632.097 303.849L631.186 304.305V303.393Z" fill="#282830"/>
<path d="M612.635 273.77L614.799 272.517V274.909L612.635 273.77Z" fill="#282830"/>
<path d="M604.441 257.021L607.286 258.617L604.441 260.326V257.021Z" fill="#282830"/>
<path d="M604.441 226.829L607.4 228.538L604.441 230.247V226.829Z" fill="#282830"/>
<path d="M585.662 228.538L589.191 226.487V230.588L585.662 228.538Z" fill="#282830"/>
<path d="M551.747 225.803L556.413 228.538L551.747 231.272V225.803Z" fill="#282830"/>
<path d="M532.4 228.538L537.635 225.461V231.614L532.4 228.538Z" fill="#282830"/>
<path d="M499.167 225.006L505.199 228.538L499.167 232.07V225.006Z" fill="#282830"/>
<path d="M479.592 228.538L485.852 224.892V232.184L479.592 228.538Z" fill="#282830"/>
<path d="M446.929 224.892L453.302 228.538L446.929 232.184V224.892Z" fill="#282830"/>
<path d="M427.468 228.538L433.727 224.892V232.184L427.468 228.538Z" fill="#282830"/>
<path d="M395.032 225.12L400.836 228.538L395.032 231.956V225.12Z" fill="#282830"/>
<path d="M375.798 228.538L381.375 225.348V231.728L375.798 228.538Z" fill="#282830"/>
<path d="M343.135 225.575L348.142 228.538L343.135 231.5V225.575Z" fill="#282830"/>
<path d="M324.015 228.538L329.136 225.575V231.5L324.015 228.538Z" fill="#282830"/>
<path d="M316.617 239.931L322.877 243.577L316.617 247.223V239.931Z" fill="#282830"/>
<path d="M295.449 273.77L304.326 268.643V278.783L295.449 273.77Z" fill="#282830"/>
<path d="M289.303 282.999L299.432 288.809L289.303 294.62V282.999Z" fill="#282830"/>
<path d="M266.883 318.888L279.515 311.596V326.294L266.883 318.888Z" fill="#282830"/>
<path d="M262.103 326.066L275.76 333.928L262.103 341.903V326.066Z" fill="#282830"/>
<path d="M238.544 364.12L254.591 354.778V373.463L238.544 364.12Z" fill="#282830"/>
<path d="M234.788 369.134L252.087 379.16L234.788 389.186V369.134Z" fill="#282830"/>
<path d="M210.092 409.353L229.667 397.959V420.632L210.092 409.353Z" fill="#282830"/>
<path d="M207.702 412.657L227.96 424.392L207.702 436.014V412.657Z" fill="#282830"/>
<path d="M183.574 454.471L203.832 442.736V466.206L183.574 454.471Z" fill="#282830"/>
<path d="M181.753 458.003L201.67 469.511L181.753 481.018V458.003Z" fill="#282830"/>
<path d="M184.257 484.664L203.491 473.498V495.83L184.257 484.664Z" fill="#282830"/>
<path d="M209.068 505.4L225.228 514.743L209.068 524.086V505.4Z" fill="#282830"/>
<path d="M213.961 529.782L227.732 521.921V537.758L213.961 529.782Z" fill="#282830"/>
<path d="M237.634 554.848L246.397 559.975L237.634 564.988V554.848Z" fill="#282830"/>
<path d="M244.804 575.014L251.405 571.141V578.888L244.804 575.014Z" fill="#282830"/>
<path d="M265.858 603.84L268.135 605.093L265.858 606.461V603.84Z" fill="#282830"/>
<path d="M274.849 620.247L275.533 619.791V620.589L274.849 620.247Z" fill="#282830"/>
<path d="M657.476 318.774L657.703 318.888L657.476 319.002V318.774Z" fill="#282830"/>
<path d="M639.494 288.81L640.518 288.126V289.379L639.494 288.81Z" fill="#282830"/>
<path d="M630.958 272.859L632.552 273.77L630.958 274.682V272.859Z" fill="#282830"/>
<path d="M612.407 243.577L615.025 242.096V245.058L612.407 243.577Z" fill="#282830"/>
<path d="M612.294 213.498L615.025 211.903V214.98L612.294 213.498Z" fill="#282830"/>
<path d="M578.151 211.448L581.793 213.498L578.151 215.549V211.448Z" fill="#282830"/>
<path d="M559.372 213.498L563.356 211.22V215.777L559.372 213.498Z" fill="#282830"/>
<path d="M525.685 210.65L530.465 213.498L525.685 216.233V210.65Z" fill="#282830"/>
<path d="M506.451 213.498L511.573 210.536V216.347L506.451 213.498Z" fill="#282830"/>
<path d="M473.333 210.422L478.682 213.498L473.333 216.575V210.422Z" fill="#282830"/>
<path d="M454.213 213.498L459.448 210.422V216.461L454.213 213.498Z" fill="#282830"/>
<path d="M421.322 210.536L426.329 213.498L421.322 216.347V210.536Z" fill="#282830"/>
<path d="M402.429 213.498L407.209 210.65V216.233L402.429 213.498Z" fill="#282830"/>
<path d="M369.425 210.878L373.75 213.498L369.425 216.005V210.878Z" fill="#282830"/>
<path d="M350.76 213.498L354.858 211.106V215.891L350.76 213.498Z" fill="#282830"/>
<path d="M317.3 210.992L321.512 213.498L317.3 215.891V210.992Z" fill="#282830"/>
<path d="M297.156 243.577L303.415 239.931V247.223L297.156 243.577Z" fill="#282830"/>
<path d="M290.214 254.287L297.611 258.617L290.214 262.946V254.287Z" fill="#282830"/>
<path d="M268.59 288.809L278.605 282.999V294.62L268.59 288.809Z" fill="#282830"/>
<path d="M262.785 297.241L274.166 303.849L262.785 310.457V297.241Z" fill="#282830"/>
<path d="M240.251 333.928L253.681 326.18V341.789L240.251 333.928Z" fill="#282830"/>
<path d="M235.699 340.65L250.153 349.081L235.699 357.398V340.65Z" fill="#282830"/>
<path d="M211.685 379.16L228.87 369.248V389.072L211.685 379.16Z" fill="#282830"/>
<path d="M208.385 383.604L226.822 394.2L208.385 404.909V383.604Z" fill="#282830"/>
<path d="M183.688 424.392L203.832 412.771V436.014L183.688 424.392Z" fill="#282830"/>
<path d="M181.753 427.81L201.784 439.432L181.753 451.053V427.81Z" fill="#282830"/>
<path d="M158.081 469.511L177.542 458.345V480.79L158.081 469.511Z" fill="#282830"/>
<path d="M182.436 489.449L200.304 499.703L182.436 509.958V489.449Z" fill="#282830"/>
<path d="M186.306 514.743L202.467 505.4V524.086L186.306 514.743Z" fill="#282830"/>
<path d="M210.661 538.213L222.156 544.936L210.661 551.544V538.213Z" fill="#282830"/>
<path d="M216.807 559.975L226.367 554.506V565.444L216.807 559.975Z" fill="#282830"/>
<path d="M238.772 586.978L244.121 590.054L238.772 593.13V586.978Z" fill="#282830"/>
<path d="M247.08 605.093L250.267 603.271V607.03L247.08 605.093Z" fill="#282830"/>
<path d="M266.541 635.172L266.655 635.286L266.541 635.4V635.172Z" fill="#282830"/>
<path d="M665.898 303.849L666.353 303.621V304.077L665.898 303.849Z" fill="#282830"/>
<path d="M657.248 288.354L658.045 288.809L657.248 289.151V288.354Z" fill="#282830"/>
<path d="M639.039 258.617L640.746 257.705V259.642L639.039 258.617Z" fill="#282830"/>
<path d="M630.845 242.438L632.779 243.577L630.845 244.717V242.438Z" fill="#282830"/>
<path d="M604.555 196.864L607.286 198.459L604.555 199.94V196.864Z" fill="#282830"/>
<path d="M586.004 198.459L589.077 196.636V200.168L586.004 198.459Z" fill="#282830"/>
<path d="M552.089 196.294L555.731 198.459L552.089 200.51V196.294Z" fill="#282830"/>
<path d="M533.31 198.459L537.18 196.18V200.624L533.31 198.459Z" fill="#282830"/>
<path d="M499.736 195.952L503.948 198.459L499.736 200.852V195.952Z" fill="#282830"/>
<path d="M480.958 198.459L485.169 195.952V200.852L480.958 198.459Z" fill="#282830"/>
<path d="M447.612 195.952L451.823 198.459L447.612 200.852V195.952Z" fill="#282830"/>
<path d="M428.947 198.459L433.045 196.066V200.737L428.947 198.459Z" fill="#282830"/>
<path d="M395.715 196.18L399.471 198.459L395.715 200.624V196.18Z" fill="#282830"/>
<path d="M377.164 198.459L380.692 196.408V200.396L377.164 198.459Z" fill="#282830"/>
<path d="M343.704 196.522L347.005 198.459L343.704 200.282V196.522Z" fill="#282830"/>
<path d="M325.267 198.459L328.568 196.522V200.282L325.267 198.459Z" fill="#282830"/>
<path d="M298.408 213.498L302.846 210.878V216.005L298.408 213.498Z" fill="#282830"/>
<path d="M290.896 225.461L296.132 228.538L290.896 231.614V225.461Z" fill="#282830"/>
<path d="M270.297 258.617L277.808 254.401V262.946L270.297 258.617Z" fill="#282830"/>
<path d="M263.81 268.757L272.346 273.77L263.81 278.669V268.757Z" fill="#282830"/>
<path d="M241.845 303.849L252.884 297.469V310.229L241.845 303.849Z" fill="#282830"/>
<path d="M236.496 311.938L248.559 318.888L236.496 325.838V311.938Z" fill="#282830"/>
<path d="M213.848 349.081L227.846 340.992V357.171L213.848 349.081Z" fill="#282830"/>
<path d="M209.295 355.234L224.773 364.121L209.295 373.008V355.234Z" fill="#282830"/>
<path d="M185.054 394.199L203.149 383.831V404.681L185.054 394.199Z" fill="#282830"/>
<path d="M182.095 398.301L201.101 409.353L182.095 420.291V398.301Z" fill="#282830"/>
<path d="M158.081 439.432L177.542 428.152V450.711L158.081 439.432Z" fill="#282830"/>
<path d="M155.919 443.305L175.266 454.471L155.919 465.751V443.305Z" fill="#282830"/>
<path d="M156.26 474.182L174.47 484.664L156.26 495.146V474.182Z" fill="#282830"/>
<path d="M159.561 499.704L176.746 489.677V509.616L159.561 499.704Z" fill="#282830"/>
<path d="M183.802 521.807L197.687 529.782L183.802 537.872V521.807Z" fill="#282830"/>
<path d="M189.265 544.936L200.987 538.1V551.658L189.265 544.936Z" fill="#282830"/>
<path d="M211.913 570.457L219.652 575.014L211.913 579.458V570.457Z" fill="#282830"/>
<path d="M219.31 590.054L225.115 586.75V593.358L219.31 590.054Z" fill="#282830"/>
<path d="M239.91 618.994L241.845 620.247L239.91 621.386V618.994Z" fill="#282830"/>
<path d="M248.787 635.286L249.47 634.831V635.628L248.787 635.286Z" fill="#282830"/>
<path d="M665.67 273.77L666.467 273.2V274.226L665.67 273.77Z" fill="#282830"/>
<path d="M657.135 257.933L658.386 258.617L657.135 259.3V257.933Z" fill="#282830"/>
<path d="M638.925 228.538L640.746 227.398V229.563L638.925 228.538Z" fill="#282830"/>
<path d="M630.731 212.245L632.894 213.498L630.731 214.752V212.245Z" fill="#282830"/>
<path d="M630.845 182.28L632.779 183.305L630.845 184.445V182.28Z" fill="#282830"/>
<path d="M612.635 183.306L614.911 182.052V184.673L612.635 183.306Z" fill="#282830"/>
<path d="M578.492 181.824L581.11 183.306L578.492 184.901V181.824Z" fill="#282830"/>
<path d="M560.169 183.306L562.9 181.71V184.901L560.169 183.306Z" fill="#282830"/>
<path d="M526.254 181.596L529.213 183.305L526.254 185.128V181.596Z" fill="#282830"/>
<path d="M507.703 183.306L510.89 181.483V185.129L507.703 183.306Z" fill="#282830"/>
<path d="M474.016 181.483L477.203 183.306L474.016 185.129V181.483Z" fill="#282830"/>
<path d="M455.578 183.306L458.765 181.483V185.129L455.578 183.306Z" fill="#282830"/>
<path d="M422.005 181.596L424.964 183.305L422.005 185.128V181.596Z" fill="#282830"/>
<path d="M403.681 183.305L406.641 181.596V185.014L403.681 183.305Z" fill="#282830"/>
<path d="M369.994 181.824L372.611 183.306L369.994 184.901V181.824Z" fill="#282830"/>
<path d="M351.784 183.305L354.288 181.938V184.787L351.784 183.305Z" fill="#282830"/>
<path d="M317.755 181.71L320.601 183.306L317.755 184.901V181.71Z" fill="#282830"/>
<path d="M299.318 183.305L302.392 181.596V185.128L299.318 183.305Z" fill="#282830"/>
<path d="M291.352 196.18L295.222 198.459L291.352 200.624V196.18Z" fill="#282830"/>
<path d="M271.663 228.538L277.126 225.348V231.728L271.663 228.538Z" fill="#282830"/>
<path d="M264.493 239.931L270.866 243.577L264.493 247.223V239.931Z" fill="#282830"/>
<path d="M243.779 273.77L251.974 268.985V278.441L243.779 273.77Z" fill="#282830"/>
<path d="M237.52 283.455L246.738 288.81L237.52 294.164V283.455Z" fill="#282830"/>
<path d="M215.555 318.888L226.936 312.28V325.497L215.555 318.888Z" fill="#282830"/>
<path d="M210.319 326.864L222.725 333.928L210.319 341.106V326.864Z" fill="#282830"/>
<path d="M187.216 364.121L202.011 355.575V372.666L187.216 364.121Z" fill="#282830"/>
<path d="M183.005 369.817L199.28 379.16L183.005 388.503V369.817Z" fill="#282830"/>
<path d="M158.764 409.353L177.201 398.643V419.949L158.764 409.353Z" fill="#282830"/>
<path d="M156.032 413.455L174.925 424.392L156.032 435.33V413.455Z" fill="#282830"/>
<path d="M132.588 454.471L151.139 443.761V465.181L132.588 454.471Z" fill="#282830"/>
<path d="M130.312 459.256L148.18 469.511L130.312 479.879V459.256Z" fill="#282830"/>
<path d="M133.498 484.664L150.683 474.638V494.576L133.498 484.664Z" fill="#282830"/>
<path d="M157.398 506.084L172.307 514.743L157.398 523.402V506.084Z" fill="#282830"/>
<path d="M162.178 529.782L175.494 522.149V537.53L162.178 529.782Z" fill="#282830"/>
<path d="M185.281 554.392L194.728 559.975L185.281 565.444V554.392Z" fill="#282830"/>
<path d="M191.996 575.015L199.621 570.571V579.458L191.996 575.015Z" fill="#282830"/>
<path d="M213.165 602.929L217.035 605.093L213.165 607.372V602.929Z" fill="#282830"/>
<path d="M221.7 620.247L223.864 618.88V621.5L221.7 620.247Z" fill="#282830"/>
<path d="M665.443 243.577L666.58 242.894V244.261L665.443 243.577Z" fill="#282830"/>
<path d="M657.021 227.74L658.5 228.538L657.021 229.335V227.74Z" fill="#282830"/>
<path d="M638.925 198.459L640.746 197.32V199.484L638.925 198.459Z" fill="#282830"/>
<path d="M639.153 168.266L640.632 167.469V169.178L639.153 168.266Z" fill="#282830"/>
<path d="M604.782 167.241L606.717 168.266L604.782 169.405V167.241Z" fill="#282830"/>
<path d="M586.687 168.266L588.735 167.127V169.405L586.687 168.266Z" fill="#282830"/>
<path d="M552.658 167.127L554.592 168.266L552.658 169.405V167.127Z" fill="#282830"/>
<path d="M534.562 168.266L536.611 167.127V169.519L534.562 168.266Z" fill="#282830"/>
<path d="M500.419 167.013L502.583 168.266L500.419 169.519V167.013Z" fill="#282830"/>
<path d="M482.437 168.266L484.486 167.013V169.519L482.437 168.266Z" fill="#282830"/>
<path d="M448.295 167.013L450.458 168.266L448.295 169.519V167.013Z" fill="#282830"/>
<path d="M430.313 168.266L432.361 167.127V169.405L430.313 168.266Z" fill="#282830"/>
<path d="M396.284 167.127L398.219 168.266L396.284 169.405V167.127Z" fill="#282830"/>
<path d="M378.302 168.266L380.123 167.241V169.292L378.302 168.266Z" fill="#282830"/>
<path d="M344.159 167.241L345.98 168.266L344.159 169.292V167.241Z" fill="#282830"/>
<path d="M326.063 168.266L328.112 167.127V169.405L326.063 168.266Z" fill="#282830"/>
<path d="M291.807 166.671L294.538 168.266L291.807 169.861V166.671Z" fill="#282830"/>
<path d="M272.573 198.459L276.671 196.066V200.737L272.573 198.459Z" fill="#282830"/>
<path d="M264.948 210.65L269.842 213.498L264.948 216.347V210.65Z" fill="#282830"/>
<path d="M245.031 243.577L251.291 240.045V247.223L245.031 243.577Z" fill="#282830"/>
<path d="M238.203 254.629L245.145 258.617L238.203 262.718V254.629Z" fill="#282830"/>
<path d="M217.376 288.81L226.025 283.796V293.823L217.376 288.81Z" fill="#282830"/>
<path d="M211.23 298.266L220.904 303.849L211.23 309.432V298.266Z" fill="#282830"/>
<path d="M189.492 333.928L200.873 327.32V340.65L189.492 333.928Z" fill="#282830"/>
<path d="M184.257 341.789L196.776 349.081L184.257 356.373V341.789Z" fill="#282830"/>
<path d="M160.699 379.16L176.177 370.273V388.161L160.699 379.16Z" fill="#282830"/>
<path d="M156.715 384.515L173.559 394.199L156.715 403.884V384.515Z" fill="#282830"/>
<path d="M132.815 424.392L151.025 413.796V434.874L132.815 424.392Z" fill="#282830"/>
<path d="M130.198 428.836L148.407 439.432L130.198 450.028V428.836Z" fill="#282830"/>
<path d="M107.664 469.511L124.507 459.712V479.309L107.664 469.511Z" fill="#282830"/>
<path d="M131.222 490.93L146.359 499.703L131.222 508.362V490.93Z" fill="#282830"/>
<path d="M135.774 514.743L149.545 506.767V522.718L135.774 514.743Z" fill="#282830"/>
<path d="M158.878 538.783L169.348 544.936L158.878 550.974V538.783Z" fill="#282830"/>
<path d="M165.023 559.975L174.014 554.734V565.216L165.023 559.975Z" fill="#282830"/>
<path d="M186.533 586.75L192.224 590.054L186.533 593.358V586.75Z" fill="#282830"/>
<path d="M194.614 605.093L198.37 602.929V607.258L194.614 605.093Z" fill="#282830"/>
<path d="M214.189 634.717L215.099 635.286L214.189 635.856V634.717Z" fill="#282830"/>
<path d="M665.329 213.498L666.694 212.701V214.182L665.329 213.498Z" fill="#282830"/>
<path d="M657.021 197.547L658.5 198.459L657.021 199.256V197.547Z" fill="#282830"/>
<path d="M631.072 152.543L632.323 153.227L631.072 153.91V152.543Z" fill="#282830"/>
<path d="M613.204 153.227L614.569 152.429V154.024L613.204 153.227Z" fill="#282830"/>
<path d="M578.948 152.429L580.312 153.227L578.948 154.024V152.429Z" fill="#282830"/>
<path d="M561.08 153.227L562.444 152.429V154.024L561.08 153.227Z" fill="#282830"/>
<path d="M526.823 152.543L528.074 153.227L526.823 153.91V152.543Z" fill="#282830"/>
<path d="M509.069 153.227L510.206 152.543V153.91L509.069 153.227Z" fill="#282830"/>
<path d="M474.698 152.543L475.949 153.227L474.698 153.91V152.543Z" fill="#282830"/>
<path d="M456.944 153.227L458.082 152.543V153.91L456.944 153.227Z" fill="#282830"/>
<path d="M422.574 152.429L423.825 153.227L422.574 154.024V152.429Z" fill="#282830"/>
<path d="M404.706 153.227L406.07 152.429V154.024L404.706 153.227Z" fill="#282830"/>
<path d="M370.449 152.429L371.7 153.227L370.449 154.024V152.429Z" fill="#282830"/>
<path d="M352.581 153.227L353.946 152.429V154.024L352.581 153.227Z" fill="#282830"/>
<path d="M318.097 152.087L320.032 153.227L318.097 154.252V152.087Z" fill="#282830"/>
<path d="M299.887 153.227L302.164 151.859V154.48L299.887 153.227Z" fill="#282830"/>
<path d="M273.256 168.266L276.329 166.443V170.089L273.256 168.266Z" fill="#282830"/>
<path d="M265.403 181.255L269.045 183.305L265.403 185.47V181.255Z" fill="#282830"/>
<path d="M245.942 213.498L250.836 210.536V216.347L245.942 213.498Z" fill="#282830"/>
<path d="M238.658 225.348L244.235 228.538L238.658 231.728V225.348Z" fill="#282830"/>
<path d="M218.855 258.617L225.342 254.857V262.49L218.855 258.617Z" fill="#282830"/>
<path d="M212.14 269.668L219.197 273.77L212.14 277.758V269.668Z" fill="#282830"/>
<path d="M191.313 303.849L199.963 298.836V308.862L191.313 303.849Z" fill="#282830"/>
<path d="M185.168 313.306L194.841 318.888L185.168 324.471V313.306Z" fill="#282830"/>
<path d="M163.316 349.081L174.925 342.359V355.803L163.316 349.081Z" fill="#282830"/>
<path d="M157.967 356.487L171.055 364.12L157.967 371.64V356.487Z" fill="#282830"/>
<path d="M134.295 394.199L150.342 384.971V403.428L134.295 394.199Z" fill="#282830"/>
<path d="M130.653 399.44L147.611 409.353L130.653 419.151V399.44Z" fill="#282830"/>
<path d="M107.208 439.432L124.735 429.292V449.572L107.208 439.432Z" fill="#282830"/>
<path d="M104.477 444.559L121.662 454.471L104.477 464.384V444.559Z" fill="#282830"/>
<path d="M105.16 475.891L120.296 484.664L105.16 493.323V475.891Z" fill="#282830"/>
<path d="M109.712 499.703L123.483 491.728V507.679L109.712 499.703Z" fill="#282830"/>
<path d="M132.588 523.402L143.627 529.782L132.588 536.163V523.402Z" fill="#282830"/>
<path d="M138.733 544.936L148.066 539.467V550.291L138.733 544.936Z" fill="#282830"/>
<path d="M160.13 571.141L166.844 575.014L160.13 578.888V571.141Z" fill="#282830"/>
<path d="M167.527 590.054L172.762 587.092V593.016L167.527 590.054Z" fill="#282830"/>
<path d="M187.671 618.994L189.835 620.247L187.671 621.386V618.994Z" fill="#282830"/>
<path d="M196.549 635.286L197.345 634.717V635.742L196.549 635.286Z" fill="#282830"/>
<path d="M665.443 183.305L666.694 182.622V184.103L665.443 183.305Z" fill="#282830"/>
<path d="M657.135 167.583L658.272 168.266L657.135 168.95V167.583Z" fill="#282830"/>
<path d="M657.362 137.845L657.931 138.187L657.362 138.529V137.845Z" fill="#282830"/>
<path d="M639.722 138.187L640.405 137.731V138.529L639.722 138.187Z" fill="#282830"/>
<path d="M605.124 137.617L606.034 138.187L605.124 138.643V137.617Z" fill="#282830"/>
<path d="M587.483 138.187L588.28 137.617V138.643L587.483 138.187Z" fill="#282830"/>
<path d="M553.113 137.845L553.681 138.187L553.113 138.529V137.845Z" fill="#282830"/>
<path d="M535.472 138.187L536.156 137.845V138.529L535.472 138.187Z" fill="#282830"/>
<path d="M500.988 137.845L501.557 138.187L500.988 138.529V137.845Z" fill="#282830"/>
<path d="M483.462 138.187L484.03 137.845V138.529L483.462 138.187Z" fill="#282830"/>
<path d="M448.864 137.731L449.547 138.187L448.864 138.529V137.731Z" fill="#282830"/>
<path d="M431.109 138.187L431.906 137.731V138.643L431.109 138.187Z" fill="#282830"/>
<path d="M396.625 137.617L397.535 138.187L396.625 138.757V137.617Z" fill="#282830"/>
<path d="M378.871 138.187L379.895 137.504V138.757L378.871 138.187Z" fill="#282830"/>
<path d="M344.387 137.39L345.638 138.187L344.387 138.871V137.39Z" fill="#282830"/>
<path d="M326.291 138.187L327.998 137.162V139.099L326.291 138.187Z" fill="#282830"/>
<path d="M291.921 136.82L294.197 138.187L291.921 139.441V136.82Z" fill="#282830"/>
<path d="M273.484 138.187L276.215 136.592V139.668L273.484 138.187Z" fill="#282830"/>
<path d="M265.631 151.404L268.704 153.227L265.631 155.05V151.404Z" fill="#282830"/>
<path d="M246.511 183.306L250.608 181.027V185.698L246.511 183.306Z" fill="#282830"/>
<path d="M238.999 195.724L243.552 198.459L238.999 201.079V195.724Z" fill="#282830"/>
<path d="M219.538 228.538L225.001 225.348V231.728L219.538 228.538Z" fill="#282830"/>
<path d="M212.596 240.387L218.172 243.577L212.596 246.767V240.387Z" fill="#282830"/>
<path d="M193.02 273.77L199.166 270.124V277.302L193.02 273.77Z" fill="#282830"/>
<path d="M186.078 284.822L193.02 288.81L186.078 292.797V284.822Z" fill="#282830"/>
<path d="M165.365 318.888L173.901 313.989V323.902L165.365 318.888Z" fill="#282830"/>
<path d="M159.219 328.573L168.665 333.928L159.219 339.397V328.573Z" fill="#282830"/>
<path d="M136.799 364.121L149.09 357.057V371.185L136.799 364.121Z" fill="#282830"/>
<path d="M131.677 371.185L145.562 379.16L131.677 387.135V371.185Z" fill="#282830"/>
<path d="M108.005 409.353L124.393 399.782V418.809L108.005 409.353Z" fill="#282830"/>
<path d="M104.591 414.48L121.548 424.392L104.591 434.191V414.48Z" fill="#282830"/>
<path d="M81.715 454.471L98.445 444.901V464.156L81.715 454.471Z" fill="#282830"/>
<path d="M78.8698 460.51L94.6893 469.511L78.8698 478.625V460.51Z" fill="#282830"/>
<path d="M83.3084 484.664L97.6483 476.347V492.867L83.3084 484.664Z" fill="#282830"/>
<path d="M106.525 508.363L117.679 514.743L106.525 521.123V508.363Z" fill="#282830"/>
<path d="M112.444 529.782L122.117 524.199V535.365L112.444 529.782Z" fill="#282830"/>
<path d="M133.953 555.874L140.896 559.975L133.953 563.963V555.874Z" fill="#282830"/>
<path d="M141.123 575.015L146.928 571.71V578.319L141.123 575.015Z" fill="#282830"/>
<path d="M161.382 603.384L164.341 605.093L161.382 606.802V603.384Z" fill="#282830"/>
<path d="M169.803 620.247L171.624 619.107V621.272L169.803 620.247Z" fill="#282830"/>
<path d="M665.67 153.227L666.467 152.771V153.682L665.67 153.227Z" fill="#282830"/>
<path d="M666.125 123.034H666.239V123.148L666.125 123.034Z" fill="#282830"/>
<path d="M631.3 122.806L631.755 123.034L631.3 123.376V122.806Z" fill="#282830"/>
<path d="M613.773 123.034L614.228 122.806V123.376L613.773 123.034Z" fill="#282830"/>
<path d="M579.289 122.92L579.63 123.034L579.289 123.262V122.92Z" fill="#282830"/>
<path d="M561.876 123.034L562.104 122.92V123.262L561.876 123.034Z" fill="#282830"/>
<path d="M527.164 123.034H527.278L527.164 123.148V123.034Z" fill="#282830"/>
<path d="M509.752 123.034H509.865V123.148L509.752 123.034Z" fill="#282830"/>
<path d="M475.04 122.92L475.267 123.034L475.04 123.262V122.92Z" fill="#282830"/>
<path d="M457.513 123.034L457.854 122.92V123.262L457.513 123.034Z" fill="#282830"/>
<path d="M422.801 122.692L423.37 123.034L422.801 123.49V122.692Z" fill="#282830"/>
<path d="M405.047 123.034L405.844 122.578V123.604L405.047 123.034Z" fill="#282830"/>
<path d="M370.449 122.464L371.587 123.034L370.449 123.717V122.464Z" fill="#282830"/>
<path d="M352.695 123.034L353.946 122.35V123.832L352.695 123.034Z" fill="#282830"/>
<path d="M318.097 122.122L319.918 123.034L318.097 124.059V122.122Z" fill="#282830"/>
<path d="M299.887 123.034L302.051 121.895V124.287L299.887 123.034Z" fill="#282830"/>
<path d="M265.631 121.439L268.476 123.034L265.631 124.743V121.439Z" fill="#282830"/>
<path d="M246.966 153.227L250.381 151.29V155.164L246.966 153.227Z" fill="#282830"/>
<path d="M239.227 166.101L243.097 168.266L239.227 170.431V166.101Z" fill="#282830"/>
<path d="M219.993 198.459L224.773 195.724V201.079L219.993 198.459Z" fill="#282830"/>
<path d="M212.823 210.536L217.831 213.498L212.823 216.347V210.536Z" fill="#282830"/>
<path d="M193.817 243.577L198.711 240.729V246.426L193.817 243.577Z" fill="#282830"/>
<path d="M186.761 255.768L191.769 258.617L186.761 261.579V255.768Z" fill="#282830"/>
<path d="M167.186 288.809L172.99 285.391V292.114L167.186 288.809Z" fill="#282830"/>
<path d="M160.13 300.089L166.731 303.849L160.13 307.609V300.089Z" fill="#282830"/>
<path d="M139.416 333.928L147.724 329.143V338.827L139.416 333.928Z" fill="#282830"/>
<path d="M133.043 343.498L142.717 349.081L133.043 354.664V343.498Z" fill="#282830"/>
<path d="M110.054 379.16L123.369 371.526V386.794L110.054 379.16Z" fill="#282830"/>
<path d="M105.274 385.654L120.069 394.199L105.274 402.745V385.654Z" fill="#282830"/>
<path d="M81.715 424.392L98.445 414.708V433.963L81.715 424.392Z" fill="#282830"/>
<path d="M78.6422 429.747L95.2583 439.432L78.6422 449.116V429.747Z" fill="#282830"/>
<path d="M56.4494 469.51L71.9274 460.624V478.511L56.4494 469.51Z" fill="#282830"/>
<path d="M80.1217 492.753L92.1855 499.703L80.1217 506.653V492.753Z" fill="#282830"/>
<path d="M86.1536 514.743L96.2826 508.932V520.554L86.1536 514.743Z" fill="#282830"/>
<path d="M107.891 540.948L114.834 544.936L107.891 548.81V540.948Z" fill="#282830"/>
<path d="M115.061 559.975L120.865 556.671V563.279L115.061 559.975Z" fill="#282830"/>
<path d="M135.092 588.003L138.62 590.054L135.092 592.105V588.003Z" fill="#282830"/>
<path d="M143.4 605.093L145.79 603.84V606.461L143.4 605.093Z" fill="#282830"/>
<path d="M162.178 634.944L162.747 635.286L162.178 635.628V634.944Z" fill="#282830"/>
<path d="M605.351 107.994H605.465L605.351 108.108V107.994Z" fill="#282830"/>
<path d="M448.977 107.88L449.205 107.994L448.977 108.108V107.88Z" fill="#282830"/>
<path d="M431.337 107.994L431.792 107.767V108.222L431.337 107.994Z" fill="#282830"/>
<path d="M396.625 107.539L397.422 107.994L396.625 108.45V107.539Z" fill="#282830"/>
<path d="M378.871 107.994L379.895 107.425V108.564L378.871 107.994Z" fill="#282830"/>
<path d="M344.387 107.197L345.638 107.994L344.387 108.792V107.197Z" fill="#282830"/>
<path d="M326.291 107.994L327.998 107.083V108.906L326.291 107.994Z" fill="#282830"/>
<path d="M291.921 106.741L294.084 107.994L291.921 109.248V106.741Z" fill="#282830"/>
<path d="M273.711 107.994L276.101 106.627V109.476L273.711 107.994Z" fill="#282830"/>
<path d="M247.194 123.034L250.267 121.325V124.857L247.194 123.034Z" fill="#282830"/>
<path d="M239.455 136.136L242.756 138.187L239.455 140.124V136.136Z" fill="#282830"/>
<path d="M220.449 168.266L224.546 165.874V170.659L220.449 168.266Z" fill="#282830"/>
<path d="M213.051 180.799L217.376 183.305L213.051 185.926V180.799Z" fill="#282830"/>
<path d="M194.159 213.498L198.597 210.878V216.005L194.159 213.498Z" fill="#282830"/>
<path d="M186.989 226.031L191.314 228.538L186.989 231.044V226.031Z" fill="#282830"/>
<path d="M168.324 258.617L172.421 256.338V261.009L168.324 258.617Z" fill="#282830"/>
<path d="M160.926 271.377L165.138 273.77L160.926 276.163V271.377Z" fill="#282830"/>
<path d="M141.351 303.849L146.814 300.659V307.039L141.351 303.849Z" fill="#282830"/>
<path d="M134.181 315.242L140.554 318.888L134.181 322.648V315.242Z" fill="#282830"/>
<path d="M113.013 349.081L121.89 343.954V354.094L113.013 349.081Z" fill="#282830"/>
<path d="M106.639 357.854L117.337 364.12L106.639 370.273V357.854Z" fill="#282830"/>
<path d="M83.3084 394.2L97.6483 385.882V402.517L83.3084 394.2Z" fill="#282830"/>
<path d="M78.9836 400.238L94.5755 409.353L78.9836 418.354V400.238Z" fill="#282830"/>
<path d="M55.7665 439.432L72.2689 429.861V449.002L55.7665 439.432Z" fill="#282830"/>
<path d="M52.5799 445.015L69.0822 454.471L52.5799 464.042V445.015Z" fill="#282830"/>
<path d="M53.4903 476.688L67.2613 484.664L53.4903 492.525V476.688Z" fill="#282830"/>
<path d="M59.067 499.703L70.6755 492.981V506.426L59.067 499.703Z" fill="#282830"/>
<path d="M81.6012 525.339L89.3403 529.782L81.6012 534.226V525.339Z" fill="#282830"/>
<path d="M88.885 544.936L94.8031 541.404V548.354L88.885 544.936Z" fill="#282830"/>
<path d="M109.029 572.85L112.672 575.015L109.029 577.065V572.85Z" fill="#282830"/>
<path d="M117.224 590.054L119.727 588.573V591.535L117.224 590.054Z" fill="#282830"/>
<path d="M136.002 619.677L136.799 620.247L136.002 620.703V619.677Z" fill="#282830"/>
<path d="M144.879 635.286L145.107 635.172V635.4L144.879 635.286Z" fill="#282830"/>
<path d="M422.801 92.7271L423.256 92.9549L422.801 93.1828V92.7271Z" fill="#282830"/>
<path d="M405.161 92.9548L405.844 92.613V93.2966L405.161 92.9548Z" fill="#282830"/>
<path d="M370.563 92.3853L371.473 92.9549L370.563 93.5246V92.3853Z" fill="#282830"/>
<path d="M352.695 92.9549L353.832 92.2712V93.6385L352.695 92.9549Z" fill="#282830"/>
<path d="M318.211 92.0435L319.804 92.9549L318.211 93.8664V92.0435Z" fill="#282830"/>
<path d="M300.115 92.955L302.05 91.8157V94.0944L300.115 92.955Z" fill="#282830"/>
<path d="M265.745 91.5876L268.248 92.9549L265.745 94.3221V91.5876Z" fill="#282830"/>
<path d="M247.535 92.955L250.039 91.4739V94.4362L247.535 92.955Z" fill="#282830"/>
<path d="M239.568 106.285L242.528 107.994L239.568 109.703V106.285Z" fill="#282830"/>
<path d="M220.676 138.187L224.432 136.022V140.238L220.676 138.187Z" fill="#282830"/>
<path d="M213.165 150.948L217.148 153.227L213.165 155.505V150.948Z" fill="#282830"/>
<path d="M194.386 183.305L198.484 180.913V185.698L194.386 183.305Z" fill="#282830"/>
<path d="M187.102 196.066L191.086 198.459L187.102 200.737V196.066Z" fill="#282830"/>
<path d="M168.779 228.538L172.194 226.601V230.475L168.779 228.538Z" fill="#282830"/>
<path d="M161.268 241.754L164.455 243.577L161.268 245.4V241.754Z" fill="#282830"/>
<path d="M142.831 273.77L146.018 271.833V275.593L142.831 273.77Z" fill="#282830"/>
<path d="M135.092 286.759L138.734 288.809L135.092 290.86V286.759Z" fill="#282830"/>
<path d="M115.403 318.888L120.752 315.812V321.965L115.403 318.888Z" fill="#282830"/>
<path d="M108.005 330.168L114.606 333.928L108.005 337.802V330.168Z" fill="#282830"/>
<path d="M86.0398 364.121L96.2826 358.196V370.045L86.0398 364.121Z" fill="#282830"/>
<path d="M80.0079 371.982L92.4131 379.16L80.0079 386.338V371.982Z" fill="#282830"/>
<path d="M56.4494 409.353L71.9274 400.352V418.24L56.4494 409.353Z" fill="#282830"/>
<path d="M52.5799 414.822L69.0822 424.392L52.5799 433.849V414.822Z" fill="#282830"/>
<path d="M29.4766 454.471L46.3204 444.787V464.27L29.4766 454.471Z" fill="#282830"/>
<path d="M26.7452 460.282L42.6785 469.511L26.7452 478.853V460.282Z" fill="#282830"/>
<path d="M31.4113 484.664L45.4099 476.575V492.64L31.4113 484.664Z" fill="#282830"/>
<path d="M55.0837 509.388L64.1884 514.743L55.0837 520.098V509.388Z" fill="#282830"/>
<path d="M62.026 529.782L69.196 525.681V533.998L62.026 529.782Z" fill="#282830"/>
<path d="M82.8531 557.583L86.8369 559.975L82.8531 562.254V557.583Z" fill="#282830"/>
<path d="M90.9336 575.014L93.7788 573.305V576.61L90.9336 575.014Z" fill="#282830"/>
<path d="M109.94 604.638L110.85 605.093L109.94 605.663V604.638Z" fill="#282830"/>
<path d="M118.703 620.247L119.044 620.019V620.361L118.703 620.247Z" fill="#282830"/>
<path d="M448.977 77.8015L449.091 77.9154H448.977V77.8015Z" fill="#282830"/>
<path d="M431.451 77.9154L431.792 77.8015V78.0294L431.451 77.9154Z" fill="#282830"/>
<path d="M396.739 77.5737L397.307 77.9155L396.739 78.2573V77.5737Z" fill="#282830"/>
<path d="M378.985 77.9156L379.781 77.3459V78.3714L378.985 77.9156Z" fill="#282830"/>
<path d="M344.387 77.2319L345.638 77.9155L344.387 78.5992V77.2319Z" fill="#282830"/>
<path d="M326.405 77.9156L327.884 77.0042V78.7132L326.405 77.9156Z" fill="#282830"/>
<path d="M292.035 76.7761L293.969 77.9155L292.035 78.9409V76.7761Z" fill="#282830"/>
<path d="M273.825 77.9154L275.988 76.6621V79.1687L273.825 77.9154Z" fill="#282830"/>
<path d="M239.682 76.4343L242.186 77.9155L239.682 79.3966V76.4343Z" fill="#282830"/>
<path d="M221.018 107.994L224.205 106.171V109.931L221.018 107.994Z" fill="#282830"/>
<path d="M213.279 121.097L216.807 123.034L213.279 125.085V121.097Z" fill="#282830"/>
<path d="M194.614 153.227L198.37 151.062V155.391L194.614 153.227Z" fill="#282830"/>
<path d="M187.216 166.101L190.859 168.266L187.216 170.431V166.101Z" fill="#282830"/>
<path d="M168.779 198.459L172.194 196.522V200.282L168.779 198.459Z" fill="#282830"/>
<path d="M161.382 211.789L164.341 213.498L161.382 215.207V211.789Z" fill="#282830"/>
<path d="M143.513 243.577L145.677 242.324V244.944L143.513 243.577Z" fill="#282830"/>
<path d="M135.547 257.477L137.71 258.617L135.547 259.87V257.477Z" fill="#282830"/>
<path d="M117.11 288.809L119.841 287.214V290.291L117.11 288.809Z" fill="#282830"/>
<path d="M109.143 301.912L112.558 303.849L109.143 305.786V301.912Z" fill="#282830"/>
<path d="M88.9988 333.928L94.8031 330.624V337.346L88.9988 333.928Z" fill="#282830"/>
<path d="M81.715 344.752L89.1126 349.081L81.715 353.297V344.752Z" fill="#282830"/>
<path d="M58.7256 379.16L70.7894 372.21V386.11L58.7256 379.16Z" fill="#282830"/>
<path d="M53.3765 386.11L67.4889 394.2L53.3765 402.289V386.11Z" fill="#282830"/>
<path d="M29.4766 424.392L46.3204 414.594V434.077L29.4766 424.392Z" fill="#282830"/>
<path d="M26.2899 429.406L43.5889 439.432L26.2899 449.458V429.406Z" fill="#282830"/>
<path d="M3.64189 469.51L20.1442 459.94V479.081L3.64189 469.51Z" fill="#282830"/>
<path d="M28.1109 492.867L39.947 499.703L28.1109 506.539V492.867Z" fill="#282830"/>
<path d="M34.598 514.743L43.8166 509.388V520.098L34.598 514.743Z" fill="#282830"/>
<path d="M56.4494 541.973L61.3432 544.936L56.4494 547.784V541.973Z" fill="#282830"/>
<path d="M64.416 559.975L67.9445 557.924V562.026L64.416 559.975Z" fill="#282830"/>
<path d="M83.7636 589.256L85.0146 590.054L83.7636 590.851V589.256Z" fill="#282830"/>
<path d="M92.5269 605.093L92.9817 604.865V605.435L92.5269 605.093Z" fill="#282830"/>
<path d="M422.915 62.6482L423.256 62.8761L422.915 62.99V62.6482Z" fill="#282830"/>
<path d="M405.275 62.876L405.729 62.5342V63.1039L405.275 62.876Z" fill="#282830"/>
<path d="M370.563 62.3064L371.473 62.8761L370.563 63.3318V62.3064Z" fill="#282830"/>
<path d="M352.695 62.876L353.832 62.1924V63.4457L352.695 62.876Z" fill="#282830"/>
<path d="M318.211 61.9646L319.69 62.8761L318.211 63.6736V61.9646Z" fill="#282830"/>
<path d="M300.229 62.876L301.936 61.8506V63.7875L300.229 62.876Z" fill="#282830"/>
<path d="M265.858 61.6228L268.022 62.8761L265.858 64.0154V61.6228Z" fill="#282830"/>
<path d="M247.763 62.876L250.039 61.5088V64.1293L247.763 62.876Z" fill="#282830"/>
<path d="M221.359 77.9154L224.09 76.3203V79.3966L221.359 77.9154Z" fill="#282830"/>
<path d="M213.506 91.2458L216.466 92.9549L213.506 94.6639V91.2458Z" fill="#282830"/>
<path d="M194.728 123.034L198.256 121.097V125.085L194.728 123.034Z" fill="#282830"/>
<path d="M187.216 136.136L190.745 138.187L187.216 140.238V136.136Z" fill="#282830"/>
<path d="M168.779 168.266L172.194 166.329V170.203L168.779 168.266Z" fill="#282830"/>
<path d="M161.382 181.596L164.341 183.305L161.382 185.128V181.596Z" fill="#282830"/>
<path d="M143.4 213.498L145.79 212.131V214.752L143.4 213.498Z" fill="#282830"/>
<path d="M135.661 227.512L137.482 228.538L135.661 229.563V227.512Z" fill="#282830"/>
<path d="M118.134 258.617L119.272 257.933V259.414L118.134 258.617Z" fill="#282830"/>
<path d="M109.712 272.859L111.192 273.77L109.712 274.568V272.859Z" fill="#282830"/>
<path d="M91.0474 303.849L93.7788 302.368V305.444L91.0474 303.849Z" fill="#282830"/>
<path d="M82.8531 316.724L86.7231 318.888L82.8531 321.167V316.724Z" fill="#282830"/>
<path d="M62.1398 349.081L69.0822 344.979V353.069L62.1398 349.081Z" fill="#282830"/>
<path d="M54.9699 358.652L64.416 364.12L54.9699 369.589V358.652Z" fill="#282830"/>
<path d="M31.2975 394.199L45.4099 385.996V402.403L31.2975 394.199Z" fill="#282830"/>
<path d="M26.7452 400.01L42.6785 409.353L26.7452 418.582V400.01Z" fill="#282830"/>
<path d="M2.73141 439.432L20.5995 429.064V449.8L2.73141 439.432Z" fill="#282830"/>
<path d="M0 444.103L17.9819 454.471L0 464.839V444.103Z" fill="#282830"/>
<path d="M1.0244 475.891L15.9334 484.664L1.0244 493.323V475.891Z" fill="#282830"/>
<path d="M6.48712 499.703L18.7785 492.639V506.767L6.48712 499.703Z" fill="#282830"/>
<path d="M29.7042 525.795L36.6466 529.782L29.7042 533.77V525.795Z" fill="#282830"/>
<path d="M37.5571 544.936L42.337 542.087V547.67L37.5571 544.936Z" fill="#282830"/>
<path d="M57.4737 573.875L59.4084 575.015L57.4737 576.154V573.875Z" fill="#282830"/>
<path d="M66.1232 590.054L67.1471 589.484V590.624L66.1232 590.054Z" fill="#282830"/>
<path d="M448.977 47.7227H449.091L448.977 47.8366V47.7227Z" fill="#282830"/>
<path d="M431.451 47.7228L431.792 47.6089V47.9507L431.451 47.7228Z" fill="#282830"/>
<path d="M396.739 47.3809L397.307 47.7227L396.739 48.0645V47.3809Z" fill="#282830"/>
<path d="M379.099 47.7227L379.782 47.3809V48.1784L379.099 47.7227Z" fill="#282830"/>
<path d="M344.387 47.1531L345.524 47.7228L344.387 48.4064V47.1531Z" fill="#282830"/>
<path d="M326.519 47.7226L327.883 46.925V48.5201L326.519 47.7226Z" fill="#282830"/>
<path d="M292.035 46.6973L293.855 47.7227L292.035 48.7481V46.6973Z" fill="#282830"/>
<path d="M274.053 47.7227L275.874 46.6973V48.862L274.053 47.7227Z" fill="#282830"/>
<path d="M239.796 46.4695L241.959 47.7228L239.796 48.9761V46.4695Z" fill="#282830"/>
<path d="M221.587 47.7228L223.977 46.4695V49.09L221.587 47.7228Z" fill="#282830"/>
<path d="M213.62 61.395L216.124 62.8762L213.62 64.3573V61.395Z" fill="#282830"/>
<path d="M195.069 92.9549L198.142 91.2458V94.6639L195.069 92.9549Z" fill="#282830"/>
<path d="M187.33 106.171L190.631 107.994L187.33 109.931V106.171Z" fill="#282830"/>
<path d="M168.893 138.187L172.08 136.25V140.01L168.893 138.187Z" fill="#282830"/>
<path d="M161.268 151.404L164.455 153.227L161.268 155.05V151.404Z" fill="#282830"/>
<path d="M143.286 183.305L145.79 181.938V184.787L143.286 183.305Z" fill="#282830"/>
<path d="M135.547 197.206L137.71 198.459L135.547 199.598V197.206Z" fill="#282830"/>
<path d="M118.134 228.538L119.272 227.854V229.221L118.134 228.538Z" fill="#282830"/>
<path d="M109.94 243.235L110.737 243.577L109.94 244.033V243.235Z" fill="#282830"/>
<path d="M92.2993 273.77L93.0964 273.314V274.112L92.2993 273.77Z" fill="#282830"/>
<path d="M83.7636 288.126L84.9013 288.81L83.7636 289.493V288.126Z" fill="#282830"/>
<path d="M64.6436 318.888L67.9445 317.065V320.825L64.6436 318.888Z" fill="#282830"/>
<path d="M56.5632 331.193L61.2294 333.928L56.5632 336.776V331.193Z" fill="#282830"/>
<path d="M34.4842 364.12L43.8166 358.652V369.589L34.4842 364.12Z" fill="#282830"/>
<path d="M27.9971 372.21L40.0609 379.16L27.9971 386.224V372.21Z" fill="#282830"/>
<path d="M3.75571 409.353L20.1442 399.896V418.809L3.75571 409.353Z" fill="#282830"/>
<path d="M0 414.024L17.868 424.392L0 434.646V414.024Z" fill="#282830"/>
<path d="M2.73141 509.046L12.519 514.743L2.73141 520.44V509.046Z" fill="#282830"/>
<path d="M9.90141 529.782L17.0714 525.681V533.998L9.90141 529.782Z" fill="#282830"/>
<path d="M30.9561 558.152L34.1431 559.975L30.9561 561.798V558.152Z" fill="#282830"/>
<path d="M39.6056 575.015L41.3127 573.989V576.04L39.6056 575.015Z" fill="#282830"/>
<path d="M457.627 32.6833H457.741V32.7973L457.627 32.6833Z" fill="#282830"/>
<path d="M422.801 32.4553L423.256 32.6832L422.801 32.9111V32.4553Z" fill="#282830"/>
<path d="M405.161 32.6834L405.844 32.3416V33.0252L405.161 32.6834Z" fill="#282830"/>
<path d="M370.563 32.2275L371.473 32.6833L370.563 33.253V32.2275Z" fill="#282830"/>
<path d="M352.695 32.6832L353.832 32.1135V33.3668L352.695 32.6832Z" fill="#282830"/>
<path d="M318.211 31.8857L319.69 32.6833L318.211 33.4808V31.8857Z" fill="#282830"/>
<path d="M300.229 32.6832L301.936 31.7717V33.5947L300.229 32.6832Z" fill="#282830"/>
<path d="M265.972 31.5439L267.907 32.6833L265.972 33.8226V31.5439Z" fill="#282830"/>
<path d="M247.877 32.6833L249.925 31.5439V33.9366L247.877 32.6833Z" fill="#282830"/>
<path d="M213.734 31.3162L216.01 32.6834L213.734 34.0506V31.3162Z" fill="#282830"/>
<path d="M195.41 62.8761L197.914 61.281V64.3573L195.41 62.8761Z" fill="#282830"/>
<path d="M187.444 76.3203L190.289 77.9154L187.444 79.5105V76.3203Z" fill="#282830"/>
<path d="M169.007 107.994L172.08 106.171V109.817L169.007 107.994Z" fill="#282830"/>
<path d="M161.268 121.325L164.455 123.034L161.268 124.857V121.325Z" fill="#282830"/>
<path d="M143.172 153.227L145.903 151.632V154.822L143.172 153.227Z" fill="#282830"/>
<path d="M135.433 166.899L137.937 168.266L135.433 169.747V166.899Z" fill="#282830"/>
<path d="M117.906 198.459L119.5 197.434V199.37L117.906 198.459Z" fill="#282830"/>
<path d="M109.826 212.815L110.964 213.498L109.826 214.068V212.815Z" fill="#282830"/>
<path d="M92.7545 243.577L92.8682 243.463V243.691L92.7545 243.577Z" fill="#282830"/>
<path d="M84.105 258.617H84.2187L84.105 258.731V258.617Z" fill="#282830"/>
<path d="M66.3508 288.809L67.034 288.354V289.151L66.3508 288.809Z" fill="#282830"/>
<path d="M57.5875 302.938L59.1808 303.849L57.5875 304.76V302.938Z" fill="#282830"/>
<path d="M37.6709 333.928L42.2232 331.307V336.662L37.6709 333.928Z" fill="#282830"/>
<path d="M29.818 345.207L36.419 349.081L29.818 352.841V345.207Z" fill="#282830"/>
<path d="M6.48712 379.16L18.7785 372.096V386.338L6.48712 379.16Z" fill="#282830"/>
<path d="M1.0244 385.654L15.9334 394.199L1.0244 402.858V385.654Z" fill="#282830"/>
<path d="M4.32494 541.973L9.33275 544.936L4.32494 547.784V541.973Z" fill="#282830"/>
<path d="M12.519 559.975L15.706 558.038V561.798L12.519 559.975Z" fill="#282830"/>
<path d="M31.8666 589.712L32.435 590.054L31.8666 590.396V589.712Z" fill="#282830"/>
<path d="M448.977 17.5298L449.205 17.6437L448.977 17.7577V17.5298Z" fill="#282830"/>
<path d="M431.451 17.6439L431.792 17.416V17.8718L431.451 17.6439Z" fill="#282830"/>
<path d="M396.739 17.302L397.307 17.6438L396.739 17.9856V17.302Z" fill="#282830"/>
<path d="M378.985 17.6437L379.782 17.188V18.0995L378.985 17.6437Z" fill="#282830"/>
<path d="M344.387 16.9602L345.638 17.6438L344.387 18.3274V16.9602Z" fill="#282830"/>
<path d="M326.519 17.6437L327.883 16.8462V18.4413L326.519 17.6437Z" fill="#282830"/>
<path d="M292.148 16.7324L293.742 17.6439L292.148 18.5554V16.7324Z" fill="#282830"/>
<path d="M274.053 17.6438L275.874 16.6184V18.6692L274.053 17.6438Z" fill="#282830"/>
<path d="M239.796 16.3906L241.959 17.6439L239.796 18.8972V16.3906Z" fill="#282830"/>
<path d="M221.7 17.6438L223.977 16.2766V19.0111L221.7 17.6438Z" fill="#282830"/>
<path d="M195.524 32.6834L197.914 31.3162V34.0506L195.524 32.6834Z" fill="#282830"/>
<path d="M187.558 46.2415L190.061 47.7226L187.558 49.2038V46.2415Z" fill="#282830"/>
<path d="M169.121 77.9154L171.966 76.3203V79.5105L169.121 77.9154Z" fill="#282830"/>
<path d="M161.382 91.2458L164.341 92.9549L161.382 94.6639V91.2458Z" fill="#282830"/>
<path d="M142.944 123.034L146.018 121.325V124.857L142.944 123.034Z" fill="#282830"/>
<path d="M135.433 136.592L138.164 138.187L135.433 139.782V136.592Z" fill="#282830"/>
<path d="M117.565 168.266L119.613 167.127V169.519L117.565 168.266Z" fill="#282830"/>
<path d="M109.712 182.394L111.305 183.306L109.712 184.217V182.394Z" fill="#282830"/>
<path d="M92.4131 213.498L93.0963 213.156V213.84L92.4131 213.498Z" fill="#282830"/>
<path d="M84.105 228.424L84.3324 228.538L84.105 228.652V228.424Z" fill="#282830"/>
<path d="M39.7194 303.849L41.1989 303.051V304.646L39.7194 303.849Z" fill="#282830"/>
<path d="M31.1837 317.407L33.8013 318.888L31.1837 320.483V317.407Z" fill="#282830"/>
<path d="M10.2428 349.081L16.8438 345.207V352.955L10.2428 349.081Z" fill="#282830"/>
<path d="M2.73141 358.538L12.4052 364.121L2.73141 369.704V358.538Z" fill="#282830"/>
<path d="M5.34926 573.875L7.28499 575.015L5.34926 576.04V573.875Z" fill="#282830"/>
<path d="M14.2262 590.054L14.9094 589.598V590.51L14.2262 590.054Z" fill="#282830"/>
<path d="M457.627 2.60441L457.741 2.49048V2.60441H457.627Z" fill="#282830"/>
<path d="M422.801 2.2627L423.256 2.6045L422.801 2.83237V2.2627Z" fill="#282830"/>
<path d="M405.161 2.6045L405.844 2.2627V2.94631L405.161 2.6045Z" fill="#282830"/>
<path d="M370.563 2.03467L371.473 2.60434L370.563 3.17402V2.03467Z" fill="#282830"/>
<path d="M352.695 2.60427L353.832 1.92065V3.17394L352.695 2.60427Z" fill="#282830"/>
<path d="M318.324 1.80688L319.689 2.60443L318.324 3.40198V1.80688Z" fill="#282830"/>
<path d="M300.229 2.60427L301.936 1.57886V3.51575L300.229 2.60427Z" fill="#282830"/>
<path d="M265.972 1.46509L267.907 2.60444L265.972 3.62986V1.46509Z" fill="#282830"/>
<path d="M247.877 2.60444L249.925 1.46509V3.74379L247.877 2.60444Z" fill="#282830"/>
<path d="M213.734 1.23706L216.01 2.60428L213.734 3.85757V1.23706Z" fill="#282830"/>
<path d="M195.524 2.60445L197.914 1.12329V3.97167L195.524 2.60445Z" fill="#282830"/>
<path d="M187.558 16.1626L190.061 17.6438L187.558 19.1249V16.1626Z" fill="#282830"/>
<path d="M169.234 47.7226L171.966 46.2415V49.3177L169.234 47.7226Z" fill="#282830"/>
<path d="M161.495 61.281L164.113 62.8761L161.495 64.3573V61.281Z" fill="#282830"/>
<path d="M143.058 92.955L145.903 91.3599V94.55L143.058 92.955Z" fill="#282830"/>
<path d="M135.319 106.285L138.279 107.994L135.319 109.703V106.285Z" fill="#282830"/>
<path d="M117.224 138.187L119.727 136.706V139.668L117.224 138.187Z" fill="#282830"/>
<path d="M109.484 151.973L111.648 153.227L109.484 154.48V151.973Z" fill="#282830"/>
<path d="M91.9579 183.305L93.3226 182.622V184.103L91.9579 183.305Z" fill="#282830"/>
<path d="M83.8774 197.889L84.6741 198.459L83.8774 198.915V197.889Z" fill="#282830"/>
<path d="M31.9804 288.696L32.2078 288.809L31.9804 288.923V288.696Z" fill="#282830"/>
<path d="M12.9743 318.888L15.4781 317.407V320.37L12.9743 318.888Z" fill="#282830"/>
<path d="M4.55257 331.421L8.878 333.928L4.55257 336.548V331.421Z" fill="#282830"/>
<path d="M169.234 17.6439L171.966 16.0488V19.239L169.234 17.6439Z" fill="#282830"/>
<path d="M161.495 31.2021L164.113 32.6833L161.495 34.2784V31.2021Z" fill="#282830"/>
<path d="M143.058 62.876L145.903 61.167V64.4711L143.058 62.876Z" fill="#282830"/>
<path d="M135.319 76.2065L138.164 77.9156L135.319 79.5107V76.2065Z" fill="#282830"/>
<path d="M116.996 107.995L119.841 106.399V109.704L116.996 107.995Z" fill="#282830"/>
<path d="M109.371 121.553L111.988 123.034L109.371 124.629V121.553Z" fill="#282830"/>
<path d="M91.5026 153.227L93.5512 152.087V154.366L91.5026 153.227Z" fill="#282830"/>
<path d="M83.6498 167.354L85.2431 168.266L83.6498 169.177V167.354Z" fill="#282830"/>
<path d="M66.3508 198.459L67.034 198.003V198.801L66.3508 198.459Z" fill="#282830"/>
<path d="M58.0427 213.271L58.2701 213.498L58.0427 213.612V213.271Z" fill="#282830"/>
<path d="M14.5676 288.809L14.6813 288.696V288.923L14.5676 288.809Z" fill="#282830"/>
<path d="M5.57689 303.165L6.71457 303.849L5.57689 304.533V303.165Z" fill="#282830"/>
<path d="M161.495 1.00928L164.113 2.60437L161.495 4.19946V1.00928Z" fill="#282830"/>
<path d="M143.058 32.6832L145.903 31.0881V34.2783L143.058 32.6832Z" fill="#282830"/>
<path d="M135.319 46.1277L138.164 47.7228L135.319 49.4318V46.1277Z" fill="#282830"/>
<path d="M116.996 77.9156L119.841 76.2065V79.6246L116.996 77.9156Z" fill="#282830"/>
<path d="M109.257 91.3599L112.102 92.955L109.257 94.55V91.3599Z" fill="#282830"/>
<path d="M91.1612 123.034L93.665 121.667V124.515L91.1612 123.034Z" fill="#282830"/>
<path d="M83.4222 136.82L85.6984 138.187L83.4222 139.441V136.82Z" fill="#282830"/>
<path d="M65.7817 168.266L67.2612 167.354V169.177L65.7817 168.266Z" fill="#282830"/>
<path d="M57.7013 182.736L58.839 183.306L57.7013 183.989V182.736Z" fill="#282830"/>
<path d="M40.5161 213.498L40.8572 213.271V213.612L40.5161 213.498Z" fill="#282830"/>
<path d="M143.058 2.60429L145.903 0.895264V4.19938L143.058 2.60429Z" fill="#282830"/>
<path d="M135.319 15.9348L138.279 17.6438L135.319 19.3529V15.9348Z" fill="#282830"/>
<path d="M116.996 47.7227L119.841 46.0137V49.4317L116.996 47.7227Z" fill="#282830"/>
<path d="M109.257 61.167L112.216 62.876L109.257 64.585V61.167Z" fill="#282830"/>
<path d="M90.9336 92.955L93.7788 91.3599V94.55L90.9336 92.955Z" fill="#282830"/>
<path d="M83.3084 106.399L86.0398 107.995L83.3084 109.59V106.399Z" fill="#282830"/>
<path d="M65.3265 138.187L67.4899 136.934V139.44L65.3265 138.187Z" fill="#282830"/>
<path d="M57.4737 152.087L59.4084 153.227L57.4737 154.366V152.087Z" fill="#282830"/>
<path d="M39.947 183.306L41.0847 182.736V183.989L39.947 183.306Z" fill="#282830"/>
<path d="M31.7528 198.003L32.5498 198.459L31.7528 198.801V198.003Z" fill="#282830"/>
<path d="M116.882 17.6438L119.955 15.8208V19.4667L116.882 17.6438Z" fill="#282830"/>
<path d="M109.143 30.9741L112.33 32.6831L109.143 34.5061V30.9741Z" fill="#282830"/>
<path d="M90.8198 62.8762L93.893 61.0532V64.5852L90.8198 62.8762Z" fill="#282830"/>
<path d="M83.1946 76.2065L86.1539 77.9156L83.1946 79.6246V76.2065Z" fill="#282830"/>
<path d="M64.8713 107.995L67.7165 106.399V109.704L64.8713 107.995Z" fill="#282830"/>
<path d="M57.246 121.553L59.8637 123.034L57.246 124.515V121.553Z" fill="#282830"/>
<path d="M39.378 153.227L41.4265 152.087V154.366L39.378 153.227Z" fill="#282830"/>
<path d="M31.5252 167.354L33.1185 168.266L31.5252 169.177V167.354Z" fill="#282830"/>
<path d="M14.1124 198.459L14.9094 198.003V198.801L14.1124 198.459Z" fill="#282830"/>
<path d="M5.80452 213.271L6.25928 213.498L5.80452 213.726V213.271Z" fill="#282830"/>
<path d="M109.143 0.781494L112.33 2.60446L109.143 4.42742V0.781494Z" fill="#282830"/>
<path d="M90.706 32.6833L93.893 30.8604V34.5063L90.706 32.6833Z" fill="#282830"/>
<path d="M83.0807 45.8997L86.2678 47.7226L83.0807 49.6595V45.8997Z" fill="#282830"/>
<path d="M64.7575 77.9155L67.8307 76.0925V79.6245L64.7575 77.9155Z" fill="#282830"/>
<path d="M57.1322 91.2458L60.0916 92.9549L57.1322 94.6639V91.2458Z" fill="#282830"/>
<path d="M38.9228 123.034L41.6542 121.553V124.629L38.9228 123.034Z" fill="#282830"/>
<path d="M31.1837 136.706L33.6875 138.187L31.1837 139.554V136.706Z" fill="#282830"/>
<path d="M13.4295 168.266L15.2504 167.241V169.292L13.4295 168.266Z" fill="#282830"/>
<path d="M5.57689 182.622L6.8279 183.305L5.57689 184.103V182.622Z" fill="#282830"/>
<path d="M90.706 2.60438L93.893 0.66748V4.42734L90.706 2.60438Z" fill="#282830"/>
<path d="M83.0807 15.707L86.3816 17.6439L83.0807 19.5808V15.707Z" fill="#282830"/>
<path d="M64.5298 47.7228L67.9445 45.7859V49.6597L64.5298 47.7228Z" fill="#282830"/>
<path d="M57.0184 60.9392L60.2055 62.8761L57.0184 64.6991V60.9392Z" fill="#282830"/>
<path d="M38.6951 92.955L41.7683 91.1321V94.778L38.6951 92.955Z" fill="#282830"/>
<path d="M31.0699 106.285L34.0293 107.994L31.0699 109.703V106.285Z" fill="#282830"/>
<path d="M13.0881 138.187L15.4781 136.706V139.554L13.0881 138.187Z" fill="#282830"/>
<path d="M5.23544 151.973L7.3989 153.227L5.23544 154.48V151.973Z" fill="#282830"/>
<path d="M64.416 17.6439L67.9445 15.593V19.6947L64.416 17.6439Z" fill="#282830"/>
<path d="M56.9046 30.6323L60.4331 32.6832L56.9046 34.734V30.6323Z" fill="#282830"/>
<path d="M38.4675 62.8761L41.8822 60.9392V64.813L38.4675 62.8761Z" fill="#282830"/>
<path d="M30.9561 75.9785L34.257 77.9154L30.9561 79.8523V75.9785Z" fill="#282830"/>
<path d="M12.6328 107.994L15.706 106.285V109.817L12.6328 107.994Z" fill="#282830"/>
<path d="M5.00781 121.439L7.85316 123.034L5.00781 124.743V121.439Z" fill="#282830"/>
<path d="M56.9046 0.553467L60.4331 2.6043L56.9046 4.5412V0.553467Z" fill="#282830"/>
<path d="M38.3537 32.6832L41.8822 30.6323V34.734L38.3537 32.6832Z" fill="#282830"/>
<path d="M30.8423 45.6719L34.3708 47.7227L30.8423 49.7735V45.6719Z" fill="#282830"/>
<path d="M12.4052 77.9154L15.8199 75.9785V79.8523L12.4052 77.9154Z" fill="#282830"/>
<path d="M4.894 91.0181L8.19498 92.955L4.894 94.8919V91.0181Z" fill="#282830"/>
<path d="M38.3537 2.60447L41.8822 0.439697V4.6553L38.3537 2.60447Z" fill="#282830"/>
<path d="M30.8423 15.479L34.4846 17.6438L30.8423 19.8085V15.479Z" fill="#282830"/>
<path d="M12.2914 47.7227L15.8199 45.6719V49.8875L12.2914 47.7227Z" fill="#282830"/>
<path d="M4.78018 60.7114L8.42265 62.8762L4.78018 64.927V60.7114Z" fill="#282830"/>
<path d="M12.1776 17.6438L15.9337 15.479V19.8085L12.1776 17.6438Z" fill="#282830"/>
<path d="M4.66638 30.5186L8.5365 32.6833L4.66638 34.8481V30.5186Z" fill="#282830"/>
<path d="M4.66638 0.325684L8.5365 2.60439L4.66638 4.76915V0.325684Z" fill="#282830"/>
</g>
<defs>
<clipPath id="clip0_55_796">
<rect width="666.695" height="650" fill="white" transform="translate(0 0.325684)"/>
</clipPath>
</defs>
</svg>
