<svg width="667" height="651" viewBox="0 0 667 651" fill="none" xmlns="http://www.w3.org/2000/svg">
<g opacity="0.1" clip-path="url(#clip0_55_1656)">
<path d="M191.96 196.18H191.847L191.96 196.066V196.18Z" fill="#282830"/>
<path d="M209.487 196.18L209.146 196.408V195.952L209.487 196.18Z" fill="#282830"/>
<path d="M183.652 211.22L182.969 211.562V210.878L183.652 211.22Z" fill="#282830"/>
<path d="M218.478 212.131L216.998 211.22L218.478 210.308V212.131Z" fill="#282830"/>
<path d="M235.435 181.141H235.322V181.027L235.435 181.141Z" fill="#282830"/>
<path d="M192.529 227.284L190.708 226.259L192.529 225.234V227.284Z" fill="#282830"/>
<path d="M210.853 226.259L208.463 227.626V224.892L210.853 226.259Z" fill="#282830"/>
<path d="M236.687 211.22L234.639 212.359V210.08L236.687 211.22Z" fill="#282830"/>
<path d="M244.426 196.864L243.175 196.18L244.426 195.383V196.864Z" fill="#282830"/>
<path d="M165.898 211.333L165.671 211.22L165.898 211.106V211.333Z" fill="#282830"/>
<path d="M166.467 242.438L164.646 241.299L166.467 240.273V242.438Z" fill="#282830"/>
<path d="M185.018 241.298L182.286 242.894V239.817L185.018 241.298Z" fill="#282830"/>
<path d="M219.274 243.691L215.177 241.299L219.274 239.02V243.691Z" fill="#282830"/>
<path d="M238.508 241.299L233.728 244.147V238.564L238.508 241.299Z" fill="#282830"/>
<path d="M245.223 228.424L241.581 226.259L245.223 224.208V228.424Z" fill="#282830"/>
<path d="M262.863 196.18L260.7 197.434V194.927L262.863 196.18Z" fill="#282830"/>
<path d="M270.602 182.052L269.009 181.141L270.602 180.115V182.052Z" fill="#282830"/>
<path d="M261.611 165.987L261.27 166.215V165.874L261.611 165.987Z" fill="#282830"/>
<path d="M157.476 226.259L156.907 226.601V225.917L157.476 226.259Z" fill="#282830"/>
<path d="M158.728 256.452L156.338 257.819V255.085L158.728 256.452Z" fill="#282830"/>
<path d="M193.326 258.958L188.887 256.452L193.326 253.831V258.958Z" fill="#282830"/>
<path d="M212.901 256.452L207.438 259.528V253.262L212.901 256.452Z" fill="#282830"/>
<path d="M246.361 260.44L239.419 256.452L246.361 252.35V260.44Z" fill="#282830"/>
<path d="M264.343 226.259L259.904 228.88V223.753L264.343 226.259Z" fill="#282830"/>
<path d="M271.285 213.384L267.643 211.22L271.285 209.055V213.384Z" fill="#282830"/>
<path d="M289.267 181.141L286.536 182.622V179.546L289.267 181.141Z" fill="#282830"/>
<path d="M167.15 273.77L163.166 271.491L167.15 269.213V273.77Z" fill="#282830"/>
<path d="M186.725 271.491L181.49 274.454V268.529L186.725 271.491Z" fill="#282830"/>
<path d="M220.413 275.707L213.129 271.491L220.413 267.276V275.707Z" fill="#282830"/>
<path d="M240.671 271.491L232.704 276.049V266.82L240.671 271.491Z" fill="#282830"/>
<path d="M266.619 256.452L258.766 260.895V251.894L266.619 256.452Z" fill="#282830"/>
<path d="M272.31 245.172L265.709 241.299L272.31 237.539V245.172Z" fill="#282830"/>
<path d="M290.747 211.22L285.853 214.068V208.371L290.747 211.22Z" fill="#282830"/>
<path d="M297.689 198.801L293.023 196.18L297.689 193.446V198.801Z" fill="#282830"/>
<path d="M297.006 167.469L294.502 165.987L297.006 164.62V167.469Z" fill="#282830"/>
<path d="M288.015 150.948L287.218 151.404V150.492L288.015 150.948Z" fill="#282830"/>
<path d="M131.3 241.298L130.959 241.526V241.185L131.3 241.298Z" fill="#282830"/>
<path d="M140.291 257.25L138.811 256.452L140.291 255.54V257.25Z" fill="#282830"/>
<path d="M140.746 288.354L137.673 286.531L140.746 284.708V288.354Z" fill="#282830"/>
<path d="M159.98 286.531L155.768 288.923V284.138L159.98 286.531Z" fill="#282830"/>
<path d="M194.236 290.519L187.294 286.531L194.236 282.543V290.519Z" fill="#282830"/>
<path d="M214.608 286.531L206.642 291.202V281.973L214.608 286.531Z" fill="#282830"/>
<path d="M247.272 292.114L237.598 286.531L247.272 280.948V292.114Z" fill="#282830"/>
<path d="M268.212 286.531L257.97 292.455V280.606L268.212 286.531Z" fill="#282830"/>
<path d="M273.22 276.96L263.774 271.491L273.22 265.909V276.96Z" fill="#282830"/>
<path d="M292.568 241.299L284.829 245.856V236.855L292.568 241.299Z" fill="#282830"/>
<path d="M298.486 230.361L291.543 226.259L298.486 222.271V230.361Z" fill="#282830"/>
<path d="M317.833 196.18L311.346 199.826V192.42L317.833 196.18Z" fill="#282830"/>
<path d="M324.32 184.787L318.061 181.141L324.32 177.495V184.787Z" fill="#282830"/>
<path d="M316.354 165.987L312.142 168.494V163.595L316.354 165.987Z" fill="#282830"/>
<path d="M296.323 136.25L295.755 135.908L296.323 135.567V136.25Z" fill="#282830"/>
<path d="M132.324 271.491L130.503 272.517V270.466L132.324 271.491Z" fill="#282830"/>
<path d="M133.235 301.57L129.934 303.507V299.747L133.235 301.57Z" fill="#282830"/>
<path d="M167.833 304.988L161.915 301.57L167.833 298.266V304.988Z" fill="#282830"/>
<path d="M187.977 301.57L180.807 305.786V297.469L187.977 301.57Z" fill="#282830"/>
<path d="M221.095 307.039L211.649 301.57L221.095 296.215V307.039Z" fill="#282830"/>
<path d="M242.15 301.57L231.907 307.495V295.76L242.15 301.57Z" fill="#282830"/>
<path d="M273.789 308.064L262.636 301.57L273.789 295.076V308.064Z" fill="#282830"/>
<path d="M294.389 271.491L284.032 277.53V265.453L294.389 271.491Z" fill="#282830"/>
<path d="M299.396 262.035L289.609 256.452L299.396 250.755V262.035Z" fill="#282830"/>
<path d="M319.313 226.259L310.663 231.272V221.246L319.313 226.259Z" fill="#282830"/>
<path d="M325.003 216.119L316.581 211.22L325.003 206.32V216.119Z" fill="#282830"/>
<path d="M345.261 181.141L336.726 186.04V176.128L345.261 181.141Z" fill="#282830"/>
<path d="M323.524 153.227L319.54 150.948L323.524 148.669V153.227Z" fill="#282830"/>
<path d="M314.874 135.909L312.826 137.048V134.769L314.874 135.909Z" fill="#282830"/>
<path d="M114.001 271.947L113.091 271.491L114.001 270.922V271.947Z" fill="#282830"/>
<path d="M141.315 319.344L136.763 316.723L141.315 313.989V319.344Z" fill="#282830"/>
<path d="M161.004 316.724L155.2 320.028V313.306L161.004 316.724Z" fill="#282830"/>
<path d="M194.692 321.623L186.156 316.724L194.692 311.71V321.623Z" fill="#282830"/>
<path d="M215.746 316.724L206.073 322.192V311.141L215.746 316.724Z" fill="#282830"/>
<path d="M247.727 323.104L236.687 316.724L247.727 310.229V323.104Z" fill="#282830"/>
<path d="M269.009 316.724L257.628 323.332V310.001L269.009 316.724Z" fill="#282830"/>
<path d="M295.299 301.57L283.577 308.406V294.734L295.299 301.57Z" fill="#282830"/>
<path d="M299.965 293.253L288.47 286.531L299.965 279.809V293.253Z" fill="#282830"/>
<path d="M320.906 256.452L309.867 262.832V249.958L320.906 256.452Z" fill="#282830"/>
<path d="M325.8 247.565L314.988 241.299L325.8 235.146V247.565Z" fill="#282830"/>
<path d="M346.627 211.22L336.043 217.372V205.067L346.627 211.22Z" fill="#282830"/>
<path d="M351.862 202.447L340.937 196.18L351.862 189.8V202.447Z" fill="#282830"/>
<path d="M351.179 171L342.53 165.987L351.179 160.974V171Z" fill="#282830"/>
<path d="M343.668 150.948L337.522 154.48V147.416L343.668 150.948Z" fill="#282830"/>
<path d="M322.841 121.895L321.02 120.869L322.841 119.844V121.895Z" fill="#282830"/>
<path d="M313.736 105.716L313.395 105.944V105.602L313.736 105.716Z" fill="#282830"/>
<path d="M105.807 286.531L104.669 287.214V285.847L105.807 286.531Z" fill="#282830"/>
<path d="M114.456 302.938L112.18 301.57L114.456 300.317V302.938Z" fill="#282830"/>
<path d="M114.911 333.7L111.383 331.763L114.911 329.712V333.7Z" fill="#282830"/>
<path d="M134.145 331.763L129.593 334.384V329.029L134.145 331.763Z" fill="#282830"/>
<path d="M168.174 335.865L161.118 331.763L168.174 327.547V335.865Z" fill="#282830"/>
<path d="M188.887 331.763L180.352 336.662V326.864L188.887 331.763Z" fill="#282830"/>
<path d="M221.437 337.688L211.08 331.763L221.437 325.725V337.688Z" fill="#282830"/>
<path d="M242.719 331.763L231.68 338.143V325.269L242.719 331.763Z" fill="#282830"/>
<path d="M274.017 338.485L262.181 331.763L274.017 324.927V338.485Z" fill="#282830"/>
<path d="M295.413 331.763L283.463 338.599V324.813L295.413 331.763Z" fill="#282830"/>
<path d="M300.193 323.674L288.015 316.724L300.193 309.66V323.674Z" fill="#282830"/>
<path d="M321.703 286.531L309.411 293.595V279.467L321.703 286.531Z" fill="#282830"/>
<path d="M326.369 278.555L313.964 271.491L326.369 264.313V278.555Z" fill="#282830"/>
<path d="M347.993 241.299L335.36 248.704V234.007L347.993 241.299Z" fill="#282830"/>
<path d="M352.545 233.779L339.685 226.259L352.545 218.853V233.779Z" fill="#282830"/>
<path d="M374.396 196.18L361.308 203.814V188.547L374.396 196.18Z" fill="#282830"/>
<path d="M378.835 188.774L365.405 181.141L378.835 173.393V188.774Z" fill="#282830"/>
<path d="M373.031 165.987L361.991 172.368V159.721L373.031 165.987Z" fill="#282830"/>
<path d="M350.155 139.213L344.465 135.909L350.155 132.604V139.213Z" fill="#282830"/>
<path d="M341.847 120.869L338.432 122.806V118.818L341.847 120.869Z" fill="#282830"/>
<path d="M322.272 90.79L322.044 90.6761L322.272 90.5622V90.79Z" fill="#282830"/>
<path d="M87.8248 286.759L87.3701 286.531L87.8248 286.303V286.759Z" fill="#282830"/>
<path d="M106.603 316.724L104.213 317.977V315.356L106.603 316.724Z" fill="#282830"/>
<path d="M107.4 346.802L103.871 348.853V344.752L107.4 346.802Z" fill="#282830"/>
<path d="M141.77 350.22L135.852 346.802L141.77 343.384V350.22Z" fill="#282830"/>
<path d="M161.801 346.803L154.858 350.79V342.701L161.801 346.803Z" fill="#282830"/>
<path d="M195.033 352.271L185.587 346.802L195.033 341.333V352.271Z" fill="#282830"/>
<path d="M216.202 346.802L205.845 352.727V340.764L216.202 346.802Z" fill="#282830"/>
<path d="M247.841 353.411L236.46 346.802L247.841 340.194V353.411Z" fill="#282830"/>
<path d="M269.123 346.802L257.514 353.525V340.08L269.123 346.802Z" fill="#282830"/>
<path d="M300.079 353.639L288.243 346.803L300.079 339.966V353.639Z" fill="#282830"/>
<path d="M321.817 316.723L309.411 323.901V309.432L321.817 316.723Z" fill="#282830"/>
<path d="M326.483 308.976L313.736 301.57L326.483 294.278V308.976Z" fill="#282830"/>
<path d="M348.562 271.491L335.132 279.239V263.744L348.562 271.491Z" fill="#282830"/>
<path d="M352.886 264.541L338.888 256.452L352.886 248.362V264.541Z" fill="#282830"/>
<path d="M375.535 226.259L360.739 234.804V217.714L375.535 226.259Z" fill="#282830"/>
<path d="M379.29 219.879L364.267 211.22L379.29 202.561V219.879Z" fill="#282830"/>
<path d="M402.052 181.141L386.574 190.028V172.14L402.052 181.141Z" fill="#282830"/>
<path d="M377.925 157.101L367.227 150.948L377.925 144.796V157.101Z" fill="#282830"/>
<path d="M370.868 135.908L363.016 140.466V131.351L370.868 135.908Z" fill="#282830"/>
<path d="M349.245 107.539L346.171 105.716L349.245 104.007V107.539Z" fill="#282830"/>
<path d="M340.481 90.6763L339.117 91.4739V89.8788L340.481 90.6763Z" fill="#282830"/>
<path d="M79.4028 301.57L78.7196 302.026V301.228L79.4028 301.57Z" fill="#282830"/>
<path d="M88.1663 317.521L86.573 316.723L88.1663 315.812V317.521Z" fill="#282830"/>
<path d="M115.253 364.576L110.587 361.842L115.253 359.108V364.576Z" fill="#282830"/>
<path d="M134.942 361.842L129.137 365.26V358.424L134.942 361.842Z" fill="#282830"/>
<path d="M168.516 366.513L160.435 361.842L168.516 357.171V366.513Z" fill="#282830"/>
<path d="M189.343 361.842L180.124 367.197V356.487L189.343 361.842Z" fill="#282830"/>
<path d="M221.437 367.994L210.966 361.842L221.437 355.803V367.994Z" fill="#282830"/>
<path d="M242.719 361.842L231.68 368.222V355.461L242.719 361.842Z" fill="#282830"/>
<path d="M273.789 368.222L262.75 361.842L273.789 355.461V368.222Z" fill="#282830"/>
<path d="M294.73 361.842L283.804 368.222V355.461L294.73 361.842Z" fill="#282830"/>
<path d="M321.361 346.802L309.639 353.525V340.08L321.361 346.802Z" fill="#282830"/>
<path d="M326.255 338.827L314.078 331.763L326.255 324.699V338.827Z" fill="#282830"/>
<path d="M348.448 301.57L335.132 309.318V293.937L348.448 301.57Z" fill="#282830"/>
<path d="M352.886 294.506L339.002 286.531L352.886 278.555V294.506Z" fill="#282830"/>
<path d="M375.99 256.452L360.512 265.339V247.451L375.99 256.452Z" fill="#282830"/>
<path d="M379.745 250.641L363.585 241.298L379.745 232.07V250.641Z" fill="#282830"/>
<path d="M402.963 211.22L386.119 220.904V201.535L402.963 211.22Z" fill="#282830"/>
<path d="M406.149 206.207L388.85 196.18L406.149 186.154V206.207Z" fill="#282830"/>
<path d="M405.58 174.988L390.102 165.987L405.58 157.1V174.988Z" fill="#282830"/>
<path d="M400.231 150.948L387.485 158.354V143.542L400.231 150.948Z" fill="#282830"/>
<path d="M376.786 124.971L369.503 120.869L376.786 116.653V124.971Z" fill="#282830"/>
<path d="M368.82 105.716L364.04 108.45V103.095L368.82 105.716Z" fill="#282830"/>
<path d="M348.676 76.3203L347.425 75.6367L348.676 74.9531V76.3203Z" fill="#282830"/>
<path d="M61.6487 301.684L61.4214 301.57L61.6487 301.456V301.684Z" fill="#282830"/>
<path d="M80.0857 331.763L78.3786 332.788V330.738L80.0857 331.763Z" fill="#282830"/>
<path d="M88.5076 348.284L85.8899 346.803L88.5076 345.207V348.284Z" fill="#282830"/>
<path d="M88.8491 379.046L85.2068 376.881L88.8491 374.831V379.046Z" fill="#282830"/>
<path d="M108.083 376.881L103.53 379.616V374.261L108.083 376.881Z" fill="#282830"/>
<path d="M141.998 380.755L135.283 376.881L141.998 373.008V380.755Z" fill="#282830"/>
<path d="M162.256 376.881L154.631 381.325V372.552L162.256 376.881Z" fill="#282830"/>
<path d="M195.033 382.35L185.701 376.881L195.033 371.526V382.35Z" fill="#282830"/>
<path d="M215.86 376.881L205.959 382.578V371.185L215.86 376.881Z" fill="#282830"/>
<path d="M247.385 382.806L237.256 376.881L247.385 371.071V382.806Z" fill="#282830"/>
<path d="M268.099 376.881L258.083 382.806V371.071L268.099 376.881Z" fill="#282830"/>
<path d="M299.396 382.578L289.609 376.881L299.396 371.299V382.578Z" fill="#282830"/>
<path d="M319.768 376.881L310.436 382.35V371.526L319.768 376.881Z" fill="#282830"/>
<path d="M325.686 367.994L315.216 361.842L325.686 355.803V367.994Z" fill="#282830"/>
<path d="M347.879 331.763L335.474 338.941V324.585L347.879 331.763Z" fill="#282830"/>
<path d="M352.659 324.243L339.571 316.723L352.659 309.09V324.243Z" fill="#282830"/>
<path d="M375.421 286.531L360.739 295.076V278.1L375.421 286.531Z" fill="#282830"/>
<path d="M379.518 280.606L363.812 271.491L379.518 262.377V280.606Z" fill="#282830"/>
<path d="M403.418 241.298L385.891 251.439V231.158L403.418 241.298Z" fill="#282830"/>
<path d="M406.491 236.855L388.281 226.259L406.491 215.777V236.855Z" fill="#282830"/>
<path d="M430.277 196.18L411.498 207.004V185.356L430.277 196.18Z" fill="#282830"/>
<path d="M432.781 192.079L413.888 181.141L432.781 170.203V192.079Z" fill="#282830"/>
<path d="M429.366 165.987L411.954 176.014V155.961L429.366 165.987Z" fill="#282830"/>
<path d="M404.442 142.972L392.265 135.908L404.442 128.844V142.972Z" fill="#282830"/>
<path d="M397.841 120.869L388.623 126.224V115.514L397.841 120.869Z" fill="#282830"/>
<path d="M375.762 93.0688L371.551 90.6762L375.762 88.2836V93.0688Z" fill="#282830"/>
<path d="M367.226 75.6367L364.836 77.0039V74.2695L367.226 75.6367Z" fill="#282830"/>
<path d="M53.2268 316.724L52.772 316.951V316.382L53.2268 316.724Z" fill="#282830"/>
<path d="M61.9901 332.333L60.8524 331.763L61.9901 331.079V332.333Z" fill="#282830"/>
<path d="M80.8824 361.842L78.0372 363.551V360.247L80.8824 361.842Z" fill="#282830"/>
<path d="M81.3376 392.035L77.8091 394.085V389.87L81.3376 392.035Z" fill="#282830"/>
<path d="M115.48 394.997L110.131 392.035L115.48 388.959V394.997Z" fill="#282830"/>
<path d="M135.169 392.035L129.024 395.567V388.389L135.169 392.035Z" fill="#282830"/>
<path d="M168.402 396.478L160.663 392.035L168.402 387.477V396.478Z" fill="#282830"/>
<path d="M188.774 392.035L180.465 396.82V387.136L188.774 392.035Z" fill="#282830"/>
<path d="M220.868 397.048L212.104 392.035L220.868 386.908V397.048Z" fill="#282830"/>
<path d="M241.353 392.035L232.362 397.162V386.794L241.353 392.035Z" fill="#282830"/>
<path d="M272.992 396.934L264.343 392.035L272.992 387.021V396.934Z" fill="#282830"/>
<path d="M293.023 392.035L284.601 396.82V387.136L293.023 392.035Z" fill="#282830"/>
<path d="M324.776 396.478L317.037 392.035L324.776 387.477V396.478Z" fill="#282830"/>
<path d="M346.513 361.842L336.157 367.767V355.917L346.513 361.842Z" fill="#282830"/>
<path d="M352.09 353.525L340.595 346.802L352.09 340.08V353.525Z" fill="#282830"/>
<path d="M374.51 316.724L361.195 324.357V308.976L374.51 316.724Z" fill="#282830"/>
<path d="M379.063 309.887L364.836 301.57L379.063 293.367V309.887Z" fill="#282830"/>
<path d="M402.735 271.491L386.233 281.062V261.921L402.735 271.491Z" fill="#282830"/>
<path d="M406.263 266.706L388.623 256.452L406.263 246.198V266.706Z" fill="#282830"/>
<path d="M430.732 226.259L411.271 237.539V215.093L430.732 226.259Z" fill="#282830"/>
<path d="M433.008 222.499L413.433 211.22L433.008 199.94V222.499Z" fill="#282830"/>
<path d="M457.022 181.141L437.219 192.534V169.633L457.022 181.141Z" fill="#282830"/>
<path d="M431.984 160.632L415.368 150.948L431.984 141.377V160.632Z" fill="#282830"/>
<path d="M427.204 135.908L413.092 144.112V127.705L427.204 135.908Z" fill="#282830"/>
<path d="M403.19 110.615L394.882 105.716L403.19 100.93V110.615Z" fill="#282830"/>
<path d="M395.565 90.6762L389.761 94.0942V87.3721L395.565 90.6762Z" fill="#282830"/>
<path d="M374.965 61.6228L373.031 60.5974L374.965 59.4581V61.6228Z" fill="#282830"/>
<path d="M365.975 45.558L365.52 45.7859V45.2162L365.975 45.558Z" fill="#282830"/>
<path d="M35.5864 316.837L35.359 316.723L35.5864 316.496V316.837Z" fill="#282830"/>
<path d="M53.7959 346.803L52.4311 347.6V346.005L53.7959 346.803Z" fill="#282830"/>
<path d="M62.3315 363.095L60.1681 361.842L62.3315 360.703V363.095Z" fill="#282830"/>
<path d="M88.9629 409.467L84.9791 407.074L88.9629 404.682V409.467Z" fill="#282830"/>
<path d="M108.197 407.074L103.417 409.809V404.34L108.197 407.074Z" fill="#282830"/>
<path d="M141.884 410.606L135.625 407.074L141.884 403.428V410.606Z" fill="#282830"/>
<path d="M161.687 407.074L154.858 410.948V403.2L161.687 407.074Z" fill="#282830"/>
<path d="M194.464 411.404L186.839 407.074L194.464 402.631V411.404Z" fill="#282830"/>
<path d="M214.381 407.074L206.755 411.518V402.631L214.381 407.074Z" fill="#282830"/>
<path d="M246.589 411.404L238.963 407.074L246.589 402.631V411.404Z" fill="#282830"/>
<path d="M266.278 407.074L258.994 411.29V402.859L266.278 407.074Z" fill="#282830"/>
<path d="M298.372 410.948L291.543 407.074L298.372 403.086V410.948Z" fill="#282830"/>
<path d="M317.833 407.074L311.346 410.72V403.314L317.833 407.074Z" fill="#282830"/>
<path d="M344.578 392.035L337.067 396.364V387.591L344.578 392.035Z" fill="#282830"/>
<path d="M351.293 382.122L342.302 376.881L351.293 371.754V382.122Z" fill="#282830"/>
<path d="M373.372 346.802L361.764 353.411V340.08L373.372 346.802Z" fill="#282830"/>
<path d="M378.494 339.055L365.975 331.763L378.494 324.471V339.055Z" fill="#282830"/>
<path d="M401.483 301.57L386.802 310.115V293.139L401.483 301.57Z" fill="#282830"/>
<path d="M405.694 295.76L389.874 286.531L405.694 277.416V295.76Z" fill="#282830"/>
<path d="M429.935 256.452L411.612 267.048V245.856L429.935 256.452Z" fill="#282830"/>
<path d="M432.894 252.578L413.547 241.299L432.894 230.133V252.578Z" fill="#282830"/>
<path d="M457.25 211.22L437.105 222.841V199.598L457.25 211.22Z" fill="#282830"/>
<path d="M459.298 207.916L438.926 196.18L459.298 184.445V207.916Z" fill="#282830"/>
<path d="M458.957 177.153L439.723 165.987L458.957 154.936V177.153Z" fill="#282830"/>
<path d="M455.542 150.948L438.016 161.088V140.808L455.542 150.948Z" fill="#282830"/>
<path d="M430.732 128.275L417.872 120.869L430.732 113.463V128.275Z" fill="#282830"/>
<path d="M424.473 105.716L414.457 111.64V99.905L424.473 105.716Z" fill="#282830"/>
<path d="M402.166 78.7129L396.817 75.6367L402.166 72.5604V78.7129Z" fill="#282830"/>
<path d="M393.744 60.5975L390.671 62.4204V58.7745L393.744 60.5975Z" fill="#282830"/>
<path d="M27.1646 331.763L26.7098 331.991V331.535L27.1646 331.763Z" fill="#282830"/>
<path d="M35.814 347.258L34.9033 346.803L35.814 346.347V347.258Z" fill="#282830"/>
<path d="M54.3649 376.881L52.2015 378.135V375.742L54.3649 376.881Z" fill="#282830"/>
<path d="M62.5591 393.63L59.7139 392.035L62.5591 390.326V393.63Z" fill="#282830"/>
<path d="M62.5591 423.823L59.5997 422.113L62.5591 420.404V423.823Z" fill="#282830"/>
<path d="M81.3376 422.114L77.8091 424.165V420.063L81.3376 422.114Z" fill="#282830"/>
<path d="M115.253 424.848L110.587 422.114L115.253 419.379V424.848Z" fill="#282830"/>
<path d="M134.6 422.114L129.365 425.19V419.037L134.6 422.114Z" fill="#282830"/>
<path d="M167.833 425.646L161.801 422.114L167.833 418.582V425.646Z" fill="#282830"/>
<path d="M187.408 422.114L181.148 425.76V418.468L187.408 422.114Z" fill="#282830"/>
<path d="M220.071 425.76L213.698 422.114L220.071 418.468V425.76Z" fill="#282830"/>
<path d="M239.532 422.114L233.273 425.76V418.468L239.532 422.114Z" fill="#282830"/>
<path d="M271.968 425.532L266.164 422.114L271.968 418.696V425.532Z" fill="#282830"/>
<path d="M291.202 422.114L285.625 425.304V418.923L291.202 422.114Z" fill="#282830"/>
<path d="M323.865 425.076L318.858 422.114L323.865 419.151V425.076Z" fill="#282830"/>
<path d="M342.985 422.114L337.864 425.076V419.151L342.985 422.114Z" fill="#282830"/>
<path d="M350.383 410.72L344.123 407.074L350.383 403.428V410.72Z" fill="#282830"/>
<path d="M371.551 376.881L362.674 382.008V371.868L371.551 376.881Z" fill="#282830"/>
<path d="M377.697 367.653L367.568 361.842L377.697 356.031V367.653Z" fill="#282830"/>
<path d="M400.117 331.763L387.484 339.055V324.357L400.117 331.763Z" fill="#282830"/>
<path d="M404.897 324.585L391.24 316.724L404.897 308.748V324.585Z" fill="#282830"/>
<path d="M428.456 286.531L412.409 295.874V277.188L428.456 286.531Z" fill="#282830"/>
<path d="M432.212 281.518L414.913 271.491L432.212 261.465V281.518Z" fill="#282830"/>
<path d="M456.908 241.299L437.333 252.692V230.019L456.908 241.299Z" fill="#282830"/>
<path d="M459.298 237.994L439.04 226.259L459.298 214.638V237.994Z" fill="#282830"/>
<path d="M483.426 196.18L463.168 207.916V184.445L483.426 196.18Z" fill="#282830"/>
<path d="M485.247 192.648L465.33 181.141L485.247 169.633V192.648Z" fill="#282830"/>
<path d="M482.743 165.987L463.509 177.153V154.822L482.743 165.987Z" fill="#282830"/>
<path d="M457.932 145.251L441.771 135.909L457.932 126.566V145.251Z" fill="#282830"/>
<path d="M453.039 120.869L439.268 128.73V112.893L453.039 120.869Z" fill="#282830"/>
<path d="M429.366 95.8032L420.603 90.6761L429.366 85.663V95.8032Z" fill="#282830"/>
<path d="M422.196 75.637L415.595 79.5107V71.7632L422.196 75.637Z" fill="#282830"/>
<path d="M401.142 46.8113L398.865 45.558L401.142 44.1908V46.8113Z" fill="#282830"/>
<path d="M392.151 30.4047L391.467 30.8604V30.0628L392.151 30.4047Z" fill="#282830"/>
<path d="M9.52405 331.877L9.29665 331.763L9.52405 331.649V331.877Z" fill="#282830"/>
<path d="M27.5059 361.842L26.482 362.525V361.272L27.5059 361.842Z" fill="#282830"/>
<path d="M36.0415 377.793L34.4482 376.881L36.0415 375.97V377.793Z" fill="#282830"/>
<path d="M54.5925 407.074L51.9749 408.555V405.593L54.5925 407.074Z" fill="#282830"/>
<path d="M54.7063 437.153L51.9748 438.748V435.672L54.7063 437.153Z" fill="#282830"/>
<path d="M88.8491 439.204L85.2068 437.153L88.8491 435.102V439.204Z" fill="#282830"/>
<path d="M107.627 437.153L103.644 439.432V434.874L107.627 437.153Z" fill="#282830"/>
<path d="M141.315 440.001L136.535 437.153L141.315 434.419V440.001Z" fill="#282830"/>
<path d="M160.549 437.153L155.427 440.115V434.305L160.549 437.153Z" fill="#282830"/>
<path d="M193.667 440.229L188.318 437.153L193.667 434.077V440.229Z" fill="#282830"/>
<path d="M212.787 437.153L207.552 440.229V434.191L212.787 437.153Z" fill="#282830"/>
<path d="M245.678 440.115L240.671 437.153L245.678 434.305V440.115Z" fill="#282830"/>
<path d="M264.571 437.153L259.791 440.001V434.419L264.571 437.153Z" fill="#282830"/>
<path d="M297.575 439.773L293.25 437.153L297.575 434.646V439.773Z" fill="#282830"/>
<path d="M316.24 437.153L312.142 439.546V434.76L316.24 437.153Z" fill="#282830"/>
<path d="M349.7 439.66L345.488 437.153L349.7 434.76V439.66Z" fill="#282830"/>
<path d="M369.844 407.074L363.584 410.72V403.428L369.844 407.074Z" fill="#282830"/>
<path d="M376.786 396.364L369.389 392.035L376.786 387.705V396.364Z" fill="#282830"/>
<path d="M398.41 361.842L388.395 367.653V356.031L398.41 361.842Z" fill="#282830"/>
<path d="M404.214 353.411L392.834 346.802L404.214 340.194V353.411Z" fill="#282830"/>
<path d="M426.749 316.724L413.319 324.471V308.862L426.749 316.724Z" fill="#282830"/>
<path d="M431.301 310.001L416.847 301.57L431.301 293.253V310.001Z" fill="#282830"/>
<path d="M455.315 271.491L438.13 281.404V261.579L455.315 271.491Z" fill="#282830"/>
<path d="M458.615 267.048L440.178 256.452L458.615 245.742V267.048Z" fill="#282830"/>
<path d="M483.312 226.259L463.168 237.88V214.638L483.312 226.259Z" fill="#282830"/>
<path d="M485.247 222.841L465.216 211.22L485.247 199.598V222.841Z" fill="#282830"/>
<path d="M508.919 181.141L489.458 192.306V169.861L508.919 181.141Z" fill="#282830"/>
<path d="M484.564 161.202L466.696 150.948L484.564 140.694V161.202Z" fill="#282830"/>
<path d="M480.694 135.909L464.533 145.251V126.566L480.694 135.909Z" fill="#282830"/>
<path d="M456.339 112.438L444.844 105.716L456.339 99.1076V112.438Z" fill="#282830"/>
<path d="M450.193 90.6761L440.633 96.145V85.2072L450.193 90.6761Z" fill="#282830"/>
<path d="M428.228 63.6736L422.879 60.5974L428.228 57.5211V63.6736Z" fill="#282830"/>
<path d="M419.92 45.5579L416.733 47.3809V43.621L419.92 45.5579Z" fill="#282830"/>
<path d="M400.459 15.479L400.345 15.3651L400.459 15.2511V15.479Z" fill="#282830"/>
<path d="M1.10205 346.802L0.64726 347.03V346.575L1.10205 346.802Z" fill="#282830"/>
<path d="M9.75171 362.298L8.95463 361.842L9.75171 361.5V362.298Z" fill="#282830"/>
<path d="M27.9611 392.035L26.254 392.946V391.009L27.9611 392.035Z" fill="#282830"/>
<path d="M36.1554 408.213L34.2207 407.074L36.1554 405.935V408.213Z" fill="#282830"/>
<path d="M62.4453 453.788L59.7139 452.193L62.4453 450.711V453.788Z" fill="#282830"/>
<path d="M80.9962 452.192L77.9231 454.015V450.483L80.9962 452.192Z" fill="#282830"/>
<path d="M114.911 454.357L111.269 452.192L114.911 450.142V454.357Z" fill="#282830"/>
<path d="M133.69 452.192L129.82 454.471V450.028L133.69 452.192Z" fill="#282830"/>
<path d="M167.264 454.699L163.052 452.192L167.264 449.8V454.699Z" fill="#282830"/>
<path d="M186.042 452.192L181.831 454.699V449.8L186.042 452.192Z" fill="#282830"/>
<path d="M219.388 454.699L215.177 452.192L219.388 449.8V454.699Z" fill="#282830"/>
<path d="M238.053 452.193L233.955 454.585V449.914L238.053 452.193Z" fill="#282830"/>
<path d="M271.285 454.471L267.529 452.192L271.285 450.028V454.471Z" fill="#282830"/>
<path d="M289.836 452.193L286.308 454.243V450.256L289.836 452.193Z" fill="#282830"/>
<path d="M323.296 454.129L319.995 452.193L323.296 450.37V454.129Z" fill="#282830"/>
<path d="M341.733 452.193L338.432 454.129V450.37L341.733 452.193Z" fill="#282830"/>
<path d="M368.592 437.153L364.154 439.773V434.646L368.592 437.153Z" fill="#282830"/>
<path d="M376.104 425.19L370.868 422.114L376.104 419.037V425.19Z" fill="#282830"/>
<path d="M396.703 392.035L389.192 396.25V387.705L396.703 392.035Z" fill="#282830"/>
<path d="M403.19 381.895L394.654 376.881L403.19 371.982V381.895Z" fill="#282830"/>
<path d="M425.155 346.802L414.116 353.183V340.422L425.155 346.802Z" fill="#282830"/>
<path d="M430.504 338.713L418.441 331.763L430.504 324.813V338.713Z" fill="#282830"/>
<path d="M453.152 301.57L439.154 309.66V293.481L453.152 301.57Z" fill="#282830"/>
<path d="M457.705 295.418L442.227 286.531L457.705 277.644V295.418Z" fill="#282830"/>
<path d="M481.946 256.452L463.851 266.82V245.97L481.946 256.452Z" fill="#282830"/>
<path d="M484.905 252.35L465.899 241.299L484.905 230.361V252.35Z" fill="#282830"/>
<path d="M508.919 211.22L489.458 222.499V199.94L508.919 211.22Z" fill="#282830"/>
<path d="M511.081 207.346L491.734 196.18L511.081 184.901V207.346Z" fill="#282830"/>
<path d="M510.74 176.469L492.53 165.987L510.74 155.505V176.469Z" fill="#282830"/>
<path d="M507.439 150.948L490.254 160.974V141.035L507.439 150.948Z" fill="#282830"/>
<path d="M483.198 128.844L469.313 120.869L483.198 112.78V128.844Z" fill="#282830"/>
<path d="M477.735 105.716L466.013 112.552V98.9935L477.735 105.716Z" fill="#282830"/>
<path d="M455.087 80.1943L447.348 75.6369L455.087 71.1935V80.1943Z" fill="#282830"/>
<path d="M447.69 60.5973L441.885 63.9014V57.2931L447.69 60.5973Z" fill="#282830"/>
<path d="M427.09 31.6577L425.155 30.4045L427.09 29.2651V31.6577Z" fill="#282830"/>
<path d="M418.213 15.3651L417.53 15.8208V15.0233L418.213 15.3651Z" fill="#282830"/>
<path d="M1.32959 376.881L0.532997 377.451V376.426L1.32959 376.881Z" fill="#282830"/>
<path d="M9.86548 392.718L8.61449 392.035L9.86548 391.351V392.718Z" fill="#282830"/>
<path d="M28.075 422.114L26.2541 423.253V421.088L28.075 422.114Z" fill="#282830"/>
<path d="M36.2693 438.406L34.106 437.153L36.2693 435.9V438.406Z" fill="#282830"/>
<path d="M36.1554 468.371L34.2207 467.346L36.1554 466.207V468.371Z" fill="#282830"/>
<path d="M54.3649 467.346L52.0887 468.599V465.979L54.3649 467.346Z" fill="#282830"/>
<path d="M88.5076 468.827L85.8899 467.346L88.5076 465.751V468.827Z" fill="#282830"/>
<path d="M106.831 467.346L104.1 468.941V465.751L106.831 467.346Z" fill="#282830"/>
<path d="M140.746 469.055L137.787 467.346L140.746 465.523V469.055Z" fill="#282830"/>
<path d="M159.297 467.346L156.11 469.169V465.523L159.297 467.346Z" fill="#282830"/>
<path d="M192.984 469.169L189.797 467.346L192.984 465.523V469.169Z" fill="#282830"/>
<path d="M211.422 467.346L208.235 469.169V465.523L211.422 467.346Z" fill="#282830"/>
<path d="M244.995 469.055L242.036 467.346L244.995 465.523V469.055Z" fill="#282830"/>
<path d="M263.319 467.346L260.359 469.055V465.637L263.319 467.346Z" fill="#282830"/>
<path d="M297.006 468.827L294.389 467.346L297.006 465.751V468.827Z" fill="#282830"/>
<path d="M315.216 467.346L312.712 468.713V465.865L315.216 467.346Z" fill="#282830"/>
<path d="M349.245 468.941L346.399 467.346L349.245 465.751V468.941Z" fill="#282830"/>
<path d="M367.682 467.346L364.608 469.055V465.523L367.682 467.346Z" fill="#282830"/>
<path d="M375.648 454.471L371.778 452.192L375.648 450.028V454.471Z" fill="#282830"/>
<path d="M395.337 422.114L389.875 425.304V418.923L395.337 422.114Z" fill="#282830"/>
<path d="M402.507 410.72L396.134 407.074L402.507 403.428V410.72Z" fill="#282830"/>
<path d="M423.221 376.881L415.026 381.667V372.21L423.221 376.881Z" fill="#282830"/>
<path d="M429.48 367.197L420.262 361.842L429.48 356.487V367.197Z" fill="#282830"/>
<path d="M451.445 331.763L440.064 338.371V325.155L451.445 331.763Z" fill="#282830"/>
<path d="M456.681 323.788L444.275 316.724L456.681 309.546V323.788Z" fill="#282830"/>
<path d="M479.784 286.531L464.989 295.076V277.986L479.784 286.531Z" fill="#282830"/>
<path d="M483.995 280.834L467.72 271.491L483.995 262.149V280.834Z" fill="#282830"/>
<path d="M508.236 241.298L489.799 252.008V230.702L508.236 241.298Z" fill="#282830"/>
<path d="M510.968 237.197L492.075 226.259L510.968 215.321V237.197Z" fill="#282830"/>
<path d="M534.412 196.18L515.861 206.89V185.47L534.412 196.18Z" fill="#282830"/>
<path d="M536.688 191.395L518.82 181.141L536.688 170.773V191.395Z" fill="#282830"/>
<path d="M533.502 165.987L516.317 176.014V156.075L533.502 165.987Z" fill="#282830"/>
<path d="M509.602 144.568L494.693 135.909L509.602 127.249V144.568Z" fill="#282830"/>
<path d="M504.822 120.869L491.506 128.503V113.121L504.822 120.869Z" fill="#282830"/>
<path d="M481.719 96.259L472.272 90.6762L481.719 85.2073V96.259Z" fill="#282830"/>
<path d="M475.004 75.6369L467.379 80.0803V71.1934L475.004 75.6369Z" fill="#282830"/>
<path d="M453.835 47.7227L449.965 45.5579L453.835 43.2792V47.7227Z" fill="#282830"/>
<path d="M445.3 30.4046L443.136 31.7717V29.1512L445.3 30.4046Z" fill="#282830"/>
<path d="M1.55737 407.074L0.419696 407.758V406.391L1.55737 407.074Z" fill="#282830"/>
<path d="M9.97925 422.911L8.49977 422.114L9.97925 421.316V422.911Z" fill="#282830"/>
<path d="M28.075 452.192L26.2541 453.332V451.167L28.075 452.192Z" fill="#282830"/>
<path d="M27.8474 482.385L26.3679 483.183V481.474L27.8474 482.385Z" fill="#282830"/>
<path d="M62.2177 483.411L60.283 482.385L62.2177 481.246V483.411Z" fill="#282830"/>
<path d="M80.3134 482.385L78.2648 483.525V481.246L80.3134 482.385Z" fill="#282830"/>
<path d="M114.342 483.525L112.408 482.385L114.342 481.246V483.525Z" fill="#282830"/>
<path d="M132.438 482.385L130.389 483.525V481.132L132.438 482.385Z" fill="#282830"/>
<path d="M166.581 483.639L164.417 482.385L166.581 481.132V483.639Z" fill="#282830"/>
<path d="M184.563 482.385L182.514 483.639V481.132L184.563 482.385Z" fill="#282830"/>
<path d="M218.705 483.639L216.542 482.385L218.705 481.132V483.639Z" fill="#282830"/>
<path d="M236.687 482.385L234.639 483.525V481.246L236.687 482.385Z" fill="#282830"/>
<path d="M270.716 483.525L268.781 482.385L270.716 481.246V483.525Z" fill="#282830"/>
<path d="M288.698 482.385L286.877 483.411V481.36L288.698 482.385Z" fill="#282830"/>
<path d="M322.841 483.411L321.02 482.385L322.841 481.36V483.411Z" fill="#282830"/>
<path d="M340.937 482.385L338.888 483.525V481.246L340.937 482.385Z" fill="#282830"/>
<path d="M375.193 483.98L372.462 482.385L375.193 480.79V483.98Z" fill="#282830"/>
<path d="M394.427 452.193L390.329 454.585V449.914L394.427 452.193Z" fill="#282830"/>
<path d="M402.052 440.001L397.158 437.153L402.052 434.305V440.001Z" fill="#282830"/>
<path d="M421.969 407.074L415.709 410.606V403.428L421.969 407.074Z" fill="#282830"/>
<path d="M428.797 396.022L421.855 392.035L428.797 387.933V396.022Z" fill="#282830"/>
<path d="M449.624 361.842L440.975 366.855V356.829L449.624 361.842Z" fill="#282830"/>
<path d="M455.77 352.385L446.096 346.802L455.77 341.22V352.385Z" fill="#282830"/>
<path d="M477.508 316.724L466.127 323.332V310.001L477.508 316.724Z" fill="#282830"/>
<path d="M482.743 308.862L470.224 301.57L482.743 294.278V308.862Z" fill="#282830"/>
<path d="M506.301 271.491L490.823 280.378V262.49L506.301 271.491Z" fill="#282830"/>
<path d="M510.285 266.136L493.441 256.452L510.285 246.767V266.136Z" fill="#282830"/>
<path d="M534.185 226.259L515.975 236.855V215.777L534.185 226.259Z" fill="#282830"/>
<path d="M536.802 221.816L518.593 211.22L536.802 200.624V221.816Z" fill="#282830"/>
<path d="M559.336 181.141L542.493 190.939V171.342L559.336 181.141Z" fill="#282830"/>
<path d="M535.778 159.721L520.641 150.948L535.778 142.289V159.721Z" fill="#282830"/>
<path d="M531.226 135.909L517.455 143.884V127.933L531.226 135.909Z" fill="#282830"/>
<path d="M508.122 111.868L497.652 105.716L508.122 99.6771V111.868Z" fill="#282830"/>
<path d="M501.977 90.6762L492.986 95.9172V85.4352L501.977 90.6762Z" fill="#282830"/>
<path d="M480.467 63.9014L474.776 60.5973L480.467 57.2931V63.9014Z" fill="#282830"/>
<path d="M472.386 45.5579L468.63 47.7227V43.3931L472.386 45.5579Z" fill="#282830"/>
<path d="M452.811 15.9348L451.901 15.3651L452.811 14.7955V15.9348Z" fill="#282830"/>
<path d="M1.67114 437.153L0.306386 437.951V436.47L1.67114 437.153Z" fill="#282830"/>
<path d="M9.97925 453.104L8.49977 452.193L9.97925 451.395V453.104Z" fill="#282830"/>
<path d="M35.9277 498.108L34.6767 497.425L35.9277 496.741V498.108Z" fill="#282830"/>
<path d="M53.7959 497.425L52.4311 498.222V496.627L53.7959 497.425Z" fill="#282830"/>
<path d="M88.0524 498.222L86.6876 497.425L88.0524 496.627V498.222Z" fill="#282830"/>
<path d="M105.92 497.425L104.556 498.222V496.627L105.92 497.425Z" fill="#282830"/>
<path d="M140.177 498.108L138.926 497.425L140.177 496.741V498.108Z" fill="#282830"/>
<path d="M157.931 497.425L156.794 498.108V496.741L157.931 497.425Z" fill="#282830"/>
<path d="M192.302 498.108L191.051 497.425L192.302 496.741V498.108Z" fill="#282830"/>
<path d="M210.056 497.425L208.918 498.108V496.741L210.056 497.425Z" fill="#282830"/>
<path d="M244.426 498.222L243.175 497.425L244.426 496.627V498.222Z" fill="#282830"/>
<path d="M262.294 497.425L260.93 498.222V496.627L262.294 497.425Z" fill="#282830"/>
<path d="M296.551 498.222L295.3 497.425L296.551 496.627V498.222Z" fill="#282830"/>
<path d="M314.419 497.425L313.054 498.222V496.627L314.419 497.425Z" fill="#282830"/>
<path d="M348.903 498.564L346.968 497.425L348.903 496.399V498.564Z" fill="#282830"/>
<path d="M367.113 497.425L364.836 498.792V496.171L367.113 497.425Z" fill="#282830"/>
<path d="M393.744 482.385L390.671 484.208V480.562L393.744 482.385Z" fill="#282830"/>
<path d="M401.597 469.397L397.955 467.346L401.597 465.181V469.397Z" fill="#282830"/>
<path d="M421.058 437.153L416.164 440.115V434.305L421.058 437.153Z" fill="#282830"/>
<path d="M428.342 425.304L422.765 422.114L428.342 418.923V425.304Z" fill="#282830"/>
<path d="M448.145 392.035L441.658 395.795V388.161L448.145 392.035Z" fill="#282830"/>
<path d="M454.86 380.983L447.803 376.881L454.86 372.894V380.983Z" fill="#282830"/>
<path d="M475.687 346.803L467.037 351.816V341.789L475.687 346.803Z" fill="#282830"/>
<path d="M481.832 337.346L472.159 331.763L481.832 326.18V337.346Z" fill="#282830"/>
<path d="M503.684 301.57L492.075 308.292V294.848L503.684 301.57Z" fill="#282830"/>
<path d="M509.033 294.165L495.945 286.531L509.033 279.011V294.165Z" fill="#282830"/>
<path d="M532.705 256.452L516.658 265.681V247.223L532.705 256.452Z" fill="#282830"/>
<path d="M536.347 251.211L519.389 241.299L536.347 231.5V251.211Z" fill="#282830"/>
<path d="M559.792 211.22L542.265 221.36V201.079L559.792 211.22Z" fill="#282830"/>
<path d="M562.523 206.093L545.338 196.18L562.523 186.268V206.093Z" fill="#282830"/>
<path d="M561.84 174.76L546.704 165.987L561.84 157.328V174.76Z" fill="#282830"/>
<path d="M557.288 150.948L543.517 158.923V142.972L557.288 150.948Z" fill="#282830"/>
<path d="M534.412 127.25L523.373 120.869L534.412 114.489V127.25Z" fill="#282830"/>
<path d="M528.266 105.716L518.934 111.185V100.361L528.266 105.716Z" fill="#282830"/>
<path d="M506.87 79.5107L500.156 75.637L506.87 71.7632V79.5107Z" fill="#282830"/>
<path d="M499.473 60.5973L494.238 63.5596V57.6349L499.473 60.5973Z" fill="#282830"/>
<path d="M479.329 31.6577L477.165 30.4045L479.329 29.2651V31.6577Z" fill="#282830"/>
<path d="M470.451 15.3651L469.655 15.9348V14.9094L470.451 15.3651Z" fill="#282830"/>
<path d="M1.55737 467.346L0.306387 468.03V466.548L1.55737 467.346Z" fill="#282830"/>
<path d="M9.86548 483.069L8.7278 482.385L9.86548 481.702V483.069Z" fill="#282830"/>
<path d="M9.63794 512.806L9.06949 512.464L9.63794 512.122V512.806Z" fill="#282830"/>
<path d="M27.2783 512.464L26.5951 512.92V512.122L27.2783 512.464Z" fill="#282830"/>
<path d="M61.8762 513.034L60.9661 512.464L61.8762 512.009V513.034Z" fill="#282830"/>
<path d="M79.5167 512.464L78.7201 513.034V512.009L79.5167 512.464Z" fill="#282830"/>
<path d="M113.887 512.806L113.319 512.464L113.887 512.122V512.806Z" fill="#282830"/>
<path d="M131.528 512.464L130.844 512.806V512.122L131.528 512.464Z" fill="#282830"/>
<path d="M166.012 512.806L165.443 512.464L166.012 512.122V512.806Z" fill="#282830"/>
<path d="M183.538 512.464L182.97 512.806V512.122L183.538 512.464Z" fill="#282830"/>
<path d="M218.136 512.92L217.453 512.464L218.136 512.122V512.92Z" fill="#282830"/>
<path d="M235.891 512.464L235.094 512.92V512.008L235.891 512.464Z" fill="#282830"/>
<path d="M270.375 513.034L269.465 512.464L270.375 511.895V513.034Z" fill="#282830"/>
<path d="M288.129 512.464L287.105 513.148V511.894L288.129 512.464Z" fill="#282830"/>
<path d="M322.613 513.262L321.362 512.464L322.613 511.781V513.262Z" fill="#282830"/>
<path d="M340.709 512.464L339.002 513.49V511.553L340.709 512.464Z" fill="#282830"/>
<path d="M375.079 513.831L372.803 512.464L375.079 511.211V513.831Z" fill="#282830"/>
<path d="M393.516 512.464L390.785 514.059V510.983L393.516 512.464Z" fill="#282830"/>
<path d="M401.369 499.248L398.296 497.425L401.369 495.602V499.248Z" fill="#282830"/>
<path d="M420.489 467.346L416.392 469.625V464.953L420.489 467.346Z" fill="#282830"/>
<path d="M428.001 454.927L423.448 452.193L428.001 449.572V454.927Z" fill="#282830"/>
<path d="M447.462 422.114L441.999 425.304V418.923L447.462 422.114Z" fill="#282830"/>
<path d="M454.404 410.264L448.828 407.074L454.404 403.884V410.264Z" fill="#282830"/>
<path d="M473.979 376.881L467.834 380.527V373.349L473.979 376.881Z" fill="#282830"/>
<path d="M480.922 365.83L473.98 361.842L480.922 357.854V365.83Z" fill="#282830"/>
<path d="M501.635 331.763L493.099 336.662V326.75L501.635 331.763Z" fill="#282830"/>
<path d="M507.781 322.079L498.335 316.724L507.781 311.255V322.079Z" fill="#282830"/>
<path d="M530.201 286.531L517.91 293.595V279.467L530.201 286.531Z" fill="#282830"/>
<path d="M535.323 279.467L521.438 271.491L535.323 263.516V279.467Z" fill="#282830"/>
<path d="M558.995 241.299L542.606 250.869V231.842L558.995 241.299Z" fill="#282830"/>
<path d="M562.409 236.171L545.452 226.259L562.409 216.461V236.171Z" fill="#282830"/>
<path d="M585.285 196.18L568.555 205.751V186.496L585.285 196.18Z" fill="#282830"/>
<path d="M588.13 190.142L572.311 181.141L588.13 172.026V190.142Z" fill="#282830"/>
<path d="M583.692 165.987L569.352 174.305V157.784L583.692 165.987Z" fill="#282830"/>
<path d="M560.475 142.289L549.321 135.908L560.475 129.528V142.289Z" fill="#282830"/>
<path d="M554.557 120.869L544.883 126.452V115.286L554.557 120.869Z" fill="#282830"/>
<path d="M533.047 94.7778L526.104 90.6762L533.047 86.6884V94.7778Z" fill="#282830"/>
<path d="M525.877 75.6368L520.072 78.9409V72.3327L525.877 75.6368Z" fill="#282830"/>
<path d="M505.619 47.2671L502.659 45.5581L505.619 43.849V47.2671Z" fill="#282830"/>
<path d="M497.197 30.4046L495.376 31.5439V29.3791L497.197 30.4046Z" fill="#282830"/>
<path d="M1.32959 497.425L0.532582 497.88V496.969L1.32959 497.425Z" fill="#282830"/>
<path d="M0.874512 527.617H0.760779V527.503L0.874512 527.617Z" fill="#282830"/>
<path d="M35.7002 527.845L35.2455 527.618L35.7002 527.276V527.845Z" fill="#282830"/>
<path d="M53.2268 527.618L52.772 527.845V527.276L53.2268 527.618Z" fill="#282830"/>
<path d="M87.7109 527.731L87.3699 527.618L87.7109 527.39V527.731Z" fill="#282830"/>
<path d="M105.124 527.618L104.896 527.731V527.39L105.124 527.618Z" fill="#282830"/>
<path d="M139.836 527.617H139.722L139.836 527.503V527.617Z" fill="#282830"/>
<path d="M157.248 527.617H157.135V527.503L157.248 527.617Z" fill="#282830"/>
<path d="M191.96 527.731L191.733 527.618L191.96 527.39V527.731Z" fill="#282830"/>
<path d="M209.487 527.618L209.146 527.731V527.39L209.487 527.618Z" fill="#282830"/>
<path d="M244.199 527.959L243.63 527.617L244.199 527.162V527.959Z" fill="#282830"/>
<path d="M261.953 527.618L261.156 528.073V527.048L261.953 527.618Z" fill="#282830"/>
<path d="M296.551 528.187L295.413 527.618L296.551 526.934V528.187Z" fill="#282830"/>
<path d="M314.305 527.617L313.054 528.301V526.82L314.305 527.617Z" fill="#282830"/>
<path d="M348.903 528.529L347.082 527.618L348.903 526.592V528.529Z" fill="#282830"/>
<path d="M367.113 527.617L364.949 528.757V526.364L367.113 527.617Z" fill="#282830"/>
<path d="M401.369 529.213L398.524 527.618L401.369 525.909V529.213Z" fill="#282830"/>
<path d="M420.034 497.425L416.619 499.362V495.488L420.034 497.425Z" fill="#282830"/>
<path d="M427.773 484.55L423.903 482.385L427.773 480.221V484.55Z" fill="#282830"/>
<path d="M447.007 452.193L442.227 454.927V449.572L447.007 452.193Z" fill="#282830"/>
<path d="M454.177 440.115L449.169 437.153L454.177 434.305V440.115Z" fill="#282830"/>
<path d="M473.183 407.074L468.289 409.923V404.226L473.183 407.074Z" fill="#282830"/>
<path d="M480.239 394.883L475.231 392.035L480.239 389.072V394.883Z" fill="#282830"/>
<path d="M499.814 361.842L494.01 365.26V358.538L499.814 361.842Z" fill="#282830"/>
<path d="M506.87 350.562L500.269 346.802L506.87 343.043V350.562Z" fill="#282830"/>
<path d="M527.584 316.724L519.276 321.509V311.824L527.584 316.724Z" fill="#282830"/>
<path d="M533.957 307.153L524.283 301.57L533.957 295.987V307.153Z" fill="#282830"/>
<path d="M556.946 271.491L543.631 279.125V263.858L556.946 271.491Z" fill="#282830"/>
<path d="M561.726 264.997L546.931 256.452L561.726 247.907V264.997Z" fill="#282830"/>
<path d="M585.285 226.259L568.555 235.944V216.689L585.285 226.259Z" fill="#282830"/>
<path d="M588.358 220.904L571.742 211.22L588.358 201.535V220.904Z" fill="#282830"/>
<path d="M610.551 181.141L595.073 190.028V172.14L610.551 181.141Z" fill="#282830"/>
<path d="M586.878 157.898L574.815 150.948L586.878 143.998V157.898Z" fill="#282830"/>
<path d="M580.846 135.909L570.717 141.719V130.098L580.846 135.909Z" fill="#282830"/>
<path d="M559.109 109.703L552.167 105.716L559.109 101.842V109.703Z" fill="#282830"/>
<path d="M551.939 90.6763L546.135 93.9805V87.3722L551.939 90.6763Z" fill="#282830"/>
<path d="M531.908 62.6482L528.38 60.5974L531.908 58.5465V62.6482Z" fill="#282830"/>
<path d="M523.6 45.558L521.21 46.8113V44.1908L523.6 45.558Z" fill="#282830"/>
<path d="M504.822 15.707L504.253 15.3652L504.822 15.0234V15.707Z" fill="#282830"/>
<path d="M61.6487 542.657H61.535L61.6487 542.543V542.657Z" fill="#282830"/>
<path d="M218.023 542.771L217.795 542.657L218.023 542.543V542.771Z" fill="#282830"/>
<path d="M235.663 542.657L235.208 542.885V542.429L235.663 542.657Z" fill="#282830"/>
<path d="M270.375 543.113L269.578 542.657L270.375 542.201V543.113Z" fill="#282830"/>
<path d="M288.129 542.657L287.105 543.227V542.087L288.129 542.657Z" fill="#282830"/>
<path d="M322.613 543.455L321.362 542.657L322.613 541.86V543.455Z" fill="#282830"/>
<path d="M340.709 542.657L339.002 543.568V541.745L340.709 542.657Z" fill="#282830"/>
<path d="M375.079 543.91L372.916 542.657L375.079 541.404V543.91Z" fill="#282830"/>
<path d="M393.289 542.657L390.899 544.024V541.176L393.289 542.657Z" fill="#282830"/>
<path d="M419.806 527.618L416.733 529.327V525.795L419.806 527.618Z" fill="#282830"/>
<path d="M427.545 514.515L424.245 512.464L427.545 510.527V514.515Z" fill="#282830"/>
<path d="M446.552 482.385L442.454 484.778V479.993L446.552 482.385Z" fill="#282830"/>
<path d="M453.949 469.853L449.624 467.346L453.949 464.725V469.853Z" fill="#282830"/>
<path d="M472.841 437.153L468.403 439.773V434.646L472.841 437.153Z" fill="#282830"/>
<path d="M480.011 424.62L475.686 422.114L480.011 419.607V424.62Z" fill="#282830"/>
<path d="M498.676 392.035L494.579 394.313V389.642L498.676 392.035Z" fill="#282830"/>
<path d="M506.074 379.274L501.862 376.881L506.074 374.489V379.274Z" fill="#282830"/>
<path d="M525.649 346.803L520.186 349.993V343.612L525.649 346.803Z" fill="#282830"/>
<path d="M532.819 335.409L526.446 331.763L532.819 328.003V335.409Z" fill="#282830"/>
<path d="M553.987 301.57L545.11 306.697V296.557L553.987 301.57Z" fill="#282830"/>
<path d="M560.361 292.797L549.663 286.531L560.361 280.378V292.797Z" fill="#282830"/>
<path d="M583.692 256.452L569.352 264.769V248.135L583.692 256.452Z" fill="#282830"/>
<path d="M588.016 250.413L572.424 241.299L588.016 232.298V250.413Z" fill="#282830"/>
<path d="M611.234 211.22L594.731 220.79V201.649L611.234 211.22Z" fill="#282830"/>
<path d="M614.42 205.637L597.918 196.18L614.42 186.61V205.637Z" fill="#282830"/>
<path d="M613.51 173.963L599.739 165.987L613.51 158.126V173.963Z" fill="#282830"/>
<path d="M607.933 150.948L596.324 157.67V144.226L607.933 150.948Z" fill="#282830"/>
<path d="M585.399 125.312L577.66 120.869L585.399 116.426V125.312Z" fill="#282830"/>
<path d="M578.115 105.716L572.197 109.248V102.298L578.115 105.716Z" fill="#282830"/>
<path d="M557.971 77.8015L554.328 75.6368L557.971 73.5859V77.8015Z" fill="#282830"/>
<path d="M549.776 60.5975L547.273 62.0786V59.1163L549.776 60.5975Z" fill="#282830"/>
<path d="M530.998 30.9741L530.201 30.4044L530.998 29.9487V30.9741Z" fill="#282830"/>
<path d="M522.121 15.3651L521.893 15.479V15.2511L522.121 15.3651Z" fill="#282830"/>
<path d="M244.199 557.924L243.744 557.696L244.199 557.469V557.924Z" fill="#282830"/>
<path d="M261.839 557.697L261.156 558.038V557.355L261.839 557.697Z" fill="#282830"/>
<path d="M296.437 558.266L295.527 557.696L296.437 557.127V558.266Z" fill="#282830"/>
<path d="M314.305 557.697L313.167 558.38V557.013L314.305 557.697Z" fill="#282830"/>
<path d="M348.789 558.608L347.196 557.696L348.789 556.785V558.608Z" fill="#282830"/>
<path d="M366.885 557.696L364.95 558.836V556.557L366.885 557.696Z" fill="#282830"/>
<path d="M401.255 559.064L398.752 557.696L401.255 556.329V559.064Z" fill="#282830"/>
<path d="M419.465 557.696L416.961 559.177V556.215L419.465 557.696Z" fill="#282830"/>
<path d="M427.432 544.366L424.472 542.657L427.432 540.948V544.366Z" fill="#282830"/>
<path d="M446.324 512.464L442.568 514.629V510.413L446.324 512.464Z" fill="#282830"/>
<path d="M453.835 499.703L449.852 497.425L453.835 495.146V499.703Z" fill="#282830"/>
<path d="M472.614 467.346L468.516 469.739V464.953L472.614 467.346Z" fill="#282830"/>
<path d="M479.898 454.585L475.914 452.193L479.898 449.914V454.585Z" fill="#282830"/>
<path d="M498.221 422.114L494.806 424.051V420.177L498.221 422.114Z" fill="#282830"/>
<path d="M505.732 408.897L502.545 407.074L505.732 405.251V408.897Z" fill="#282830"/>
<path d="M524.169 376.881L520.982 378.818V375.058L524.169 376.881Z" fill="#282830"/>
<path d="M531.908 363.893L528.266 361.842L531.908 359.791V363.893Z" fill="#282830"/>
<path d="M551.597 331.763L546.248 334.839V328.687L551.597 331.763Z" fill="#282830"/>
<path d="M558.995 320.483L552.394 316.724L558.995 312.85V320.483Z" fill="#282830"/>
<path d="M580.96 286.531L570.717 292.455V280.606L580.96 286.531Z" fill="#282830"/>
<path d="M586.992 278.669L574.587 271.491L586.992 264.313V278.669Z" fill="#282830"/>
<path d="M610.551 241.298L595.073 250.299V232.412L610.551 241.298Z" fill="#282830"/>
<path d="M614.42 235.83L597.918 226.259L614.42 216.802V235.83Z" fill="#282830"/>
<path d="M637.523 196.18L620.68 205.865V186.382L637.523 196.18Z" fill="#282830"/>
<path d="M640.255 190.369L624.322 181.141L640.255 171.798V190.369Z" fill="#282830"/>
<path d="M635.589 165.987L621.59 174.077V158.012L635.589 165.987Z" fill="#282830"/>
<path d="M611.916 141.263L602.812 135.908L611.916 130.553V141.263Z" fill="#282830"/>
<path d="M604.974 120.869L597.804 124.971V116.653L604.974 120.869Z" fill="#282830"/>
<path d="M584.147 93.0688L580.163 90.6762L584.147 88.3975V93.0688Z" fill="#282830"/>
<path d="M576.066 75.6369L573.221 77.3459V74.0418L576.066 75.6369Z" fill="#282830"/>
<path d="M557.06 46.0137L556.15 45.558L557.06 44.9883V46.0137Z" fill="#282830"/>
<path d="M548.297 30.4045L547.956 30.6323V30.2905L548.297 30.4045Z" fill="#282830"/>
<path d="M218.023 572.85L217.909 572.736H218.023V572.85Z" fill="#282830"/>
<path d="M235.549 572.736L235.208 572.85V572.622L235.549 572.736Z" fill="#282830"/>
<path d="M270.261 573.078L269.693 572.736L270.261 572.394V573.078Z" fill="#282830"/>
<path d="M288.015 572.736L287.219 573.305V572.28L288.015 572.736Z" fill="#282830"/>
<path d="M322.613 573.419L321.362 572.736L322.613 572.052V573.419Z" fill="#282830"/>
<path d="M340.595 572.736L339.116 573.647V571.938L340.595 572.736Z" fill="#282830"/>
<path d="M374.965 573.875L373.031 572.736L374.965 571.71V573.875Z" fill="#282830"/>
<path d="M393.175 572.736L391.012 573.989V571.483L393.175 572.736Z" fill="#282830"/>
<path d="M427.318 574.217L424.814 572.736L427.318 571.255V574.217Z" fill="#282830"/>
<path d="M445.982 542.657L442.795 544.48V540.72L445.982 542.657Z" fill="#282830"/>
<path d="M453.721 529.554L450.193 527.618L453.721 525.567V529.554Z" fill="#282830"/>
<path d="M472.386 497.425L468.63 499.59V495.26L472.386 497.425Z" fill="#282830"/>
<path d="M479.784 484.55L476.142 482.385L479.784 480.221V484.55Z" fill="#282830"/>
<path d="M498.221 452.193L494.806 454.129V450.37L498.221 452.193Z" fill="#282830"/>
<path d="M505.619 438.862L502.659 437.153L505.619 435.444V438.862Z" fill="#282830"/>
<path d="M523.487 407.074L521.323 408.327V405.707L523.487 407.074Z" fill="#282830"/>
<path d="M531.453 393.174L529.29 392.035L531.453 390.781V393.174Z" fill="#282830"/>
<path d="M549.89 361.842L547.159 363.437V360.361L549.89 361.842Z" fill="#282830"/>
<path d="M557.857 348.739L554.442 346.802L557.857 344.865V348.739Z" fill="#282830"/>
<path d="M578.001 316.724L572.197 320.028V313.306L578.001 316.724Z" fill="#282830"/>
<path d="M585.285 305.9L577.887 301.57L585.285 297.355V305.9Z" fill="#282830"/>
<path d="M608.274 271.491L596.211 278.441V264.541L608.274 271.491Z" fill="#282830"/>
<path d="M613.623 264.541L599.511 256.452L613.623 248.362V264.541Z" fill="#282830"/>
<path d="M637.523 226.259L620.68 236.058V216.575L637.523 226.259Z" fill="#282830"/>
<path d="M640.71 221.246L623.411 211.22L640.71 201.193V221.246Z" fill="#282830"/>
<path d="M663.358 181.141L646.856 190.711V171.57L663.358 181.141Z" fill="#282830"/>
<path d="M638.889 157.784L627.053 150.948L638.889 144.112V157.784Z" fill="#282830"/>
<path d="M632.402 135.908L623.183 141.263V130.553L632.402 135.908Z" fill="#282830"/>
<path d="M610.551 108.678L605.657 105.716L610.551 102.867V108.678Z" fill="#282830"/>
<path d="M602.584 90.6762L599.055 92.7271V88.6254L602.584 90.6762Z" fill="#282830"/>
<path d="M583.236 61.395L581.985 60.5975L583.236 59.8V61.395Z" fill="#282830"/>
<path d="M574.473 45.558L574.018 45.7859V45.2162L574.473 45.558Z" fill="#282830"/>
<path d="M244.085 588.003L243.744 587.775L244.085 587.661V588.003Z" fill="#282830"/>
<path d="M261.725 587.775L261.271 588.117V587.548L261.725 587.775Z" fill="#282830"/>
<path d="M296.437 588.345L295.527 587.775L296.437 587.32V588.345Z" fill="#282830"/>
<path d="M314.305 587.775L313.167 588.459V587.206L314.305 587.775Z" fill="#282830"/>
<path d="M348.789 588.687L347.31 587.775L348.789 586.978V588.687Z" fill="#282830"/>
<path d="M366.771 587.775L365.064 588.801V586.864L366.771 587.775Z" fill="#282830"/>
<path d="M401.142 589.029L398.978 587.775L401.142 586.636V589.029Z" fill="#282830"/>
<path d="M419.237 587.775L416.961 589.143V586.522L419.237 587.775Z" fill="#282830"/>
<path d="M445.641 572.736L442.91 574.331V571.255L445.641 572.736Z" fill="#282830"/>
<path d="M453.494 559.406L450.535 557.696L453.494 555.987V559.406Z" fill="#282830"/>
<path d="M472.272 527.618L468.744 529.554V525.567L472.272 527.618Z" fill="#282830"/>
<path d="M479.784 514.515L476.255 512.464L479.784 510.413V514.515Z" fill="#282830"/>
<path d="M498.221 482.385L494.806 484.322V480.448L498.221 482.385Z" fill="#282830"/>
<path d="M505.619 469.055L502.659 467.346L505.619 465.523V469.055Z" fill="#282830"/>
<path d="M523.6 437.153L521.21 438.52V435.9L523.6 437.153Z" fill="#282830"/>
<path d="M531.339 423.139L529.518 422.113L531.339 421.088V423.139Z" fill="#282830"/>
<path d="M548.866 392.035L547.728 392.718V391.237L548.866 392.035Z" fill="#282830"/>
<path d="M557.288 377.793L555.808 376.881L557.288 376.084V377.793Z" fill="#282830"/>
<path d="M575.953 346.803L573.221 348.284V345.207L575.953 346.803Z" fill="#282830"/>
<path d="M584.147 333.928L580.277 331.763L584.147 329.484V333.928Z" fill="#282830"/>
<path d="M604.86 301.57L597.918 305.672V297.582L604.86 301.57Z" fill="#282830"/>
<path d="M612.03 292L602.584 286.531L612.03 281.062V292Z" fill="#282830"/>
<path d="M635.703 256.452L621.59 264.655V248.249L635.703 256.452Z" fill="#282830"/>
<path d="M640.255 250.641L624.322 241.298L640.255 232.07V250.641Z" fill="#282830"/>
<path d="M664.269 211.22L646.401 221.588V200.851L664.269 211.22Z" fill="#282830"/>
<path d="M667 206.548L649.018 196.18L667 185.812V206.548Z" fill="#282830"/>
<path d="M665.976 174.76L651.067 165.987L665.976 157.328V174.76Z" fill="#282830"/>
<path d="M660.513 150.948L648.221 158.012V143.884L660.513 150.948Z" fill="#282830"/>
<path d="M637.296 124.857L630.353 120.869L637.296 116.881V124.857Z" fill="#282830"/>
<path d="M629.443 105.716L624.663 108.564V102.981L629.443 105.716Z" fill="#282830"/>
<path d="M609.526 76.7761L607.592 75.6368L609.526 74.4974V76.7761Z" fill="#282830"/>
<path d="M600.877 60.5973L599.853 61.167V60.0276L600.877 60.5973Z" fill="#282830"/>
<path d="M218.023 602.929H217.909L218.023 602.815V602.929Z" fill="#282830"/>
<path d="M235.549 602.929L235.208 603.042V602.701L235.549 602.929Z" fill="#282830"/>
<path d="M270.261 603.271L269.693 602.929L270.261 602.587V603.271Z" fill="#282830"/>
<path d="M287.901 602.929L287.218 603.271V602.473L287.901 602.929Z" fill="#282830"/>
<path d="M322.613 603.498L321.476 602.929L322.613 602.245V603.498Z" fill="#282830"/>
<path d="M340.481 602.929L339.117 603.726V602.131L340.481 602.929Z" fill="#282830"/>
<path d="M374.965 603.954L373.145 602.929L374.965 601.903V603.954Z" fill="#282830"/>
<path d="M392.947 602.929L391.126 603.954V601.789L392.947 602.929Z" fill="#282830"/>
<path d="M427.204 604.182L425.041 602.929L427.204 601.675V604.182Z" fill="#282830"/>
<path d="M445.413 602.929L443.023 604.182V601.561L445.413 602.929Z" fill="#282830"/>
<path d="M453.38 589.256L450.876 587.775L453.38 586.294V589.256Z" fill="#282830"/>
<path d="M471.931 557.696L468.858 559.406V555.987L471.931 557.696Z" fill="#282830"/>
<path d="M479.67 544.48L476.369 542.657L479.67 540.72V544.48Z" fill="#282830"/>
<path d="M498.107 512.464L494.92 514.401V510.641L498.107 512.464Z" fill="#282830"/>
<path d="M505.732 499.248L502.545 497.425L505.732 495.602V499.248Z" fill="#282830"/>
<path d="M523.714 467.346L521.21 468.713V465.865L523.714 467.346Z" fill="#282830"/>
<path d="M531.453 453.446L529.29 452.193L531.453 451.053V453.446Z" fill="#282830"/>
<path d="M548.866 422.114L547.728 422.797V421.43L548.866 422.114Z" fill="#282830"/>
<path d="M557.06 407.416L556.263 407.074L557.06 406.618V407.416Z" fill="#282830"/>
<path d="M574.701 376.881L573.904 377.337V376.54L574.701 376.881Z" fill="#282830"/>
<path d="M583.236 362.525L582.099 361.842L583.236 361.158V362.525Z" fill="#282830"/>
<path d="M602.356 331.763L599.055 333.586V329.826L602.356 331.763Z" fill="#282830"/>
<path d="M610.437 319.458L605.771 316.724L610.437 313.875V319.458Z" fill="#282830"/>
<path d="M632.516 286.531L623.183 292V281.062L632.516 286.531Z" fill="#282830"/>
<path d="M639.003 278.441L626.939 271.491L639.003 264.427V278.441Z" fill="#282830"/>
<path d="M663.244 241.299L646.856 250.755V231.842L663.244 241.299Z" fill="#282830"/>
<path d="M667 236.627L649.132 226.259L667 216.005V236.627Z" fill="#282830"/>
<path d="M664.269 141.605L654.481 135.908L664.269 130.212V141.605Z" fill="#282830"/>
<path d="M657.099 120.869L649.929 124.971V116.653L657.099 120.869Z" fill="#282830"/>
<path d="M636.044 92.4993L632.857 90.6763L636.044 88.8534V92.4993Z" fill="#282830"/>
<path d="M627.394 75.6367L625.687 76.6621V74.6113L627.394 75.6367Z" fill="#282830"/>
<path d="M209.373 617.968H209.259V617.854L209.373 617.968Z" fill="#282830"/>
<path d="M244.199 618.196L243.744 617.968L244.199 617.74V618.196Z" fill="#282830"/>
<path d="M261.839 617.968L261.156 618.31V617.626L261.839 617.968Z" fill="#282830"/>
<path d="M296.437 618.424L295.527 617.968L296.437 617.398V618.424Z" fill="#282830"/>
<path d="M314.305 617.968L313.167 618.538V617.285L314.305 617.968Z" fill="#282830"/>
<path d="M348.789 618.766L347.31 617.968L348.789 617.171V618.766Z" fill="#282830"/>
<path d="M366.771 617.968L365.064 618.88V617.057L366.771 617.968Z" fill="#282830"/>
<path d="M401.028 619.107L399.093 617.968L401.028 616.829V619.107Z" fill="#282830"/>
<path d="M419.124 617.968L417.075 619.107V616.715L419.124 617.968Z" fill="#282830"/>
<path d="M453.266 619.335L450.99 617.968L453.266 616.601V619.335Z" fill="#282830"/>
<path d="M471.589 587.775L469.086 589.37V586.294L471.589 587.775Z" fill="#282830"/>
<path d="M479.556 574.331L476.711 572.736L479.556 571.141V574.331Z" fill="#282830"/>
<path d="M497.993 542.657L494.92 544.48V540.834L497.993 542.657Z" fill="#282830"/>
<path d="M505.732 529.327L502.545 527.618L505.732 525.795V529.327Z" fill="#282830"/>
<path d="M523.828 497.425L521.097 499.02V495.83L523.828 497.425Z" fill="#282830"/>
<path d="M531.567 483.752L529.063 482.385L531.567 480.904V483.752Z" fill="#282830"/>
<path d="M549.094 452.192L547.5 453.218V451.281L549.094 452.192Z" fill="#282830"/>
<path d="M557.174 437.837L556.036 437.153L557.174 436.583V437.837Z" fill="#282830"/>
<path d="M574.245 407.074L574.132 407.188V406.96L574.245 407.074Z" fill="#282830"/>
<path d="M582.895 392.035H582.781L582.895 391.921V392.035Z" fill="#282830"/>
<path d="M600.649 361.842L599.966 362.298V361.5L600.649 361.842Z" fill="#282830"/>
<path d="M609.412 347.714L607.819 346.802L609.412 345.891V347.714Z" fill="#282830"/>
<path d="M629.329 316.723L624.777 319.344V313.989L629.329 316.723Z" fill="#282830"/>
<path d="M637.182 305.444L630.581 301.57L637.182 297.81V305.444Z" fill="#282830"/>
<path d="M660.513 271.491L648.221 278.555V264.313L660.513 271.491Z" fill="#282830"/>
<path d="M665.976 264.997L651.067 256.452L665.976 247.793V264.997Z" fill="#282830"/>
<path d="M662.675 108.678L657.667 105.716L662.675 102.867V108.678Z" fill="#282830"/>
<path d="M654.481 90.6761L651.294 92.613V88.8532L654.481 90.6761Z" fill="#282830"/>
<path d="M635.133 60.9392L634.565 60.5974L635.133 60.2556V60.9392Z" fill="#282830"/>
<path d="M218.023 633.122L217.795 633.008L218.023 632.894V633.122Z" fill="#282830"/>
<path d="M235.549 633.007L235.208 633.235V632.78L235.549 633.007Z" fill="#282830"/>
<path d="M270.261 633.349L269.693 633.008L270.261 632.666V633.349Z" fill="#282830"/>
<path d="M288.015 633.008L287.218 633.463V632.552L288.015 633.008Z" fill="#282830"/>
<path d="M322.613 633.691L321.362 633.008L322.613 632.324V633.691Z" fill="#282830"/>
<path d="M340.481 633.008L339.117 633.805V632.21L340.481 633.008Z" fill="#282830"/>
<path d="M374.852 633.919L373.258 633.007L374.852 632.096V633.919Z" fill="#282830"/>
<path d="M392.947 633.008L391.126 634.033V631.982L392.947 633.008Z" fill="#282830"/>
<path d="M427.204 634.261L425.041 633.007L427.204 631.754V634.261Z" fill="#282830"/>
<path d="M445.3 633.008L443.023 634.375V631.64L445.3 633.008Z" fill="#282830"/>
<path d="M471.476 617.968L469.086 619.335V616.601L471.476 617.968Z" fill="#282830"/>
<path d="M479.442 604.41L476.939 602.929L479.442 601.448V604.41Z" fill="#282830"/>
<path d="M497.879 572.736L495.034 574.331V571.141L497.879 572.736Z" fill="#282830"/>
<path d="M505.619 559.406L502.659 557.696L505.619 555.987V559.406Z" fill="#282830"/>
<path d="M524.056 527.618L520.982 529.327V525.795L524.056 527.618Z" fill="#282830"/>
<path d="M531.567 514.059L528.836 512.464L531.567 510.869V514.059Z" fill="#282830"/>
<path d="M549.435 482.385L547.387 483.525V481.132L549.435 482.385Z" fill="#282830"/>
<path d="M557.288 468.257L555.695 467.346L557.288 466.434V468.257Z" fill="#282830"/>
<path d="M574.587 437.153L573.904 437.495V436.811L574.587 437.153Z" fill="#282830"/>
<path d="M582.895 422.228L582.668 422.114L582.895 422V422.228Z" fill="#282830"/>
<path d="M627.281 346.803L625.801 347.6V346.005L627.281 346.803Z" fill="#282830"/>
<path d="M635.816 333.244L633.199 331.763L635.816 330.168V333.244Z" fill="#282830"/>
<path d="M656.757 301.57L650.156 305.444V297.697L656.757 301.57Z" fill="#282830"/>
<path d="M664.269 292.114L654.595 286.531L664.269 280.948V292.114Z" fill="#282830"/>
<path d="M661.651 76.7761L659.715 75.6368L661.651 74.6114V76.7761Z" fill="#282830"/>
<path d="M652.774 60.5975L652.091 61.0532V60.1418L652.774 60.5975Z" fill="#282830"/>
<path d="M209.373 648.047L209.259 648.161V648.047H209.373Z" fill="#282830"/>
<path d="M244.199 648.389L243.744 648.047L244.199 647.819V648.389Z" fill="#282830"/>
<path d="M261.839 648.047L261.156 648.389V647.705L261.839 648.047Z" fill="#282830"/>
<path d="M296.437 648.617L295.527 648.047L296.437 647.477V648.617Z" fill="#282830"/>
<path d="M314.305 648.047L313.167 648.731V647.477L314.305 648.047Z" fill="#282830"/>
<path d="M348.676 648.844L347.311 648.047L348.676 647.249V648.844Z" fill="#282830"/>
<path d="M366.771 648.047L365.064 649.073V647.136L366.771 648.047Z" fill="#282830"/>
<path d="M401.028 649.186L399.093 648.047L401.028 647.022V649.186Z" fill="#282830"/>
<path d="M419.124 648.047L417.075 649.186V646.908L419.124 648.047Z" fill="#282830"/>
<path d="M453.266 649.414L450.99 648.047L453.266 646.794V649.414Z" fill="#282830"/>
<path d="M471.476 648.047L469.086 649.528V646.68L471.476 648.047Z" fill="#282830"/>
<path d="M479.442 634.489L476.939 633.008L479.442 631.526V634.489Z" fill="#282830"/>
<path d="M497.766 602.929L495.034 604.41V601.334L497.766 602.929Z" fill="#282830"/>
<path d="M505.505 589.37L502.887 587.775L505.505 586.294V589.37Z" fill="#282830"/>
<path d="M523.942 557.696L521.097 559.292V556.101L523.942 557.696Z" fill="#282830"/>
<path d="M531.681 544.366L528.721 542.657L531.681 540.948V544.366Z" fill="#282830"/>
<path d="M549.776 512.464L547.273 513.945V510.983L549.776 512.464Z" fill="#282830"/>
<path d="M557.516 498.678L555.352 497.425L557.516 496.171V498.678Z" fill="#282830"/>
<path d="M575.042 467.346L573.677 468.03V466.548L575.042 467.346Z" fill="#282830"/>
<path d="M583.123 452.762L582.326 452.193L583.123 451.737V452.762Z" fill="#282830"/>
<path d="M635.02 361.956L634.792 361.842L635.02 361.728V361.956Z" fill="#282830"/>
<path d="M654.026 331.763L651.522 333.244V330.282L654.026 331.763Z" fill="#282830"/>
<path d="M662.447 319.23L658.122 316.724L662.447 314.103V319.23Z" fill="#282830"/>
<path d="M497.766 633.007L495.034 634.603V631.412L497.766 633.007Z" fill="#282830"/>
<path d="M505.505 619.449L502.887 617.968L505.505 616.373V619.449Z" fill="#282830"/>
<path d="M523.942 587.775L521.097 589.484V586.18L523.942 587.775Z" fill="#282830"/>
<path d="M531.681 574.445L528.836 572.736L531.681 571.141V574.445Z" fill="#282830"/>
<path d="M550.004 542.657L547.159 544.252V540.948L550.004 542.657Z" fill="#282830"/>
<path d="M557.629 529.099L555.012 527.617L557.629 526.022V529.099Z" fill="#282830"/>
<path d="M575.497 497.425L573.449 498.564V496.285L575.497 497.425Z" fill="#282830"/>
<path d="M583.35 483.297L581.757 482.385L583.35 481.474V483.297Z" fill="#282830"/>
<path d="M600.649 452.192L599.966 452.648V451.851L600.649 452.192Z" fill="#282830"/>
<path d="M608.957 437.381L608.73 437.153L608.957 437.039V437.381Z" fill="#282830"/>
<path d="M652.432 361.842L652.319 361.956V361.728L652.432 361.842Z" fill="#282830"/>
<path d="M661.423 347.486L660.285 346.802L661.423 346.119V347.486Z" fill="#282830"/>
<path d="M505.505 649.642L502.887 648.047L505.505 646.452V649.642Z" fill="#282830"/>
<path d="M523.942 617.968L521.097 619.563V616.373L523.942 617.968Z" fill="#282830"/>
<path d="M531.681 604.524L528.836 602.929L531.681 601.22V604.524Z" fill="#282830"/>
<path d="M550.004 572.736L547.159 574.445V571.027L550.004 572.736Z" fill="#282830"/>
<path d="M557.743 559.292L554.898 557.696L557.743 556.101V559.292Z" fill="#282830"/>
<path d="M575.839 527.618L573.335 528.985V526.136L575.839 527.618Z" fill="#282830"/>
<path d="M583.578 513.831L581.302 512.464L583.578 511.211V513.831Z" fill="#282830"/>
<path d="M601.218 482.385L599.739 483.297V481.474L601.218 482.385Z" fill="#282830"/>
<path d="M609.299 467.916L608.161 467.346L609.299 466.662V467.916Z" fill="#282830"/>
<path d="M626.484 437.153L626.143 437.381V437.039L626.484 437.153Z" fill="#282830"/>
<path d="M523.942 648.047L521.097 649.756V646.452L523.942 648.047Z" fill="#282830"/>
<path d="M531.681 634.717L528.721 633.008L531.681 631.298V634.717Z" fill="#282830"/>
<path d="M550.004 602.929L547.159 604.638V601.22L550.004 602.929Z" fill="#282830"/>
<path d="M557.743 589.484L554.784 587.775L557.743 586.066V589.484Z" fill="#282830"/>
<path d="M576.066 557.696L573.221 559.292V556.101L576.066 557.696Z" fill="#282830"/>
<path d="M583.692 544.252L580.96 542.657L583.692 541.062V544.252Z" fill="#282830"/>
<path d="M601.673 512.464L599.51 513.718V511.211L601.673 512.464Z" fill="#282830"/>
<path d="M609.526 498.564L607.592 497.425L609.526 496.285V498.564Z" fill="#282830"/>
<path d="M627.053 467.346L625.915 467.916V466.662L627.053 467.346Z" fill="#282830"/>
<path d="M635.247 452.648L634.45 452.192L635.247 451.851V452.648Z" fill="#282830"/>
<path d="M550.118 633.008L547.045 634.831V631.185L550.118 633.008Z" fill="#282830"/>
<path d="M557.857 619.677L554.67 617.968L557.857 616.145V619.677Z" fill="#282830"/>
<path d="M576.18 587.775L573.107 589.598V586.066L576.18 587.775Z" fill="#282830"/>
<path d="M583.805 574.445L580.846 572.736L583.805 571.027V574.445Z" fill="#282830"/>
<path d="M602.129 542.657L599.284 544.252V540.948L602.129 542.657Z" fill="#282830"/>
<path d="M609.754 529.099L607.136 527.617L609.754 526.136V529.099Z" fill="#282830"/>
<path d="M627.622 497.425L625.574 498.564V496.285L627.622 497.425Z" fill="#282830"/>
<path d="M635.475 483.297L633.882 482.385L635.475 481.474V483.297Z" fill="#282830"/>
<path d="M652.888 452.192L652.091 452.648V451.851L652.888 452.192Z" fill="#282830"/>
<path d="M661.195 437.381L660.741 437.153L661.195 436.925V437.381Z" fill="#282830"/>
<path d="M557.857 649.87L554.67 648.047L557.857 646.224V649.87Z" fill="#282830"/>
<path d="M576.294 617.968L573.107 619.791V616.145L576.294 617.968Z" fill="#282830"/>
<path d="M583.919 604.752L580.732 602.929L583.919 600.992V604.752Z" fill="#282830"/>
<path d="M602.243 572.736L599.169 574.559V571.027L602.243 572.736Z" fill="#282830"/>
<path d="M609.868 559.406L606.908 557.696L609.868 555.987V559.406Z" fill="#282830"/>
<path d="M628.077 527.617L625.346 529.099V526.022L628.077 527.617Z" fill="#282830"/>
<path d="M635.816 513.945L633.312 512.464L635.816 511.097V513.945Z" fill="#282830"/>
<path d="M653.571 482.385L651.75 483.411V481.36L653.571 482.385Z" fill="#282830"/>
<path d="M661.423 468.03L660.172 467.346L661.423 466.548V468.03Z" fill="#282830"/>
<path d="M576.294 648.047L573.107 649.984V646.224L576.294 648.047Z" fill="#282830"/>
<path d="M583.919 634.944L580.618 633.007L583.919 631.071V634.944Z" fill="#282830"/>
<path d="M602.47 602.929L599.056 604.865V600.992L602.47 602.929Z" fill="#282830"/>
<path d="M609.982 589.712L606.795 587.775L609.982 585.952V589.712Z" fill="#282830"/>
<path d="M628.305 557.696L625.232 559.519V555.873L628.305 557.696Z" fill="#282830"/>
<path d="M635.93 544.366L632.971 542.657L635.93 540.948V544.366Z" fill="#282830"/>
<path d="M653.912 512.464L651.522 513.945V511.097L653.912 512.464Z" fill="#282830"/>
<path d="M661.765 498.678L659.601 497.425L661.765 496.171V498.678Z" fill="#282830"/>
<path d="M602.584 633.008L599.055 635.058V630.957L602.584 633.008Z" fill="#282830"/>
<path d="M610.095 620.019L606.567 617.968L610.095 615.917V620.019Z" fill="#282830"/>
<path d="M628.532 587.775L625.118 589.712V585.838L628.532 587.775Z" fill="#282830"/>
<path d="M636.044 574.673L632.743 572.736L636.044 570.799V574.673Z" fill="#282830"/>
<path d="M654.367 542.657L651.294 544.366V540.834L654.367 542.657Z" fill="#282830"/>
<path d="M661.992 529.213L659.147 527.618L661.992 525.909V529.213Z" fill="#282830"/>
<path d="M610.095 650.098L606.567 648.047L610.095 646.11V650.098Z" fill="#282830"/>
<path d="M628.646 617.968L625.118 620.019V615.917L628.646 617.968Z" fill="#282830"/>
<path d="M636.158 604.979L632.629 602.929L636.158 600.878V604.979Z" fill="#282830"/>
<path d="M654.595 572.736L651.18 574.673V570.799L654.595 572.736Z" fill="#282830"/>
<path d="M662.106 559.633L658.805 557.696L662.106 555.76V559.633Z" fill="#282830"/>
<path d="M628.646 648.047L625.118 650.212V645.996L628.646 648.047Z" fill="#282830"/>
<path d="M636.158 635.172L632.515 633.008L636.158 630.843V635.172Z" fill="#282830"/>
<path d="M654.709 602.929L651.18 604.979V600.764L654.709 602.929Z" fill="#282830"/>
<path d="M662.22 589.94L658.577 587.775L662.22 585.724V589.94Z" fill="#282830"/>
<path d="M654.822 633.008L651.066 635.172V630.843L654.822 633.008Z" fill="#282830"/>
<path d="M662.334 620.133L658.463 617.968L662.334 615.803V620.133Z" fill="#282830"/>
<path d="M662.334 650.326L658.463 648.047L662.334 645.882V650.326Z" fill="#282830"/>
</g>
<defs>
<clipPath id="clip0_55_1656">
<rect width="666.695" height="650" fill="white" transform="matrix(-1 0 0 -1 667 650.326)"/>
</clipPath>
</defs>
</svg>
